<?xml version="1.0" standalone="no"?>
<!DOCTYPE svg PUBLIC "-//W3C//DTD SVG 1.1//EN" "http://www.w3.org/Graphics/SVG/1.1/DTD/svg11.dtd" >
<svg xmlns="http://www.w3.org/2000/svg">
<metadata></metadata>
<defs>
<font id="dejavu_sans_monobold_oblique" horiz-adv-x="1233" >
<font-face units-per-em="2048" ascent="1556" descent="-492" />
<missing-glyph horiz-adv-x="500" />
<glyph unicode="&#xd;" />
<glyph unicode=" " />
<glyph unicode="!" d="M393 283h266l-55 -283h-266zM629 1493h266l-127 -655l-102 -357h-199l33 357z" />
<glyph unicode="&#x22;" d="M999 1493v-555h-256v555h256zM487 1493v-555h-256v555h256z" />
<glyph unicode="#" d="M752 881h-203l-74 -293h203zM696 1470l-94 -374h205l94 374h221l-94 -374h240l-54 -215h-241l-72 -293h240l-54 -215h-241l-94 -373h-222l95 373h-205l-94 -373h-222l95 373h-240l53 215h242l72 293h-240l53 215h242l94 374h221z" />
<glyph unicode="$" d="M647 532l-59 -305q82 11 131 58.5t49 115.5q0 52 -28.5 83t-92.5 48zM561 821l53 278q-72 -9 -113.5 -54t-41.5 -113q0 -42 26 -70.5t76 -40.5zM485 -301h-141l57 301q-85 2 -175 25t-187 67l51 262q89 -61 178 -94t176 -37l68 346q-157 40 -235 122t-78 206 q0 177 127.5 295.5t330.5 126.5l48 237h141l-47 -237q71 -4 144 -18t149 -39l-50 -250q-60 39 -131.5 61t-152.5 27l-64 -318q172 -46 253 -130t81 -214q0 -184 -131.5 -303.5t-353.5 -134.5z" />
<glyph unicode="%" d="M33 1112q0 134 93 227t226 93t226.5 -93.5t93.5 -226.5t-93.5 -226t-226.5 -93t-226 92.5t-93 226.5zM352 1249q-57 0 -97 -39.5t-40 -97.5t40 -97.5t97 -39.5q58 0 97.5 39.5t39.5 97.5q0 57 -40 97t-97 40zM86 561l1042 418l41 -96l-1048 -418zM580 319q0 134 92.5 227 t226.5 93q132 0 226 -93.5t94 -226.5q0 -132 -94 -225.5t-226 -93.5q-134 0 -226.5 92.5t-92.5 226.5zM897 457q-56 0 -95.5 -40t-39.5 -98t39 -97.5t96 -39.5q58 0 98.5 40t40.5 97t-41 97.5t-98 40.5z" />
<glyph unicode="&#x26;" d="M739 72q-86 -50 -175.5 -75.5t-176.5 -25.5q-192 0 -306 106.5t-114 282.5q0 163 98.5 305.5t284.5 247.5q-26 58 -38.5 108t-12.5 97q0 183 134 292.5t362 109.5q70 0 137.5 -11t132.5 -32l-49 -256q-54 35 -118 54t-130 19q-88 0 -135 -35.5t-47 -101.5q0 -34 19 -92 t59 -145l221 -480q42 58 66 135t28 170h235q-11 -157 -71 -282.5t-168 -216.5l115 -246h-316zM436 731q-90 -52 -137 -126.5t-47 -166.5q0 -99 63.5 -165t157.5 -66q44 0 89 13.5t91 41.5z" />
<glyph unicode="'" d="M743 1493v-555h-256v555h256z" />
<glyph unicode="(" d="M1079 1554q-233 -312 -350 -613.5t-117 -594.5q0 -143 28 -296.5t85 -319.5h-225q-82 172 -122 337t-40 326q0 290 129.5 581t386.5 580h225z" />
<glyph unicode=")" d="M113 -270q233 312 350 613.5t117 594.5q0 143 -28 296.5t-85 319.5h225q81 -171 121.5 -336t40.5 -327q0 -290 -129.5 -581t-386.5 -580h-225z" />
<glyph unicode="*" d="M1108 1217l-330 -173l330 -174l-76 -141l-332 184v-344h-172v344l-331 -184l-76 141l332 174l-332 173l76 141l331 -182v344h172v-344l332 182z" />
<glyph unicode="+" d="M735 1192v-430h430v-238h-430v-432h-237v432h-432v238h432v430h237z" />
<glyph unicode="," d="M434 367h314l-54 -271l-270 -383h-215l172 383z" />
<glyph unicode="-" d="M299 735h629l-56 -291h-628z" />
<glyph unicode="." d="M418 367h334l-70 -367h-334z" />
<glyph unicode="/" d="M852 1493h223l-854 -1683h-221z" />
<glyph unicode="0" d="M489 745q0 53 36.5 89t88.5 36q53 0 90 -36.5t37 -88.5q0 -51 -37 -87.5t-90 -36.5q-52 0 -88.5 35.5t-36.5 88.5zM383 440q0 -113 34 -167t105 -54q64 0 117.5 53t89.5 152q54 152 86.5 326t32.5 301q0 114 -33 167.5t-104 53.5q-67 0 -120 -52t-89 -153 q-54 -149 -86.5 -323t-32.5 -304zM1143 1071q0 -213 -51 -432.5t-136 -378.5q-73 -137 -193.5 -213t-264.5 -76q-193 0 -300.5 118t-107.5 331q0 211 50.5 432t133.5 377q74 137 195 214t264 77q193 0 301.5 -118.5t108.5 -330.5z" />
<glyph unicode="1" d="M94 260h330l188 969l-321 -76l51 266l326 74h282l-239 -1233h309l-51 -260h-926z" />
<glyph unicode="2" d="M354 260h617l-51 -260h-949l49 252l277 248q51 46 145 128q402 354 402 507q0 72 -56 112.5t-155 40.5q-82 0 -186 -29.5t-222 -87.5l51 267q109 40 216 61t208 21q193 0 314 -95t121 -245q0 -249 -454 -638l-40 -34z" />
<glyph unicode="3" d="M514 668h-158l52 260h157q124 0 201.5 55.5t77.5 140.5q0 70 -57.5 108t-163.5 38q-83 0 -182.5 -21t-209.5 -61l54 268q104 32 200.5 48t184.5 16q204 0 327 -97t123 -256q0 -140 -94.5 -236.5t-261.5 -125.5q134 -36 200 -118t66 -214q0 -230 -163.5 -366t-444.5 -136 q-102 0 -216.5 19t-236.5 55l54 270q96 -46 199.5 -70t211.5 -24q154 0 235 68.5t81 197.5q0 82 -64.5 131.5t-171.5 49.5z" />
<glyph unicode="4" d="M772 1153l-483 -578h373zM811 1493h309l-178 -918h164l-49 -253h-164l-62 -322h-282l63 322h-594l58 286z" />
<glyph unicode="5" d="M340 1493h811l-51 -260h-572l-53 -277q33 13 69 19t77 6q197 0 313.5 -116.5t116.5 -313.5q0 -267 -178 -423.5t-486 -156.5q-95 0 -190.5 16t-190.5 48l51 266q70 -40 155.5 -61t180.5 -21q172 0 271.5 79t99.5 214q0 104 -71 164.5t-193 60.5q-78 0 -160.5 -20 t-161.5 -58z" />
<glyph unicode="6" d="M803 557q0 88 -45.5 139.5t-122.5 51.5q-105 0 -178.5 -100t-73.5 -247q0 -88 45.5 -141t120.5 -53q108 0 181 100t73 250zM1169 1458l-51 -268q-60 44 -130 67t-142 23q-157 0 -263 -108.5t-153 -317.5q60 65 136 98t165 33q167 0 264 -111.5t97 -304.5 q0 -259 -154 -430.5t-387 -171.5q-227 0 -341 125.5t-114 376.5q0 217 60.5 422t169.5 356q98 136 237 203.5t324 67.5q67 0 136.5 -15t145.5 -45z" />
<glyph unicode="7" d="M262 1493h963l-41 -209l-756 -1284h-319l735 1233h-633z" />
<glyph unicode="8" d="M778 477q0 88 -53.5 139.5t-144.5 51.5q-112 0 -183 -75.5t-71 -193.5q0 -86 55.5 -138t146.5 -52q109 0 179.5 75.5t70.5 192.5zM434 799q-104 27 -157.5 97.5t-53.5 180.5q0 183 147.5 313t360.5 130q181 0 293.5 -99t112.5 -258q0 -148 -89 -250t-239 -127 q109 -29 170 -113.5t61 -207.5q0 -220 -148.5 -357t-387.5 -137q-210 0 -325.5 99.5t-115.5 279.5q0 169 99 288.5t272 160.5zM485 1069q0 -73 45.5 -119.5t116.5 -46.5q101 0 165.5 60t64.5 153q0 79 -46 123.5t-129 44.5q-92 0 -154.5 -62t-62.5 -153z" />
<glyph unicode="9" d="M55 29l51 268q61 -44 131 -67t142 -23q156 0 262 108.5t154 317.5q-61 -65 -137 -98t-164 -33q-166 0 -262.5 111t-96.5 305q0 259 153 430.5t386 171.5q227 0 340.5 -126t113.5 -376q0 -217 -60.5 -423.5t-168.5 -356.5q-97 -136 -236 -202.5t-325 -66.5q-67 0 -137 15 t-146 45zM424 928q0 -88 44.5 -138.5t121.5 -50.5q104 0 178 100t74 246q0 88 -45.5 141.5t-120.5 53.5q-108 0 -180 -101t-72 -251z" />
<glyph unicode=":" d="M510 1063h334l-72 -365h-334zM375 367h334l-70 -367h-334z" />
<glyph unicode=";" d="M375 367h334l-54 -271l-270 -383h-215l152 383zM510 1063h334l-72 -365h-334z" />
<glyph unicode="&#x3c;" d="M1145 926l-795 -285l795 -283v-249l-1057 415v236l1057 416v-250z" />
<glyph unicode="=" d="M88 532h1057v-237h-1057v237zM88 987h1057v-235h-1057v235z" />
<glyph unicode="&#x3e;" d="M88 926v250l1057 -416v-236l-1057 -415v249l795 283z" />
<glyph unicode="?" d="M346 283h266l-55 -283h-266zM635 401h-266l30 154q18 96 62 167.5t137 149.5l107 93l8 7q145 126 145 193q0 57 -37 88t-106 31q-89 0 -191.5 -36.5t-218.5 -108.5l53 268q102 55 209 84t211 29q165 0 264 -82.5t99 -216.5q0 -95 -49 -178t-166 -181l-105 -86l-8 -7 q-126 -105 -154 -245z" />
<glyph unicode="@" d="M723 301q104 0 175 91.5t71 228.5q0 77 -40.5 121t-111.5 44q-103 0 -174.5 -89.5t-71.5 -219.5q0 -83 40 -129.5t112 -46.5zM1067 135h-197l17 82q-43 -49 -100 -75.5t-117 -26.5q-139 0 -219 88t-80 241q0 222 127.5 375.5t310.5 153.5q72 0 124 -24.5t81 -71.5 q9 35 13.5 68t4.5 63q0 91 -62 144.5t-167 53.5q-124 0 -237 -63.5t-201 -181.5q-91 -123 -139 -271t-48 -303q0 -239 118 -378.5t318 -139.5q79 0 160 24t162 72l63 -174q-107 -57 -202.5 -83.5t-190.5 -26.5q-285 0 -452.5 191t-167.5 515q0 164 44 322t128 295 q116 186 284 288.5t357 102.5q194 0 312 -102.5t118 -270.5q0 -30 -3.5 -62t-11.5 -68z" />
<glyph unicode="A" d="M717 1219l-264 -607h284zM582 1493h360l113 -1493h-293l-14 369h-400l-162 -369h-299z" />
<glyph unicode="B" d="M397 678l-86 -442h197q156 0 229.5 66.5t73.5 207.5q0 86 -53 127t-164 41h-197zM510 1260l-68 -347h197q121 0 182.5 54.5t61.5 160.5q0 68 -43 100t-133 32h-197zM270 1495h482q211 0 318.5 -83t107.5 -247q0 -161 -95 -260t-270 -119q139 -12 216 -91t77 -210 q0 -108 -38 -201.5t-107 -156.5q-75 -67 -190 -97t-310 -30h-481z" />
<glyph unicode="C" d="M946 43q-77 -36 -157.5 -54t-165.5 -18q-239 0 -365.5 137.5t-126.5 397.5q0 230 70.5 441.5t191.5 348.5q97 110 227 167t283 57q82 0 160.5 -18t155.5 -54l-64 -328q-50 68 -122.5 102.5t-160.5 34.5q-80 0 -157 -48.5t-131 -133.5q-69 -107 -111.5 -257.5 t-42.5 -285.5q0 -146 63 -223.5t181 -77.5q81 0 161.5 33.5t174.5 106.5z" />
<glyph unicode="D" d="M524 1227l-186 -961h96q112 0 189 44t120 132q52 106 84.5 252.5t32.5 272.5q0 132 -62.5 196t-191.5 64h-82zM283 1493h315q285 0 426 -123t141 -371q0 -87 -13.5 -185.5t-41.5 -211.5q-37 -151 -89 -256t-124 -174q-94 -92 -225 -132t-350 -40h-330z" />
<glyph unicode="E" d="M958 0h-929l288 1493h932l-51 -260h-635l-63 -322h575l-49 -260h-575l-76 -391h635z" />
<glyph unicode="F" d="M1217 1233h-635l-62 -322h578l-51 -260h-578l-127 -651h-295l291 1493h930z" />
<glyph unicode="G" d="M991 94q-70 -59 -168 -91t-213 -32q-242 0 -375 145t-133 408q0 215 72.5 425t192.5 345q98 111 228 168.5t282 57.5q81 0 159.5 -18t155.5 -54l-66 -328q-51 67 -120 102t-150 35q-71 0 -135.5 -29.5t-116.5 -86.5q-41 -47 -75.5 -110t-59.5 -140q-32 -98 -49 -189.5 t-17 -169.5q0 -144 64 -222.5t180 -78.5q36 0 67.5 8.5t55.5 24.5l57 291h-206l49 248h460z" />
<glyph unicode="H" d="M283 1493h295l-111 -569h369l110 569h295l-291 -1493h-295l129 664h-368l-129 -664h-295z" />
<glyph unicode="I" d="M266 1233l51 260h889l-51 -260h-297l-188 -973h297l-52 -260h-888l51 260h297l188 973h-297z" />
<glyph unicode="J" d="M-20 78l65 344q78 -96 166.5 -143.5t191.5 -47.5q116 0 172.5 54t83.5 194l148 754h-361l52 260h655l-199 -1014q-33 -170 -74 -256t-108 -141t-158 -83t-204 -28q-111 0 -218 26.5t-212 80.5z" />
<glyph unicode="K" d="M270 1493h295l-108 -557l563 557h348l-606 -604l338 -889h-303l-254 670l-172 -170l-95 -500h-294z" />
<glyph unicode="L" d="M80 0l291 1493h295l-240 -1233h631l-51 -260h-926z" />
<glyph unicode="M" d="M231 1493h353l49 -655l297 655h360l-289 -1493h-253l237 1198l-293 -655h-219l-47 655l-231 -1198h-252z" />
<glyph unicode="N" d="M266 1493h303l215 -1085l211 1085h260l-288 -1493h-293l-225 1085l-211 -1085h-263z" />
<glyph unicode="O" d="M868 1020q0 120 -40 180t-121 60q-59 0 -109 -35.5t-86 -104.5q-22 -39 -43.5 -103.5t-44.5 -156.5q-29 -115 -44 -214.5t-15 -174.5q0 -120 40 -179t121 -59q59 0 108.5 35.5t86.5 104.5q23 44 45.5 109.5t42.5 148.5q29 115 44 214.5t15 174.5zM61 465q0 200 50 405 t135 359q77 140 202 215.5t281 75.5q215 0 328.5 -126t113.5 -364q0 -202 -49 -408.5t-133 -357.5q-78 -141 -203.5 -217t-281.5 -76q-217 0 -330 126.5t-113 367.5z" />
<glyph unicode="P" d="M553 1245l-84 -438h143q146 0 218.5 67.5t72.5 202.5q0 91 -52 129.5t-177 38.5h-121zM307 1493h420q236 0 359.5 -91.5t123.5 -266.5q0 -114 -36.5 -226t-94.5 -178q-78 -91 -194 -131.5t-301 -40.5h-164l-109 -559h-295z" />
<glyph unicode="Q" d="M535 -29h-27q-218 0 -332.5 125t-114.5 365q0 202 49.5 408.5t133.5 357.5q78 141 203.5 217t281.5 76q211 0 326.5 -123.5t115.5 -347.5q0 -213 -48.5 -422.5t-133.5 -364.5q-35 -66 -87.5 -121t-125.5 -102l148 -186l-211 -134zM868 1020q0 120 -40 180t-121 60 q-59 0 -109 -35.5t-86 -104.5q-22 -39 -43.5 -103.5t-44.5 -156.5q-29 -115 -44 -214.5t-15 -174.5q0 -120 40 -179t121 -59q59 0 108.5 35.5t86.5 104.5q23 44 45.5 109.5t42.5 148.5q29 115 44 214.5t15 174.5z" />
<glyph unicode="R" d="M788 705q61 -9 95 -45t61 -123l164 -537h-301l-106 376q-3 10 -8 27q-53 187 -158 187h-117l-115 -590h-295l291 1493h410q232 0 344 -87.5t112 -268.5q0 -187 -98 -299.5t-279 -132.5zM547 1245l-80 -407h123q135 0 204.5 64t69.5 188q0 78 -46 116.5t-138 38.5h-133z " />
<glyph unicode="S" d="M506 664q-192 80 -254 155t-62 201q0 220 161.5 360t418.5 140q103 0 200.5 -20.5t188.5 -61.5l-57 -285q-68 62 -159 93.5t-202 31.5q-118 0 -192 -56.5t-74 -144.5q0 -84 184 -167l7 -3l116 -51q146 -65 213.5 -156.5t67.5 -224.5q0 -230 -161 -367t-435 -137 q-110 0 -224.5 26t-238.5 79l59 305q97 -81 203 -123.5t213 -42.5q133 0 209 58.5t76 158.5q0 62 -35 107.5t-104 74.5z" />
<glyph unicode="T" d="M618 0h-294l239 1235h-383l49 258h1059l-51 -258h-379z" />
<glyph unicode="U" d="M68 551l184 942h295l-199 -1016q0 -2 -1 -6q-7 -47 -7 -68q0 -82 46 -127t130 -45q108 0 172.5 61t89.5 185l199 1016h295l-185 -942q-35 -180 -75 -272.5t-103 -155.5q-76 -74 -180 -113t-229 -39q-219 0 -337 99t-118 282q0 42 5.5 92t17.5 107z" />
<glyph unicode="V" d="M518 242l506 1251h301l-645 -1493h-412l-65 1493h291z" />
<glyph unicode="W" d="M143 1493h254l-108 -1096l272 709h238l12 -709l297 1096h262l-461 -1493h-270l-12 784l-318 -784h-268z" />
<glyph unicode="X" d="M1071 0h-291l-200 512l-400 -512h-323l614 782l-287 711h291l187 -463l360 463h321l-573 -737z" />
<glyph unicode="Y" d="M145 1493h293l187 -649l411 649h322l-633 -905l-115 -588h-293l115 588z" />
<glyph unicode="Z" d="M281 1493h1009l-49 -244l-876 -989h700l-51 -260h-1047l47 244l858 989h-643z" />
<glyph unicode="[" d="M580 1556h507l-38 -190h-242l-281 -1446h242l-37 -190h-508z" />
<glyph unicode="\" d="M543 1493l198 -1683h-202l-199 1683h203z" />
<glyph unicode="]" d="M612 -270h-506l37 190h242l281 1446h-242l37 190h508z" />
<glyph unicode="^" d="M739 1493l437 -557h-242l-318 301l-317 -301h-242l437 557h245z" />
<glyph unicode="_" d="M1233 -293v-190h-1233v190h1233z" />
<glyph unicode="`" d="M655 1638l209 -376h-198l-295 376h284z" />
<glyph unicode="a" d="M690 530q-172 0 -255 -52t-83 -161q0 -63 40.5 -104t103.5 -41q118 0 198 93t109 265h-113zM1114 639l-123 -639h-291l25 125q-67 -77 -153.5 -115.5t-196.5 -38.5q-151 0 -239.5 87.5t-88.5 236.5q0 215 155.5 328.5t448.5 113.5h193l8 49q1 6 1.5 11.5t0.5 17.5 q0 57 -51 87t-148 30q-82 0 -185.5 -28.5t-221.5 -84.5l47 250q113 39 213.5 58.5t191.5 19.5q217 0 329 -76t112 -223q0 -39 -7 -92t-20 -117z" />
<glyph unicode="b" d="M600 209q111 0 190.5 141.5t79.5 343.5q0 101 -41.5 157t-115.5 56q-114 0 -196.5 -138.5t-82.5 -336.5q0 -104 45 -163.5t121 -59.5zM381 207l-41 -207h-293l303 1556h293l-119 -604q63 96 146 145.5t178 49.5q146 0 231.5 -109.5t85.5 -298.5q0 -131 -30.5 -260.5 t-85.5 -234.5q-69 -129 -174 -201t-222 -72q-111 0 -183 62.5t-89 173.5z" />
<glyph unicode="c" d="M956 37q-77 -33 -158.5 -49.5t-164.5 -16.5q-226 0 -354.5 124t-128.5 339q0 317 183.5 515t479.5 198q98 0 183 -20.5t161 -63.5l-53 -268q-61 58 -129 86t-146 28q-170 0 -276.5 -124t-106.5 -322q0 -128 61 -191t185 -63q70 0 149.5 26t170.5 78z" />
<glyph unicode="d" d="M633 909q-111 0 -191 -141.5t-80 -343.5q0 -101 41.5 -157t114.5 -56q114 0 197.5 138.5t83.5 336.5q0 104 -45 163.5t-121 59.5zM854 911l125 645h293l-303 -1556h-291l31 166q-66 -96 -148.5 -145.5t-177.5 -49.5q-146 0 -231.5 110t-85.5 300q0 129 31 257.5t87 235.5 q69 129 174 202t222 73q112 0 185.5 -63.5t88.5 -174.5z" />
<glyph unicode="e" d="M993 55q-95 -42 -198 -63t-213 -21q-248 0 -377 118.5t-129 346.5q0 141 44 273t124 229q84 102 200 156.5t250 54.5q209 0 335 -120t126 -318q0 -45 -6.5 -104t-20.5 -142h-759q-3 -17 -4.5 -32t-2.5 -30q0 -99 67 -149.5t198 -50.5q108 0 216 31t201 90zM876 684 q4 14 5.5 27.5t1.5 25.5q0 85 -51 134t-140 49q-100 0 -171 -59t-111 -177h466z" />
<glyph unicode="f" d="M856 1196l-16 -76h344l-43 -225h-344l-174 -895h-293l174 895h-273l43 225h273l16 78q42 211 134 284.5t331 73.5h240l-43 -225h-230q-65 0 -94 -27.5t-45 -107.5z" />
<glyph unicode="g" d="M520 246q115 0 199 132.5t84 319.5q0 100 -41 155.5t-113 55.5q-114 0 -198 -132.5t-84 -317.5q0 -102 40 -157.5t113 -55.5zM987 84q-53 -277 -191 -392.5t-411 -115.5q-98 0 -189 15t-178 44l54 265q75 -45 157.5 -67.5t169.5 -22.5q125 0 195.5 58.5t93.5 182.5 l27 133q-54 -83 -131.5 -125.5t-173.5 -42.5q-157 0 -249.5 104.5t-92.5 282.5q0 139 42 280t115 249q70 103 170.5 161t206.5 58q104 0 171.5 -55t88.5 -158l35 182h293z" />
<glyph unicode="h" d="M1102 728l-141 -728h-293l133 682q5 26 7.5 52.5t2.5 53.5q0 58 -29 88.5t-84 30.5q-83 0 -141 -71.5t-84 -206.5l-121 -629h-293l303 1556h291l-116 -604q48 92 132 143.5t185 51.5q128 0 197 -69.5t69 -196.5q0 -30 -4.5 -68t-13.5 -85z" />
<glyph unicode="i" d="M309 1120h580l-174 -895h364l-43 -225h-1022l43 225h365l131 670h-287zM702 1665h293l-67 -342h-293z" />
<glyph unicode="j" d="M733 43q-33 -167 -63.5 -238.5t-77.5 -117.5q-59 -59 -140 -85t-208 -26h-307l45 225h231q100 0 151 53.5t76 188.5l166 852h-297l43 225h590zM983 1323h-293l66 342h293z" />
<glyph unicode="k" d="M383 1556h293l-152 -782l404 346h370l-505 -418l313 -702h-311l-222 524l-116 -96l-82 -428h-293z" />
<glyph unicode="l" d="M625 365q-4 -20 -6.5 -36.5t-2.5 -21.5q0 -45 31 -63.5t109 -18.5h278l-45 -225h-297q-205 0 -290 56t-85 186q0 23 5 58t14 79l203 952h-306l43 225h598z" />
<glyph unicode="m" d="M770 1008q32 64 96 101.5t140 37.5q92 0 146 -56t54 -153q0 -47 -5.5 -95.5t-20.5 -123.5l-140 -719h-239l139 719q10 51 14 81.5t4 45.5q0 40 -17.5 61t-51.5 21q-48 0 -76.5 -45t-50.5 -164l-139 -719h-240l141 719q8 42 12.5 75t4.5 52q0 40 -18 61t-52 21 q-47 0 -74.5 -43.5t-50.5 -165.5l-139 -719h-240l217 1120h213l-22 -116q41 68 101.5 105.5t129.5 37.5t112.5 -37.5t51.5 -101.5z" />
<glyph unicode="n" d="M1102 728l-141 -728h-293l133 682q5 26 7.5 52.5t2.5 53.5q0 58 -29 88.5t-84 30.5q-82 0 -140.5 -72t-84.5 -206l-121 -629h-293l217 1120h293l-32 -168q48 92 132 143.5t185 51.5q128 0 197 -69.5t69 -196.5q0 -30 -4.5 -68t-13.5 -85z" />
<glyph unicode="o" d="M850 684q0 109 -46.5 168t-131.5 59q-123 0 -206 -136t-83 -341q0 -106 48.5 -166.5t131.5 -60.5q121 0 204 136.5t83 340.5zM88 426q0 322 166.5 522.5t433.5 200.5q215 0 336 -120.5t121 -334.5q0 -323 -166.5 -523t-433.5 -200q-215 0 -336 120.5t-121 334.5z" />
<glyph unicode="p" d="M379 207l-123 -633h-293l301 1546h293l-33 -168q71 98 153 146.5t175 48.5q147 0 232 -109.5t85 -298.5q0 -129 -31 -259t-87 -236q-69 -129 -174 -201t-222 -72q-112 0 -184 62t-92 174zM602 209q111 0 191.5 142t80.5 343q0 101 -41.5 157t-115.5 56 q-114 0 -197.5 -138.5t-83.5 -336.5q0 -104 45 -163.5t121 -59.5z" />
<glyph unicode="q" d="M854 911l39 209h293l-301 -1546h-291l115 592q-63 -95 -146 -145t-178 -50q-146 0 -231.5 110t-85.5 300q0 129 31 257.5t87 235.5q70 130 174 202.5t220 72.5q111 0 183.5 -62.5t90.5 -175.5zM633 909q-111 0 -191 -141.5t-80 -343.5q0 -100 42 -156.5t116 -56.5 q114 0 196.5 138.5t82.5 336.5q0 104 -45 163.5t-121 59.5z" />
<glyph unicode="r" d="M1174 815q-48 43 -107 63.5t-133 20.5q-166 0 -255.5 -88t-129.5 -295l-100 -516h-295l219 1120h293l-35 -174q62 96 161 148.5t218 52.5q62 0 117.5 -15t99.5 -42z" />
<glyph unicode="s" d="M1094 1085l-50 -254q-75 53 -162 80t-180 27q-94 0 -149 -35t-55 -94q0 -45 36.5 -72.5t165.5 -64.5l74 -21q128 -37 187 -107t59 -184q0 -182 -137.5 -285.5t-382.5 -103.5q-104 0 -207.5 17.5t-202.5 52.5l51 256q86 -56 181 -85.5t188 -29.5q110 0 171.5 37.5 t61.5 104.5q0 46 -30.5 72t-163.5 65l-88 24q-122 36 -179 105.5t-57 181.5q0 168 136 271.5t362 103.5q93 0 186 -15.5t185 -46.5z" />
<glyph unicode="t" d="M848 1438l-62 -318h383l-43 -225h-383l-104 -530q-4 -20 -6 -35t-2 -23q0 -45 30 -63.5t109 -18.5h225l-43 -225h-245q-204 0 -289.5 55.5t-85.5 184.5q0 21 4.5 55t13.5 84l101 516h-287l43 225h287l61 318h293z" />
<glyph unicode="u" d="M123 391l143 729h291l-131 -684q-5 -27 -7.5 -53t-2.5 -51q0 -58 29 -89.5t83 -31.5q83 0 139.5 70t84.5 208l122 631h291l-217 -1120h-293l33 166q-44 -90 -129 -142.5t-186 -52.5q-129 0 -198 70.5t-69 202.5q0 28 4 64t13 83z" />
<glyph unicode="v" d="M1231 1120l-551 -1120h-369l-139 1120h283l80 -878l389 878h307z" />
<glyph unicode="w" d="M96 1120h240l-33 -858l227 565h230l22 -565l291 858h252l-418 -1120h-280l-19 590l-239 -590h-279z" />
<glyph unicode="x" d="M1227 1120l-477 -553l278 -567h-299l-170 356l-303 -356h-332l512 594l-258 526h301l148 -317l268 317h332z" />
<glyph unicode="y" d="M551 -121q-112 -198 -193.5 -250.5t-207.5 -52.5h-240l45 223h117q87 0 137 30t110 142l39 74l-217 1075h297l127 -700l383 700h309z" />
<glyph unicode="z" d="M293 1120h895l-45 -229l-707 -672h576l-43 -219h-920l45 229l707 672h-551z" />
<glyph unicode="{" d="M879 -143l-37 -191h-148q-196 0 -280 54.5t-84 179.5q0 23 3.5 51t14.5 84l43 215q9 48 13 78.5t4 50.5q0 76 -48 106.5t-167 30.5h-62l37 191h61q143 0 207 55t94 211l41 215q43 224 136.5 296t353.5 72h149l-36 -190h-123q-104 0 -148.5 -43t-71.5 -184l-38 -209 q-32 -167 -94.5 -234t-192.5 -84q95 -21 136.5 -64.5t41.5 -119.5q0 -29 -4 -63.5t-12 -73.5l-41 -205q-9 -46 -13 -74t-4 -45q0 -59 34 -84.5t114 -25.5h121z" />
<glyph unicode="|" d="M729 1565v-2048h-227v2048h227z" />
<glyph unicode="}" d="M6 -143h123q103 0 147 42.5t72 186.5l39 205q32 164 95 233t192 88q-94 16 -136 58t-42 121q0 26 4 61.5t12 77.5l41 209q9 48 12.5 75t3.5 43q0 60 -33 84.5t-114 24.5h-121l37 190h147q205 0 287 -48t82 -162q0 -35 -20 -144l-3 -15l-41 -215q-6 -32 -10 -61t-4 -49 q0 -85 47.5 -120t163.5 -35h62l-37 -191h-62q-141 0 -206.5 -58t-94.5 -208l-41 -215q-43 -222 -142 -295.5t-347 -73.5h-150z" />
<glyph unicode="~" d="M1145 811v-233q-75 -60 -146.5 -87.5t-150.5 -27.5q-90 0 -203 51q-22 10 -33 14q-77 34 -128.5 46t-102.5 12q-78 0 -148.5 -29t-144.5 -92v229q78 61 151 88t156 27q53 0 103 -11t124 -42l33 -15q116 -55 209 -55q70 0 139 30.5t142 94.5z" />
<glyph unicode="&#xa0;" />
<glyph unicode="&#xa1;" d="M840 1210h-267l56 283h266zM604 0h-266l127 655l102 357h199l-35 -357z" />
<glyph unicode="&#xa2;" d="M1102 1077l-53 -264q-45 40 -100 63.5t-119 30.5l-135 -692q64 5 128.5 28t128.5 64l-51 -264q-62 -31 -125.5 -48t-128.5 -20l-55 -288h-141l55 288q-194 22 -298 140.5t-104 318.5q0 155 54.5 293t156.5 244q80 83 187.5 127.5t230.5 46.5l55 287h142l-55 -287 q53 -3 110 -20t117 -48zM552 215l136 692q-136 -15 -229.5 -145.5t-93.5 -304.5q0 -106 52 -172.5t135 -69.5z" />
<glyph unicode="&#xa3;" d="M1245 1456l-53 -266q-60 41 -119 61.5t-121 20.5q-105 0 -168.5 -67t-91.5 -210l-33 -176h336l-43 -225h-338l-63 -334h481l-51 -260h-1004l52 260h235l64 334h-199l45 225h199l37 197q51 268 179 386t367 118q74 0 146 -16t143 -48z" />
<glyph unicode="&#xa4;" d="M827 643q0 73 -50 122.5t-124 49.5q-73 0 -123.5 -49.5t-50.5 -122.5q0 -74 50.5 -125t123.5 -51q74 0 124 51t50 125zM819 938l172 170l127 -129l-170 -170q23 -41 34 -82.5t11 -85.5q0 -47 -11.5 -87.5t-35.5 -76.5l172 -170l-131 -131l-170 172q-36 -24 -76 -35.5 t-88 -11.5q-39 0 -81 10.5t-87 32.5l-170 -168l-129 129l170 170q-22 42 -33.5 83.5t-11.5 82.5q0 47 11.5 87.5t35.5 78.5l-172 170l131 131l166 -172q41 24 82.5 35.5t87.5 11.5q39 0 79.5 -11t86.5 -34z" />
<glyph unicode="&#xa5;" d="M127 1493h317l174 -600l408 600h317l-374 -528h223l-37 -187h-321l-115 -151h407l-36 -189h-412l-86 -438h-293l84 438h-412l37 189h408l-58 151h-321l37 187h223z" />
<glyph unicode="&#xa6;" d="M729 408v-758h-227v758h227zM729 1432v-758h-227v758h227z" />
<glyph unicode="&#xa7;" d="M649 795q-1 0 -41 27.5t-78 54.5q-58 -44 -89 -88t-31 -82q0 -39 17.5 -68t55.5 -55l78 -54q22 -15 51 -34t70 -45q57 39 88 83t31 84q0 35 -19 67t-53 56zM1059 1460l-45 -229q-68 34 -133.5 50.5t-128.5 16.5q-85 0 -132 -34t-47 -97q0 -41 30.5 -77t139.5 -105 l105 -67q99 -65 141.5 -126t42.5 -137q0 -84 -55.5 -159t-169.5 -142q45 -43 66.5 -93.5t21.5 -113.5q0 -152 -119.5 -247t-314.5 -95q-82 0 -170.5 15t-186.5 45l46 229q74 -33 153 -50t154 -17q86 0 133 34t47 97q0 69 -152 170l-18 12l-100 68q-109 72 -149 129.5 t-40 132.5q0 93 61 170t175 127q-51 41 -75 90t-24 112q0 157 117.5 254t308.5 97q71 0 151 -15t167 -45z" />
<glyph unicode="&#xa8;" d="M858 1585h238l-49 -246h-236zM463 1585h237l-49 -246h-235z" />
<glyph unicode="&#xa9;" d="M848 1049v-168q-52 31 -97.5 45t-93.5 14q-97 0 -150.5 -52t-53.5 -147t53 -146.5t151 -51.5q53 0 101 14.5t90 44.5v-168q-55 -17 -108 -26t-103 -9q-169 0 -270 93.5t-101 248.5q0 156 101 249t270 93q55 0 107.5 -8.5t103.5 -25.5zM616 1358q127 0 236 -45t199 -135 q90 -91 136 -201t46 -236q0 -125 -45.5 -234t-136.5 -200t-200 -136.5t-235 -45.5q-125 0 -234 45.5t-200 136.5t-136.5 200t-45.5 234q0 126 46 236t136 201q90 90 199 135t235 45zM616 1229q-99 0 -184 -35.5t-158 -108.5q-71 -71 -107 -157t-36 -187q0 -98 36 -183 t107 -157t157 -108.5t185 -36.5q100 0 186 36.5t156 108.5q72 72 108 157t36 183q0 101 -36 187t-108 157q-72 73 -156.5 108.5t-185.5 35.5z" />
<glyph unicode="&#xaa;" d="M1032 1165l-88 -448h-207l19 88q-46 -54 -107.5 -80.5t-140.5 -26.5q-107 0 -170.5 61t-63.5 165q0 149 111.5 229t319.5 80h135l6 35q1 3 1.5 7t0.5 11q0 40 -36.5 61t-106.5 21q-57 0 -130.5 -20t-156.5 -58l33 174q80 28 151.5 42t136.5 14q148 0 230 -52.5t82 -146.5 q0 -32 -4 -66.5t-15 -89.5zM731 1087q-122 0 -180.5 -36t-58.5 -111q0 -44 29 -73t73 -29q85 0 141 64.5t76 184.5h-80zM246 598h688l-35 -170h-688z" />
<glyph unicode="&#xab;" d="M1102 1059l-45 -238l-320 -221l234 -221l-45 -238l-394 394l25 131zM649 1059l-47 -238l-319 -221l233 -221l-45 -238l-393 394l24 131z" />
<glyph unicode="&#xac;" d="M88 899h1057v-537h-238v300h-819v237z" />
<glyph unicode="&#xad;" d="M299 735h629l-56 -291h-628z" />
<glyph unicode="&#xae;" d="M616 1358q127 0 236 -45t199 -135q90 -91 136 -201t46 -236q0 -125 -45.5 -234t-136.5 -200t-200 -136.5t-235 -45.5q-125 0 -234 45.5t-200 136.5t-136.5 200t-45.5 234q0 126 46 236t136 201q90 90 199 135t235 45zM588 944h-64v-164h64q57 0 85.5 20t28.5 60 q0 43 -28 63.5t-86 20.5zM606 1055q133 0 197.5 -44t64.5 -134q0 -65 -39 -107.5t-110 -54.5q38 -14 65.5 -42t51.5 -77l79 -166h-172l-63 133q-27 58 -55.5 81.5t-69.5 25.5h-31v-240h-164v625h246zM616 1229q-99 0 -184 -35.5t-158 -108.5q-71 -71 -107 -157t-36 -187 q0 -98 36 -183t107 -159q72 -71 157.5 -107t184.5 -36t185 36t157 107q72 74 108 159t36 183q0 101 -36 187t-108 157q-72 73 -156.5 108.5t-185.5 35.5z" />
<glyph unicode="&#xaf;" d="M459 1556h631l-37 -188h-631z" />
<glyph unicode="&#xb0;" d="M616 1520q67 0 128 -25.5t108 -73.5q47 -47 71.5 -107t24.5 -128q0 -66 -25 -127t-71 -107q-48 -47 -109 -72.5t-129 -25.5q-141 0 -236 95t-95 237q0 141 96 237.5t237 96.5zM616 1358q-72 0 -122 -50t-50 -122t49 -121t121 -49t122 49.5t50 120.5q0 72 -49.5 122 t-120.5 50z" />
<glyph unicode="&#xb1;" d="M735 1284v-354h410v-236h-410v-354h-237v354h-410v236h410v354h237zM88 238h1057v-238h-1057v238z" />
<glyph unicode="&#xb2;" d="M514 813h438l-28 -145h-664l29 141q51 37 142 102q400 286 400 377q0 45 -36 69.5t-103 24.5q-63 0 -137.5 -18t-151.5 -53l31 162q76 23 149 35t146 12q144 0 221.5 -54t77.5 -153q0 -140 -410 -427q-68 -47 -104 -73z" />
<glyph unicode="&#xb3;" d="M639 1042h-111l29 146h109q88 0 135 27.5t47 78.5q0 40 -40 63t-110 23q-48 0 -117 -12t-149 -35l29 152q73 17 143.5 26t136.5 9q141 0 220 -51t79 -140q0 -90 -60.5 -145.5t-172.5 -67.5q83 -9 132.5 -58.5t49.5 -123.5q0 -134 -109.5 -207.5t-312.5 -73.5 q-75 0 -148.5 10.5t-142.5 30.5l31 154q62 -27 135 -41t152 -14q96 0 151.5 40.5t55.5 110.5q0 45 -43.5 71.5t-118.5 26.5z" />
<glyph unicode="&#xb4;" d="M887 1638h321l-442 -376h-197z" />
<glyph unicode="&#xb5;" d="M-55 -428l301 1548h289l-132 -680q-6 -28 -9 -52t-3 -42q0 -63 34 -98t95 -35q82 0 133 56t74 171l131 680h289l-150 -776q-5 -35 -7.5 -51.5t-2.5 -24.5q0 -27 10.5 -41t30.5 -14q12 0 26.5 6t35.5 19l-43 -222q-46 -23 -86 -34t-76 -11q-72 0 -110 37.5t-50 120.5 q-53 -79 -114.5 -118.5t-131.5 -39.5q-58 0 -96 24t-53 71l-97 -494h-288z" />
<glyph unicode="&#xb6;" d="M672 1493h518l-328 -1690h-190l301 1543h-191l-299 -1543h-190l164 846q-171 18 -263 104t-92 228q0 217 162.5 364.5t407.5 147.5z" />
<glyph unicode="&#xb7;" d="M479 895h334l-72 -365h-333z" />
<glyph unicode="&#xb8;" d="M151 0zM564 0q36 -48 54 -94t18 -90q0 -99 -76.5 -158t-206.5 -59q-52 0 -103 6.5t-99 19.5l28 156q43 -17 84 -26t76 -9q68 0 104.5 27t36.5 77q0 26 -13 60.5t-44 89.5h141z" />
<glyph unicode="&#xb9;" d="M315 813h236l106 543l-229 -43l29 149l229 41h197l-135 -690h227l-29 -145h-657z" />
<glyph unicode="&#xba;" d="M307 1016q0 224 119.5 364t312.5 140q155 0 241.5 -84t86.5 -234q0 -225 -119 -364.5t-311 -139.5q-156 0 -243 84t-87 234zM856 1196q0 76 -34 118t-95 42q-87 0 -147 -96t-60 -238q0 -75 34.5 -117.5t94.5 -42.5q87 0 147 96t60 238zM254 598h688l-33 -170h-688z" />
<glyph unicode="&#xbb;" d="M260 1059l393 -393l-26 -131l-545 -394l45 238l322 221l-234 221zM715 1059l393 -393l-27 -131l-544 -394l45 238l321 221l-233 221z" />
<glyph unicode="&#xbc;" d="M31 0zM887 383l-314 -330h250zM905 565h205l-101 -512h109l-27 -143h-108l-35 -180h-188l36 180h-389l31 162zM57 969h236l106 543l-229 -43l29 149l229 41h197l-135 -690h227l-29 -145h-657zM84 500l-37 118l1059 261l37 -117z" />
<glyph unicode="&#xbd;" d="M31 0zM57 969h236l106 543l-229 -43l29 149l229 41h197l-135 -690h227l-29 -145h-657zM84 500l-37 118l1059 261l37 -117zM668 -125h438l-28 -145h-664l29 141q51 37 142 102q400 286 400 377q0 45 -36 69.5t-103 24.5q-63 0 -137.5 -18t-151.5 -53l31 162q76 23 149 35 t146 12q144 0 221.5 -54t77.5 -153q0 -140 -410 -427q-68 -47 -104 -73z" />
<glyph unicode="&#xbe;" d="M47 0zM887 383l-314 -330h250zM905 565h205l-101 -512h109l-27 -143h-108l-35 -180h-188l36 180h-389l31 162zM412 1198h-111l29 146h109q88 0 135 27.5t47 78.5q0 40 -40 63t-110 23q-48 0 -117 -12t-149 -35l29 152q73 17 143.5 26t136.5 9q141 0 220 -51t79 -140 q0 -90 -60.5 -145.5t-172.5 -67.5q83 -9 132.5 -58.5t49.5 -123.5q0 -134 -109.5 -207.5t-312.5 -73.5q-75 0 -148.5 10.5t-142.5 30.5l31 154q62 -27 135 -41t152 -14q96 0 151.5 40.5t55.5 110.5q0 45 -43.5 71.5t-118.5 26.5zM84 500l-37 118l1059 261l37 -117z" />
<glyph unicode="&#xbf;" d="M594 1092h266l-29 -154q-17 -95 -61.5 -166t-138.5 -151l-105 -93l-15 -13q-140 -122 -140 -187q0 -57 37 -88t106 -31q89 0 191.5 36.5t218.5 108.5l-52 -268q-101 -55 -208 -84t-211 -29q-165 0 -264 82.5t-99 216.5q0 95 49 178t166 181l105 86l8 7q126 105 153 245z M885 1210h-267l54 283h268z" />
<glyph unicode="&#xc0;" d="M0 0zM717 1219l-264 -607h284zM582 1493h360l113 -1493h-293l-14 369h-400l-162 -369h-299zM764 1899l143 -264h-178l-229 264h264z" />
<glyph unicode="&#xc1;" d="M0 0zM717 1219l-264 -607h284zM582 1493h360l113 -1493h-293l-14 369h-400l-162 -369h-299zM862 1899h281l-320 -264h-207z" />
<glyph unicode="&#xc2;" d="M0 0zM717 1219l-264 -607h284zM582 1493h360l113 -1493h-293l-14 369h-400l-162 -369h-299zM639 1899h348l151 -264h-169l-164 161l-230 -161h-180z" />
<glyph unicode="&#xc3;" d="M0 0zM717 1219l-264 -607h284zM582 1493h360l113 -1493h-293l-14 369h-400l-162 -369h-299zM782 1686l-49 37q-25 19 -41.5 25.5t-34.5 6.5q-35 0 -61.5 -32t-36.5 -88h-137q25 128 90.5 197t161.5 69q37 0 69.5 -12t67.5 -39l53 -41q15 -13 33.5 -20t34.5 -7 q39 0 65 30.5t37 88.5h137q-26 -128 -91 -197t-159 -69q-37 0 -69 11t-70 40z" />
<glyph unicode="&#xc4;" d="M0 0zM717 1219l-264 -607h284zM582 1493h360l113 -1493h-293l-14 369h-400l-162 -369h-299zM899 1899h235l-47 -246h-237zM504 1899h235l-49 -246h-236z" />
<glyph unicode="&#xc5;" d="M623 1616q0 -54 38.5 -92.5t92.5 -38.5t92.5 38.5t38.5 92.5t-39 92.5t-92 38.5q-54 0 -92.5 -38.5t-38.5 -92.5zM948 1409l107 -1409h-295l-21 369h-395l-162 -369h-295l660 1421q-36 36 -57 89t-21 106q0 117 83.5 201t201.5 84q116 0 200 -84t84 -201 q0 -59 -23.5 -113t-66.5 -94zM709 1223l-258 -611h278z" />
<glyph unicode="&#xc6;" d="M1311 1493l-51 -260h-291l-60 -311h260l-51 -260h-260l-78 -402h310l-52 -260h-563l72 362h-283l-155 -362h-259l652 1493h809zM637 1233l-272 -635h227l125 635h-80z" />
<glyph unicode="&#xc7;" d="M131 0zM946 43q-77 -36 -157.5 -54t-165.5 -18q-239 0 -365.5 137.5t-126.5 397.5q0 230 70.5 441.5t191.5 348.5q97 110 227 167t283 57q82 0 160.5 -18t155.5 -54l-64 -328q-50 68 -122.5 102.5t-160.5 34.5q-80 0 -157 -48.5t-131 -133.5q-69 -107 -111.5 -257.5 t-42.5 -285.5q0 -146 63 -223.5t181 -77.5q81 0 161.5 33.5t174.5 106.5zM681 0q36 -48 54 -94t18 -90q0 -99 -76.5 -158t-206.5 -59q-52 0 -103 6.5t-99 19.5l28 156q43 -17 84 -26t76 -9q68 0 104.5 27t36.5 77q0 26 -13 60.5t-44 89.5h141z" />
<glyph unicode="&#xc8;" d="M29 0zM958 0h-929l288 1493h932l-51 -260h-635l-63 -322h575l-49 -260h-575l-76 -391h635zM801 1899l143 -264h-178l-229 264h264z" />
<glyph unicode="&#xc9;" d="M29 0zM958 0h-929l288 1493h932l-51 -260h-635l-63 -322h575l-49 -260h-575l-76 -391h635zM899 1899h281l-320 -264h-207z" />
<glyph unicode="&#xca;" d="M29 0zM958 0h-929l288 1493h932l-51 -260h-635l-63 -322h575l-49 -260h-575l-76 -391h635zM676 1899h348l151 -264h-169l-164 161l-230 -161h-180z" />
<glyph unicode="&#xcb;" d="M29 0zM958 0h-929l288 1493h932l-51 -260h-635l-63 -322h575l-49 -260h-575l-76 -391h635zM936 1899h235l-47 -246h-237zM541 1899h235l-49 -246h-236z" />
<glyph unicode="&#xcc;" d="M27 0zM266 1233l51 260h889l-51 -260h-297l-188 -973h297l-52 -260h-888l51 260h297l188 973h-297zM760 1899l143 -264h-178l-229 264h264z" />
<glyph unicode="&#xcd;" d="M27 0zM266 1233l51 260h889l-51 -260h-297l-188 -973h297l-52 -260h-888l51 260h297l188 973h-297zM858 1899h281l-320 -264h-207z" />
<glyph unicode="&#xce;" d="M27 0zM266 1233l51 260h889l-51 -260h-297l-188 -973h297l-52 -260h-888l51 260h297l188 973h-297zM635 1899h348l151 -264h-169l-164 161l-230 -161h-180z" />
<glyph unicode="&#xcf;" d="M27 0zM266 1233l51 260h889l-51 -260h-297l-188 -973h297l-52 -260h-888l51 260h297l188 973h-297zM895 1899h235l-47 -246h-237zM500 1899h235l-49 -246h-236z" />
<glyph unicode="&#xd0;" d="M283 1493h315q285 0 426 -123t141 -371q0 -87 -13.5 -185.5t-41.5 -211.5q-37 -151 -89 -256t-124 -174q-94 -92 -225 -132t-350 -40h-330l129 664h-137l47 237h135zM524 1227l-63 -326h211l-45 -237h-211l-78 -398h96q112 0 189 44t120 132q52 106 84.5 252.5 t32.5 272.5q0 132 -62.5 196t-191.5 64h-82z" />
<glyph unicode="&#xd1;" d="M0 0zM266 1493h303l215 -1085l211 1085h260l-288 -1493h-293l-225 1085l-211 -1085h-263zM782 1686l-49 37q-25 19 -41.5 25.5t-34.5 6.5q-35 0 -61.5 -32t-36.5 -88h-137q25 128 90.5 197t161.5 69q37 0 69.5 -12t67.5 -39l53 -41q15 -13 33.5 -20t34.5 -7q39 0 65 30.5 t37 88.5h137q-26 -128 -91 -197t-159 -69q-37 0 -69 11t-70 40z" />
<glyph unicode="&#xd2;" d="M61 0zM868 1020q0 120 -40 180t-121 60q-59 0 -109 -35.5t-86 -104.5q-22 -39 -43.5 -103.5t-44.5 -156.5q-29 -115 -44 -214.5t-15 -174.5q0 -120 40 -179t121 -59q59 0 108.5 35.5t86.5 104.5q23 44 45.5 109.5t42.5 148.5q29 115 44 214.5t15 174.5zM61 465 q0 200 50 405t135 359q77 140 202 215.5t281 75.5q215 0 328.5 -126t113.5 -364q0 -202 -49 -408.5t-133 -357.5q-78 -141 -203.5 -217t-281.5 -76q-217 0 -330 126.5t-113 367.5zM764 1899l143 -264h-178l-229 264h264z" />
<glyph unicode="&#xd3;" d="M61 0zM868 1020q0 120 -40 180t-121 60q-59 0 -109 -35.5t-86 -104.5q-22 -39 -43.5 -103.5t-44.5 -156.5q-29 -115 -44 -214.5t-15 -174.5q0 -120 40 -179t121 -59q59 0 108.5 35.5t86.5 104.5q23 44 45.5 109.5t42.5 148.5q29 115 44 214.5t15 174.5zM61 465 q0 200 50 405t135 359q77 140 202 215.5t281 75.5q215 0 328.5 -126t113.5 -364q0 -202 -49 -408.5t-133 -357.5q-78 -141 -203.5 -217t-281.5 -76q-217 0 -330 126.5t-113 367.5zM862 1899h281l-320 -264h-207z" />
<glyph unicode="&#xd4;" d="M61 0zM868 1020q0 120 -40 180t-121 60q-59 0 -109 -35.5t-86 -104.5q-22 -39 -43.5 -103.5t-44.5 -156.5q-29 -115 -44 -214.5t-15 -174.5q0 -120 40 -179t121 -59q59 0 108.5 35.5t86.5 104.5q23 44 45.5 109.5t42.5 148.5q29 115 44 214.5t15 174.5zM61 465 q0 200 50 405t135 359q77 140 202 215.5t281 75.5q215 0 328.5 -126t113.5 -364q0 -202 -49 -408.5t-133 -357.5q-78 -141 -203.5 -217t-281.5 -76q-217 0 -330 126.5t-113 367.5zM639 1899h348l151 -264h-169l-164 161l-230 -161h-180z" />
<glyph unicode="&#xd5;" d="M61 0zM868 1020q0 120 -40 180t-121 60q-59 0 -109 -35.5t-86 -104.5q-22 -39 -43.5 -103.5t-44.5 -156.5q-29 -115 -44 -214.5t-15 -174.5q0 -120 40 -179t121 -59q59 0 108.5 35.5t86.5 104.5q23 44 45.5 109.5t42.5 148.5q29 115 44 214.5t15 174.5zM61 465 q0 200 50 405t135 359q77 140 202 215.5t281 75.5q215 0 328.5 -126t113.5 -364q0 -202 -49 -408.5t-133 -357.5q-78 -141 -203.5 -217t-281.5 -76q-217 0 -330 126.5t-113 367.5zM782 1686l-49 37q-25 19 -41.5 25.5t-34.5 6.5q-35 0 -61.5 -32t-36.5 -88h-137 q25 128 90.5 197t161.5 69q37 0 69.5 -12t67.5 -39l53 -41q15 -13 33.5 -20t34.5 -7q39 0 65 30.5t37 88.5h137q-26 -128 -91 -197t-159 -69q-37 0 -69 11t-70 40z" />
<glyph unicode="&#xd6;" d="M61 0zM868 1020q0 120 -40 180t-121 60q-59 0 -109 -35.5t-86 -104.5q-22 -39 -43.5 -103.5t-44.5 -156.5q-29 -115 -44 -214.5t-15 -174.5q0 -120 40 -179t121 -59q59 0 108.5 35.5t86.5 104.5q23 44 45.5 109.5t42.5 148.5q29 115 44 214.5t15 174.5zM61 465 q0 200 50 405t135 359q77 140 202 215.5t281 75.5q215 0 328.5 -126t113.5 -364q0 -202 -49 -408.5t-133 -357.5q-78 -141 -203.5 -217t-281.5 -76q-217 0 -330 126.5t-113 367.5zM899 1899h235l-47 -246h-237zM504 1899h235l-49 -246h-236z" />
<glyph unicode="&#xd7;" d="M1112 971l-330 -328l330 -330l-168 -166l-330 328l-327 -328l-168 166l330 330l-330 328l168 168l327 -328l330 328z" />
<glyph unicode="&#xd8;" d="M375 354q18 -60 56.5 -90.5t94.5 -30.5q125 0 202.5 153t129.5 503zM78 295q-8 34 -12.5 71t-4.5 76q0 214 49 423t134 362q78 142 204 217.5t283 75.5q105 0 188 -33t144 -98l154 170l139 -115l-205 -227q10 -56 15 -104.5t5 -92.5q0 -62 -7 -133t-21 -150 q-25 -139 -63 -257t-91 -216q-78 -141 -203.5 -217t-281.5 -76q-114 0 -200.5 37t-143.5 109l-160 -180l-141 114zM852 1153q-18 52 -55.5 79.5t-89.5 27.5q-121 0 -197.5 -146.5t-130.5 -484.5z" />
<glyph unicode="&#xd9;" d="M45 0zM68 551l184 942h295l-199 -1016q0 -2 -1 -6q-7 -47 -7 -68q0 -82 46 -127t130 -45q108 0 172.5 61t89.5 185l199 1016h295l-185 -942q-35 -180 -75 -272.5t-103 -155.5q-76 -74 -180 -113t-229 -39q-219 0 -337 99t-118 282q0 42 5.5 92t17.5 107zM770 1899 l143 -264h-178l-229 264h264z" />
<glyph unicode="&#xda;" d="M45 0zM68 551l184 942h295l-199 -1016q0 -2 -1 -6q-7 -47 -7 -68q0 -82 46 -127t130 -45q108 0 172.5 61t89.5 185l199 1016h295l-185 -942q-35 -180 -75 -272.5t-103 -155.5q-76 -74 -180 -113t-229 -39q-219 0 -337 99t-118 282q0 42 5.5 92t17.5 107zM868 1899h281 l-320 -264h-207z" />
<glyph unicode="&#xdb;" d="M45 0zM68 551l184 942h295l-199 -1016q0 -2 -1 -6q-7 -47 -7 -68q0 -82 46 -127t130 -45q108 0 172.5 61t89.5 185l199 1016h295l-185 -942q-35 -180 -75 -272.5t-103 -155.5q-76 -74 -180 -113t-229 -39q-219 0 -337 99t-118 282q0 42 5.5 92t17.5 107zM645 1899h348 l151 -264h-169l-164 161l-230 -161h-180z" />
<glyph unicode="&#xdc;" d="M45 0zM68 551l184 942h295l-199 -1016q0 -2 -1 -6q-7 -47 -7 -68q0 -82 46 -127t130 -45q108 0 172.5 61t89.5 185l199 1016h295l-185 -942q-35 -180 -75 -272.5t-103 -155.5q-76 -74 -180 -113t-229 -39q-219 0 -337 99t-118 282q0 42 5.5 92t17.5 107zM905 1899h235 l-47 -246h-237zM510 1899h235l-49 -246h-236z" />
<glyph unicode="&#xdd;" d="M145 0zM145 1493h293l187 -649l411 649h322l-633 -905l-115 -588h-293l115 588zM858 1899h281l-320 -264h-207z" />
<glyph unicode="&#xde;" d="M375 332l-64 -332h-295l291 1493h295l-47 -227h127q236 0 359.5 -92t123.5 -267q0 -113 -36.5 -224t-94.5 -177q-78 -92 -194.5 -133t-300.5 -41h-164zM510 1018l-86 -438h145q146 0 217.5 67t71.5 203q0 91 -51.5 129.5t-175.5 38.5h-121z" />
<glyph unicode="&#xdf;" d="M1145 1059q-141 -8 -219 -58t-78 -133q0 -57 96 -153l6 -6l76 -76q59 -59 88 -121.5t29 -130.5q0 -188 -128.5 -299t-348.5 -111q-66 0 -131 12.5t-129 36.5l49 250q58 -31 111.5 -47t99.5 -16q90 0 142 39.5t52 107.5q0 66 -111 177l-6 6l-69 71q-44 45 -65 96.5 t-21 110.5q0 135 91.5 228.5t260.5 130.5v16q0 64 -45 99.5t-127 35.5q-93 0 -150 -51t-77 -152l-219 -1122h-293l219 1126q41 212 172.5 322.5t343.5 110.5q198 0 295.5 -87t97.5 -264q0 -43 -11 -143z" />
<glyph unicode="&#xe0;" d="M47 0zM690 530q-172 0 -255 -52t-83 -161q0 -63 40.5 -104t103.5 -41q118 0 198 93t109 265h-113zM1114 639l-123 -639h-291l25 125q-67 -77 -153.5 -115.5t-196.5 -38.5q-151 0 -239.5 87.5t-88.5 236.5q0 215 155.5 328.5t448.5 113.5h193l8 49q1 6 1.5 11.5t0.5 17.5 q0 57 -51 87t-148 30q-82 0 -185.5 -28.5t-221.5 -84.5l47 250q113 39 213.5 58.5t191.5 19.5q217 0 329 -76t112 -223q0 -39 -7 -92t-20 -117zM686 1638l209 -376h-198l-295 376h284z" />
<glyph unicode="&#xe1;" d="M47 0zM690 530q-172 0 -255 -52t-83 -161q0 -63 40.5 -104t103.5 -41q118 0 198 93t109 265h-113zM1114 639l-123 -639h-291l25 125q-67 -77 -153.5 -115.5t-196.5 -38.5q-151 0 -239.5 87.5t-88.5 236.5q0 215 155.5 328.5t448.5 113.5h193l8 49q1 6 1.5 11.5t0.5 17.5 q0 57 -51 87t-148 30q-82 0 -185.5 -28.5t-221.5 -84.5l47 250q113 39 213.5 58.5t191.5 19.5q217 0 329 -76t112 -223q0 -39 -7 -92t-20 -117zM918 1638h321l-442 -376h-197z" />
<glyph unicode="&#xe2;" d="M47 0zM690 530q-172 0 -255 -52t-83 -161q0 -63 40.5 -104t103.5 -41q118 0 198 93t109 265h-113zM1114 639l-123 -639h-291l25 125q-67 -77 -153.5 -115.5t-196.5 -38.5q-151 0 -239.5 87.5t-88.5 236.5q0 215 155.5 328.5t448.5 113.5h193l8 49q1 6 1.5 11.5t0.5 17.5 q0 57 -51 87t-148 30q-82 0 -185.5 -28.5t-221.5 -84.5l47 250q113 39 213.5 58.5t191.5 19.5q217 0 329 -76t112 -223q0 -39 -7 -92t-20 -117zM699 1638h243l183 -376h-176l-152 225l-240 -225h-190z" />
<glyph unicode="&#xe3;" d="M47 0zM690 530q-172 0 -255 -52t-83 -161q0 -63 40.5 -104t103.5 -41q118 0 198 93t109 265h-113zM1114 639l-123 -639h-291l25 125q-67 -77 -153.5 -115.5t-196.5 -38.5q-151 0 -239.5 87.5t-88.5 236.5q0 215 155.5 328.5t448.5 113.5h193l8 49q1 6 1.5 11.5t0.5 17.5 q0 57 -51 87t-148 30q-82 0 -185.5 -28.5t-221.5 -84.5l47 250q113 39 213.5 58.5t191.5 19.5q217 0 329 -76t112 -223q0 -39 -7 -92t-20 -117zM770 1364l-49 37q-1 1 -5 4q-42 33 -73 33q-34 0 -60 -34.5t-36 -94.5h-139q19 130 87 207t163 77q34 0 64.5 -12.5t76.5 -48.5 l51 -39q19 -15 37 -23t33 -8q38 0 64 33.5t36 95.5h139q-23 -141 -85.5 -212.5t-163.5 -71.5q-35 0 -67.5 13t-72.5 44z" />
<glyph unicode="&#xe4;" d="M47 0zM690 530q-172 0 -255 -52t-83 -161q0 -63 40.5 -104t103.5 -41q118 0 198 93t109 265h-113zM1114 639l-123 -639h-291l25 125q-67 -77 -153.5 -115.5t-196.5 -38.5q-151 0 -239.5 87.5t-88.5 236.5q0 215 155.5 328.5t448.5 113.5h193l8 49q1 6 1.5 11.5t0.5 17.5 q0 57 -51 87t-148 30q-82 0 -185.5 -28.5t-221.5 -84.5l47 250q113 39 213.5 58.5t191.5 19.5q217 0 329 -76t112 -223q0 -39 -7 -92t-20 -117zM889 1585h238l-49 -246h-236zM494 1585h237l-49 -246h-235z" />
<glyph unicode="&#xe5;" d="M47 0zM690 530q-172 0 -255 -52t-83 -161q0 -63 40.5 -104t103.5 -41q118 0 198 93t109 265h-113zM1114 639l-123 -639h-291l25 125q-67 -77 -153.5 -115.5t-196.5 -38.5q-151 0 -239.5 87.5t-88.5 236.5q0 215 155.5 328.5t448.5 113.5h193l8 49q1 6 1.5 11.5t0.5 17.5 q0 57 -51 87t-148 30q-82 0 -185.5 -28.5t-221.5 -84.5l47 250q113 39 213.5 58.5t191.5 19.5q217 0 329 -76t112 -223q0 -39 -7 -92t-20 -117zM494 1534q0 118 83 201.5t202 83.5q118 0 201 -83.5t83 -201.5t-83 -201.5t-201 -83.5q-119 0 -202 83.5t-83 201.5zM647 1534 q0 -55 38.5 -93t93.5 -38q54 0 92.5 38.5t38.5 92.5t-39 92.5t-92 38.5q-55 0 -93.5 -38.5t-38.5 -92.5z" />
<glyph unicode="&#xe6;" d="M463 401l14 78h-74q-98 0 -156.5 -51.5t-58.5 -136.5q0 -51 29 -81t78 -30q67 0 107 52t61 169zM991 688l12 67q4 17 5.5 34t1.5 45q0 51 -20 74.5t-64 23.5q-56 0 -91.5 -42t-54.5 -130l-14 -72h225zM1176 477h-451q-8 -49 -11 -75.5t-3 -45.5q0 -80 42.5 -128 t112.5 -48q56 0 124.5 28.5t133.5 80.5l-47 -238q-57 -40 -125 -60t-149 -20q-94 0 -161 42.5t-99 121.5q-61 -83 -134.5 -123.5t-162.5 -40.5q-127 0 -202 79t-75 212q0 193 121.5 310.5t325.5 117.5h108l11 58q3 15 4.5 30t1.5 29q0 61 -34 93t-99 32q-52 0 -121.5 -25.5 t-155.5 -75.5l47 238q79 39 151.5 58.5t141.5 19.5q82 0 140 -35t83 -98q52 65 121.5 99t153.5 34q126 0 194 -70t68 -200q0 -49 -8 -116t-25 -155z" />
<glyph unicode="&#xe7;" d="M150 0zM956 37q-77 -33 -158.5 -49.5t-164.5 -16.5q-226 0 -354.5 124t-128.5 339q0 317 183.5 515t479.5 198q98 0 183 -20.5t161 -63.5l-53 -268q-61 58 -129 86t-146 28q-170 0 -276.5 -124t-106.5 -322q0 -128 61 -191t185 -63q70 0 149.5 26t170.5 78zM636 0 q36 -48 54 -94t18 -90q0 -99 -76.5 -158t-206.5 -59q-52 0 -103 6.5t-99 19.5l28 156q43 -17 84 -26t76 -9q68 0 104.5 27t36.5 77q0 26 -13 60.5t-44 89.5h141z" />
<glyph unicode="&#xe8;" d="M76 0zM993 55q-95 -42 -198 -63t-213 -21q-248 0 -377 118.5t-129 346.5q0 141 44 273t124 229q84 102 200 156.5t250 54.5q209 0 335 -120t126 -318q0 -45 -6.5 -104t-20.5 -142h-759q-3 -17 -4.5 -32t-2.5 -30q0 -99 67 -149.5t198 -50.5q108 0 216 31t201 90zM876 684 q4 14 5.5 27.5t1.5 25.5q0 85 -51 134t-140 49q-100 0 -171 -59t-111 -177h466zM655 1638l209 -376h-198l-295 376h284z" />
<glyph unicode="&#xe9;" d="M76 0zM993 55q-95 -42 -198 -63t-213 -21q-248 0 -377 118.5t-129 346.5q0 141 44 273t124 229q84 102 200 156.5t250 54.5q209 0 335 -120t126 -318q0 -45 -6.5 -104t-20.5 -142h-759q-3 -17 -4.5 -32t-2.5 -30q0 -99 67 -149.5t198 -50.5q108 0 216 31t201 90zM876 684 q4 14 5.5 27.5t1.5 25.5q0 85 -51 134t-140 49q-100 0 -171 -59t-111 -177h466zM887 1638h321l-442 -376h-197z" />
<glyph unicode="&#xea;" d="M76 0zM993 55q-95 -42 -198 -63t-213 -21q-248 0 -377 118.5t-129 346.5q0 141 44 273t124 229q84 102 200 156.5t250 54.5q209 0 335 -120t126 -318q0 -45 -6.5 -104t-20.5 -142h-759q-3 -17 -4.5 -32t-2.5 -30q0 -99 67 -149.5t198 -50.5q108 0 216 31t201 90zM876 684 q4 14 5.5 27.5t1.5 25.5q0 85 -51 134t-140 49q-100 0 -171 -59t-111 -177h466zM668 1638h243l183 -376h-176l-152 225l-240 -225h-190z" />
<glyph unicode="&#xeb;" d="M76 0zM993 55q-95 -42 -198 -63t-213 -21q-248 0 -377 118.5t-129 346.5q0 141 44 273t124 229q84 102 200 156.5t250 54.5q209 0 335 -120t126 -318q0 -45 -6.5 -104t-20.5 -142h-759q-3 -17 -4.5 -32t-2.5 -30q0 -99 67 -149.5t198 -50.5q108 0 216 31t201 90zM876 684 q4 14 5.5 27.5t1.5 25.5q0 85 -51 134t-140 49q-100 0 -171 -59t-111 -177h466zM858 1585h238l-49 -246h-236zM463 1585h237l-49 -246h-235z" />
<glyph unicode="&#xec;" d="M14 0zM309 1120h580l-174 -895h364l-43 -225h-1022l43 225h365l131 670h-287zM610 1638l209 -376h-198l-295 376h284z" />
<glyph unicode="&#xed;" d="M14 0zM309 1120h580l-174 -895h364l-43 -225h-1022l43 225h365l131 670h-287zM842 1638h321l-442 -376h-197z" />
<glyph unicode="&#xee;" d="M14 0zM309 1120h580l-174 -895h364l-43 -225h-1022l43 225h365l131 670h-287zM623 1638h243l183 -376h-176l-152 225l-240 -225h-190z" />
<glyph unicode="&#xef;" d="M14 0zM309 1120h580l-174 -895h364l-43 -225h-1022l43 225h365l131 670h-287zM813 1585h238l-49 -246h-236zM418 1585h237l-49 -246h-235z" />
<glyph unicode="&#xf0;" d="M838 778q-38 21 -79 31t-85 10q-129 0 -214 -110.5t-85 -280.5q0 -101 50 -161t134 -60q126 0 207.5 125.5t81.5 322.5q0 33 -2.5 63t-7.5 60zM903 1329q120 -182 179 -349.5t59 -326.5q0 -308 -165 -495t-437 -187q-218 0 -337.5 115.5t-119.5 325.5q0 281 160 461 t409 180q42 0 75 -6t62 -19q-27 63 -54.5 116.5t-55.5 98.5l-330 -123l-41 115l307 115l-125 206h279l74 -120l323 118l41 -112z" />
<glyph unicode="&#xf1;" d="M59 0zM1102 728l-141 -728h-293l133 682q5 26 7.5 52.5t2.5 53.5q0 58 -29 88.5t-84 30.5q-82 0 -140.5 -72t-84.5 -206l-121 -629h-293l217 1120h293l-32 -168q48 92 132 143.5t185 51.5q128 0 197 -69.5t69 -196.5q0 -30 -4.5 -68t-13.5 -85zM739 1364l-49 37 q-1 1 -5 4q-42 33 -73 33q-34 0 -60 -34.5t-36 -94.5h-139q19 130 87 207t163 77q34 0 64.5 -12.5t76.5 -48.5l51 -39q19 -15 37 -23t33 -8q38 0 64 33.5t36 95.5h139q-23 -141 -85.5 -212.5t-163.5 -71.5q-35 0 -67.5 13t-72.5 44z" />
<glyph unicode="&#xf2;" d="M88 0zM850 684q0 109 -46.5 168t-131.5 59q-123 0 -206 -136t-83 -341q0 -106 48.5 -166.5t131.5 -60.5q121 0 204 136.5t83 340.5zM88 426q0 322 166.5 522.5t433.5 200.5q215 0 336 -120.5t121 -334.5q0 -323 -166.5 -523t-433.5 -200q-215 0 -336 120.5t-121 334.5z M655 1638l209 -376h-198l-295 376h284z" />
<glyph unicode="&#xf3;" d="M88 0zM850 684q0 109 -46.5 168t-131.5 59q-123 0 -206 -136t-83 -341q0 -106 48.5 -166.5t131.5 -60.5q121 0 204 136.5t83 340.5zM88 426q0 322 166.5 522.5t433.5 200.5q215 0 336 -120.5t121 -334.5q0 -323 -166.5 -523t-433.5 -200q-215 0 -336 120.5t-121 334.5z M887 1638h321l-442 -376h-197z" />
<glyph unicode="&#xf4;" d="M88 0zM850 684q0 109 -46.5 168t-131.5 59q-123 0 -206 -136t-83 -341q0 -106 48.5 -166.5t131.5 -60.5q121 0 204 136.5t83 340.5zM88 426q0 322 166.5 522.5t433.5 200.5q215 0 336 -120.5t121 -334.5q0 -323 -166.5 -523t-433.5 -200q-215 0 -336 120.5t-121 334.5z M668 1638h243l183 -376h-176l-152 225l-240 -225h-190z" />
<glyph unicode="&#xf5;" d="M88 0zM850 684q0 109 -46.5 168t-131.5 59q-123 0 -206 -136t-83 -341q0 -106 48.5 -166.5t131.5 -60.5q121 0 204 136.5t83 340.5zM88 426q0 322 166.5 522.5t433.5 200.5q215 0 336 -120.5t121 -334.5q0 -323 -166.5 -523t-433.5 -200q-215 0 -336 120.5t-121 334.5z M739 1364l-49 37q-1 1 -5 4q-42 33 -73 33q-34 0 -60 -34.5t-36 -94.5h-139q19 130 87 207t163 77q34 0 64.5 -12.5t76.5 -48.5l51 -39q19 -15 37 -23t33 -8q38 0 64 33.5t36 95.5h139q-23 -141 -85.5 -212.5t-163.5 -71.5q-35 0 -67.5 13t-72.5 44z" />
<glyph unicode="&#xf6;" d="M88 0zM850 684q0 109 -46.5 168t-131.5 59q-123 0 -206 -136t-83 -341q0 -106 48.5 -166.5t131.5 -60.5q121 0 204 136.5t83 340.5zM88 426q0 322 166.5 522.5t433.5 200.5q215 0 336 -120.5t121 -334.5q0 -323 -166.5 -523t-433.5 -200q-215 0 -336 120.5t-121 334.5z M858 1585h238l-49 -246h-236zM463 1585h237l-49 -246h-235z" />
<glyph unicode="&#xf7;" d="M461 1198h309v-309h-309v309zM461 395h309v-309h-309v309zM66 762h1099v-238h-1099v238z" />
<glyph unicode="&#xf8;" d="M434 266q24 -30 55.5 -44.5t71.5 -14.5q121 0 197 121t92 342zM129 209q-20 46 -30.5 99t-10.5 114q0 327 165.5 527t434.5 200q92 0 169.5 -25t143.5 -75l193 186l117 -121l-207 -201q20 -49 30.5 -103.5t10.5 -113.5q0 -326 -166 -525.5t-436 -199.5q-98 0 -173.5 25 t-136.5 76l-198 -189l-117 119zM801 856q-25 28 -56.5 41.5t-70.5 13.5q-121 0 -196.5 -118t-94.5 -340z" />
<glyph unicode="&#xf9;" d="M106 0zM123 391l143 729h291l-131 -684q-5 -27 -7.5 -53t-2.5 -51q0 -58 29 -89.5t83 -31.5q83 0 139.5 70t84.5 208l122 631h291l-217 -1120h-293l33 166q-44 -90 -129 -142.5t-186 -52.5q-129 0 -198 70.5t-69 202.5q0 28 4 64t13 83zM655 1638l209 -376h-198l-295 376 h284z" />
<glyph unicode="&#xfa;" d="M106 0zM123 391l143 729h291l-131 -684q-5 -27 -7.5 -53t-2.5 -51q0 -58 29 -89.5t83 -31.5q83 0 139.5 70t84.5 208l122 631h291l-217 -1120h-293l33 166q-44 -90 -129 -142.5t-186 -52.5q-129 0 -198 70.5t-69 202.5q0 28 4 64t13 83zM887 1638h321l-442 -376h-197z " />
<glyph unicode="&#xfb;" d="M106 0zM123 391l143 729h291l-131 -684q-5 -27 -7.5 -53t-2.5 -51q0 -58 29 -89.5t83 -31.5q83 0 139.5 70t84.5 208l122 631h291l-217 -1120h-293l33 166q-44 -90 -129 -142.5t-186 -52.5q-129 0 -198 70.5t-69 202.5q0 28 4 64t13 83zM668 1638h243l183 -376h-176 l-152 225l-240 -225h-190z" />
<glyph unicode="&#xfc;" d="M106 0zM123 391l143 729h291l-131 -684q-5 -27 -7.5 -53t-2.5 -51q0 -58 29 -89.5t83 -31.5q83 0 139.5 70t84.5 208l122 631h291l-217 -1120h-293l33 166q-44 -90 -129 -142.5t-186 -52.5q-129 0 -198 70.5t-69 202.5q0 28 4 64t13 83zM858 1585h238l-49 -246h-236z M463 1585h237l-49 -246h-235z" />
<glyph unicode="&#xfd;" d="M0 0zM551 -121q-112 -198 -193.5 -250.5t-207.5 -52.5h-240l45 223h117q87 0 137 30t110 142l39 74l-217 1075h297l127 -700l383 700h309zM887 1638h321l-442 -376h-197z" />
<glyph unicode="&#xfe;" d="M602 209q111 0 191.5 142t80.5 343q0 101 -41.5 157t-115.5 56q-114 0 -197.5 -138.5t-83.5 -336.5q0 -104 45 -163.5t121 -59.5zM379 207l-123 -633h-293l385 1982h293l-117 -604q71 98 153 146.5t175 48.5q147 0 232 -109.5t85 -298.5q0 -129 -31 -259t-87 -236 q-69 -129 -174 -201t-222 -72q-112 0 -184 62t-92 174z" />
<glyph unicode="&#xff;" d="M0 0zM551 -121q-112 -198 -193.5 -250.5t-207.5 -52.5h-240l45 223h117q87 0 137 30t110 142l39 74l-217 1075h297l127 -700l383 700h309zM858 1585h238l-49 -246h-236zM463 1585h237l-49 -246h-235z" />
<glyph unicode="&#x100;" d="M0 0zM717 1219l-264 -607h284zM582 1493h360l113 -1493h-293l-14 369h-400l-162 -369h-299zM519 1870h631l-36 -188h-631z" />
<glyph unicode="&#x101;" d="M47 0zM690 530q-172 0 -255 -52t-83 -161q0 -63 40.5 -104t103.5 -41q118 0 198 93t109 265h-113zM1114 639l-123 -639h-291l25 125q-67 -77 -153.5 -115.5t-196.5 -38.5q-151 0 -239.5 87.5t-88.5 236.5q0 215 155.5 328.5t448.5 113.5h193l8 49q1 6 1.5 11.5t0.5 17.5 q0 57 -51 87t-148 30q-82 0 -185.5 -28.5t-221.5 -84.5l47 250q113 39 213.5 58.5t191.5 19.5q217 0 329 -76t112 -223q0 -39 -7 -92t-20 -117zM459 1556h631l-37 -188h-631z" />
<glyph unicode="&#x102;" d="M0 0zM508 1899h143q10 -60 51 -87.5t120 -27.5q71 0 124 30.5t76 84.5h154q-40 -129 -139 -196.5t-246 -67.5q-136 0 -209.5 67.5t-73.5 192.5v4zM717 1219l-264 -607h284zM582 1493h360l113 -1493h-293l-14 369h-400l-162 -369h-299z" />
<glyph unicode="&#x103;" d="M47 0zM446 1606h144v-13q0 -61 44 -97t120 -36q81 0 139.5 38.5t83.5 107.5h143q-29 -142 -128 -219.5t-251 -77.5q-148 0 -221.5 65.5t-73.5 198.5v33zM690 530q-172 0 -255 -52t-83 -161q0 -63 40.5 -104t103.5 -41q118 0 198 93t109 265h-113zM1114 639l-123 -639 h-291l25 125q-67 -77 -153.5 -115.5t-196.5 -38.5q-151 0 -239.5 87.5t-88.5 236.5q0 215 155.5 328.5t448.5 113.5h193l8 49q1 6 1.5 11.5t0.5 17.5q0 57 -51 87t-148 30q-82 0 -185.5 -28.5t-221.5 -84.5l47 250q113 39 213.5 58.5t191.5 19.5q217 0 329 -76t112 -223 q0 -39 -7 -92t-20 -117z" />
<glyph unicode="&#x104;" d="M0 0zM767 0h141q-75 -80 -99 -117t-24 -63q0 -33 26 -53.5t68 -20.5q37 0 77 7.5t85 23.5l-31 -156q-49 -11 -95 -16.5t-89 -5.5q-99 0 -157 38.5t-58 104.5q0 60 39 124.5t117 133.5zM717 1219l-264 -607h284zM582 1493h360l113 -1493h-293l-14 369h-400l-162 -369h-299 z" />
<glyph unicode="&#x105;" d="M47 0zM700 0h141q-75 -80 -99 -117t-24 -63q0 -33 26 -53.5t68 -20.5q37 0 77 7.5t85 23.5l-31 -156q-49 -11 -95 -16.5t-89 -5.5q-99 0 -157 38.5t-58 104.5q0 60 39 124.5t117 133.5zM690 530q-172 0 -255 -52t-83 -161q0 -63 40.5 -104t103.5 -41q118 0 198 93 t109 265h-113zM1114 639l-123 -639h-291l25 125q-67 -77 -153.5 -115.5t-196.5 -38.5q-151 0 -239.5 87.5t-88.5 236.5q0 215 155.5 328.5t448.5 113.5h193l8 49q1 6 1.5 11.5t0.5 17.5q0 57 -51 87t-148 30q-82 0 -185.5 -28.5t-221.5 -84.5l47 250q113 39 213.5 58.5 t191.5 19.5q217 0 329 -76t112 -223q0 -39 -7 -92t-20 -117z" />
<glyph unicode="&#x106;" d="M131 0zM946 43q-77 -36 -157.5 -54t-165.5 -18q-239 0 -365.5 137.5t-126.5 397.5q0 230 70.5 441.5t191.5 348.5q97 110 227 167t283 57q82 0 160.5 -18t155.5 -54l-64 -328q-50 68 -122.5 102.5t-160.5 34.5q-80 0 -157 -48.5t-131 -133.5q-69 -107 -111.5 -257.5 t-42.5 -285.5q0 -146 63 -223.5t181 -77.5q81 0 161.5 33.5t174.5 106.5zM1004 1899h281l-320 -264h-207z" />
<glyph unicode="&#x107;" d="M150 0zM956 37q-77 -33 -158.5 -49.5t-164.5 -16.5q-226 0 -354.5 124t-128.5 339q0 317 183.5 515t479.5 198q98 0 183 -20.5t161 -63.5l-53 -268q-61 58 -129 86t-146 28q-170 0 -276.5 -124t-106.5 -322q0 -128 61 -191t185 -63q70 0 149.5 26t170.5 78zM973 1638h321 l-442 -376h-197z" />
<glyph unicode="&#x108;" d="M131 0zM781 1899h348l151 -264h-169l-164 161l-230 -161h-180zM946 43q-77 -36 -157.5 -54t-165.5 -18q-239 0 -365.5 137.5t-126.5 397.5q0 230 70.5 441.5t191.5 348.5q97 110 227 167t283 57q82 0 160.5 -18t155.5 -54l-64 -328q-50 68 -122.5 102.5t-160.5 34.5 q-80 0 -157 -48.5t-131 -133.5q-69 -107 -111.5 -257.5t-42.5 -285.5q0 -146 63 -223.5t181 -77.5q81 0 161.5 33.5t174.5 106.5z" />
<glyph unicode="&#x109;" d="M150 0zM754 1638h243l183 -376h-176l-152 225l-240 -225h-190zM956 37q-77 -33 -158.5 -49.5t-164.5 -16.5q-226 0 -354.5 124t-128.5 339q0 317 183.5 515t479.5 198q98 0 183 -20.5t161 -63.5l-53 -268q-61 58 -129 86t-146 28q-170 0 -276.5 -124t-106.5 -322 q0 -128 61 -191t185 -63q70 0 149.5 26t170.5 78z" />
<glyph unicode="&#x10a;" d="M131 0zM803 1899h275l-48 -246h-275zM946 43q-77 -36 -157.5 -54t-165.5 -18q-239 0 -365.5 137.5t-126.5 397.5q0 230 70.5 441.5t191.5 348.5q97 110 227 167t283 57q82 0 160.5 -18t155.5 -54l-64 -328q-50 68 -122.5 102.5t-160.5 34.5q-80 0 -157 -48.5t-131 -133.5 q-69 -107 -111.5 -257.5t-42.5 -285.5q0 -146 63 -223.5t181 -77.5q81 0 161.5 33.5t174.5 106.5z" />
<glyph unicode="&#x10b;" d="M150 0zM718 1585h272l-47 -246h-274zM956 37q-77 -33 -158.5 -49.5t-164.5 -16.5q-226 0 -354.5 124t-128.5 339q0 317 183.5 515t479.5 198q98 0 183 -20.5t161 -63.5l-53 -268q-61 58 -129 86t-146 28q-170 0 -276.5 -124t-106.5 -322q0 -128 61 -191t185 -63 q70 0 149.5 26t170.5 78z" />
<glyph unicode="&#x10c;" d="M131 0zM946 43q-77 -36 -157.5 -54t-165.5 -18q-239 0 -365.5 137.5t-126.5 397.5q0 230 70.5 441.5t191.5 348.5q97 110 227 167t283 57q82 0 160.5 -18t155.5 -54l-64 -328q-50 68 -122.5 102.5t-160.5 34.5q-80 0 -157 -48.5t-131 -133.5q-69 -107 -111.5 -257.5 t-42.5 -285.5q0 -146 63 -223.5t181 -77.5q81 0 161.5 33.5t174.5 106.5zM1088 1635h-348l-137 264h170l149 -162l229 162h181z" />
<glyph unicode="&#x10d;" d="M150 0zM956 37q-77 -33 -158.5 -49.5t-164.5 -16.5q-226 0 -354.5 124t-128.5 339q0 317 183.5 515t479.5 198q98 0 183 -20.5t161 -63.5l-53 -268q-61 58 -129 86t-146 28q-170 0 -276.5 -124t-106.5 -322q0 -128 61 -191t185 -63q70 0 149.5 26t170.5 78zM924 1262 h-242l-182 376h174l153 -227l238 227h190z" />
<glyph unicode="&#x10e;" d="M0 0zM524 1227l-186 -961h96q112 0 189 44t120 132q52 106 84.5 252.5t32.5 272.5q0 132 -62.5 196t-191.5 64h-82zM283 1493h315q285 0 426 -123t141 -371q0 -87 -13.5 -185.5t-41.5 -211.5q-37 -151 -89 -256t-124 -174q-94 -92 -225 -132t-350 -40h-330zM968 1635 h-348l-137 264h170l149 -162l229 162h181z" />
<glyph unicode="&#x10f;" d="M66 0zM1333 1556h321l-257 -376h-197zM633 909q-111 0 -191 -141.5t-80 -343.5q0 -101 41.5 -157t114.5 -56q114 0 197.5 138.5t83.5 336.5q0 104 -45 163.5t-121 59.5zM854 911l125 645h293l-303 -1556h-291l31 166q-66 -96 -148.5 -145.5t-177.5 -49.5 q-146 0 -231.5 110t-85.5 300q0 129 31 257.5t87 235.5q69 129 174 202t222 73q112 0 185.5 -63.5t88.5 -174.5z" />
<glyph unicode="&#x110;" d="M0 0zM283 1493h315q285 0 426 -123t141 -371q0 -87 -13.5 -185.5t-41.5 -211.5q-37 -151 -89 -256t-124 -174q-94 -92 -225 -132t-350 -40h-330l129 664h-137l47 237h135zM524 1227l-63 -326h211l-45 -237h-211l-78 -398h96q112 0 189 44t120 132q52 106 84.5 252.5 t32.5 272.5q0 132 -62.5 196t-191.5 64h-82z" />
<glyph unicode="&#x111;" d="M854 911l66 340h-304l37 189h303l23 116h293l-23 -116h146l-37 -189h-146l-243 -1251h-291l31 166q-66 -96 -148.5 -145.5t-177.5 -49.5q-146 0 -231.5 110t-85.5 300q0 129 31 257.5t87 235.5q69 129 174 202t222 73q112 0 185.5 -63.5t88.5 -174.5zM633 909 q-111 0 -191 -141.5t-80 -343.5q0 -101 41.5 -157t114.5 -56q114 0 197.5 138.5t83.5 336.5q0 104 -45 163.5t-121 59.5z" />
<glyph unicode="&#x112;" d="M29 0zM958 0h-929l288 1493h932l-51 -260h-635l-63 -322h575l-49 -260h-575l-76 -391h635zM550 1870h631l-36 -188h-631z" />
<glyph unicode="&#x113;" d="M76 0zM993 55q-95 -42 -198 -63t-213 -21q-248 0 -377 118.5t-129 346.5q0 141 44 273t124 229q84 102 200 156.5t250 54.5q209 0 335 -120t126 -318q0 -45 -6.5 -104t-20.5 -142h-759q-3 -17 -4.5 -32t-2.5 -30q0 -99 67 -149.5t198 -50.5q108 0 216 31t201 90zM876 684 q4 14 5.5 27.5t1.5 25.5q0 85 -51 134t-140 49q-100 0 -171 -59t-111 -177h466zM498 1556h631l-37 -188h-631z" />
<glyph unicode="&#x114;" d="M29 0zM539 1899h143q10 -60 51 -87.5t120 -27.5q71 0 124 30.5t76 84.5h154q-40 -129 -139 -196.5t-246 -67.5q-136 0 -209.5 67.5t-73.5 192.5v4zM958 0h-929l288 1493h932l-51 -260h-635l-63 -322h575l-49 -260h-575l-76 -391h635z" />
<glyph unicode="&#x115;" d="M76 0zM485 1606h144v-13q0 -61 44 -97t120 -36q81 0 139.5 38.5t83.5 107.5h143q-29 -142 -128 -219.5t-251 -77.5q-148 0 -221.5 65.5t-73.5 198.5v33zM993 55q-95 -42 -198 -63t-213 -21q-248 0 -377 118.5t-129 346.5q0 141 44 273t124 229q84 102 200 156.5t250 54.5 q209 0 335 -120t126 -318q0 -45 -6.5 -104t-20.5 -142h-759q-3 -17 -4.5 -32t-2.5 -30q0 -99 67 -149.5t198 -50.5q108 0 216 31t201 90zM876 684q4 14 5.5 27.5t1.5 25.5q0 85 -51 134t-140 49q-100 0 -171 -59t-111 -177h466z" />
<glyph unicode="&#x116;" d="M29 0zM734 1899h275l-48 -246h-275zM958 0h-929l288 1493h932l-51 -260h-635l-63 -322h575l-49 -260h-575l-76 -391h635z" />
<glyph unicode="&#x117;" d="M76 0zM682 1585h272l-47 -246h-274zM993 55q-95 -42 -198 -63t-213 -21q-248 0 -377 118.5t-129 346.5q0 141 44 273t124 229q84 102 200 156.5t250 54.5q209 0 335 -120t126 -318q0 -45 -6.5 -104t-20.5 -142h-759q-3 -17 -4.5 -32t-2.5 -30q0 -99 67 -149.5t198 -50.5 q108 0 216 31t201 90zM876 684q4 14 5.5 27.5t1.5 25.5q0 85 -51 134t-140 49q-100 0 -171 -59t-111 -177h466z" />
<glyph unicode="&#x118;" d="M29 0zM687 0h141q-75 -80 -99 -117t-24 -63q0 -33 26 -53.5t68 -20.5q37 0 77 7.5t85 23.5l-31 -156q-49 -11 -95 -16.5t-89 -5.5q-99 0 -157 38.5t-58 104.5q0 60 39 124.5t117 133.5zM958 0h-929l288 1493h932l-51 -260h-635l-63 -322h575l-49 -260h-575l-76 -391h635z " />
<glyph unicode="&#x119;" d="M76 0zM688 0h141q-75 -80 -99 -117t-24 -63q0 -33 26 -53.5t68 -20.5q37 0 77 7.5t85 23.5l-31 -156q-49 -11 -95 -16.5t-89 -5.5q-99 0 -157 38.5t-58 104.5q0 60 39 124.5t117 133.5zM993 55q-95 -42 -198 -63t-213 -21q-248 0 -377 118.5t-129 346.5q0 141 44 273 t124 229q84 102 200 156.5t250 54.5q209 0 335 -120t126 -318q0 -45 -6.5 -104t-20.5 -142h-759q-3 -17 -4.5 -32t-2.5 -30q0 -99 67 -149.5t198 -50.5q108 0 216 31t201 90zM876 684q4 14 5.5 27.5t1.5 25.5q0 85 -51 134t-140 49q-100 0 -171 -59t-111 -177h466z" />
<glyph unicode="&#x11a;" d="M29 0zM958 0h-929l288 1493h932l-51 -260h-635l-63 -322h575l-49 -260h-575l-76 -391h635zM1004 1635h-348l-137 264h170l149 -162l229 162h181z" />
<glyph unicode="&#x11b;" d="M76 0zM993 55q-95 -42 -198 -63t-213 -21q-248 0 -377 118.5t-129 346.5q0 141 44 273t124 229q84 102 200 156.5t250 54.5q209 0 335 -120t126 -318q0 -45 -6.5 -104t-20.5 -142h-759q-3 -17 -4.5 -32t-2.5 -30q0 -99 67 -149.5t198 -50.5q108 0 216 31t201 90zM876 684 q4 14 5.5 27.5t1.5 25.5q0 85 -51 134t-140 49q-100 0 -171 -59t-111 -177h466zM904 1262h-242l-182 376h174l153 -227l238 227h190z" />
<glyph unicode="&#x11c;" d="M102 0zM773 1899h348l151 -264h-169l-164 161l-230 -161h-180zM991 94q-70 -59 -168 -91t-213 -32q-242 0 -375 145t-133 408q0 215 72.5 425t192.5 345q98 111 228 168.5t282 57.5q81 0 159.5 -18t155.5 -54l-66 -328q-51 67 -120 102t-150 35q-71 0 -135.5 -29.5 t-116.5 -86.5q-41 -47 -75.5 -110t-59.5 -140q-32 -98 -49 -189.5t-17 -169.5q0 -144 64 -222.5t180 -78.5q36 0 67.5 8.5t55.5 24.5l57 291h-206l49 248h460z" />
<glyph unicode="&#x11d;" d="M18 0zM668 1638h243l183 -376h-176l-152 225l-240 -225h-190zM520 246q115 0 199 132.5t84 319.5q0 100 -41 155.5t-113 55.5q-114 0 -198 -132.5t-84 -317.5q0 -102 40 -157.5t113 -55.5zM987 84q-53 -277 -191 -392.5t-411 -115.5q-98 0 -189 15t-178 44l54 265 q75 -45 157.5 -67.5t169.5 -22.5q125 0 195.5 58.5t93.5 182.5l27 133q-54 -83 -131.5 -125.5t-173.5 -42.5q-157 0 -249.5 104.5t-92.5 282.5q0 139 42 280t115 249q70 103 170.5 161t206.5 58q104 0 171.5 -55t88.5 -158l35 182h293z" />
<glyph unicode="&#x11e;" d="M102 0zM558 1899h143q10 -60 51 -87.5t120 -27.5q71 0 124 30.5t76 84.5h154q-40 -129 -139 -196.5t-246 -67.5q-136 0 -209.5 67.5t-73.5 192.5v4zM991 94q-70 -59 -168 -91t-213 -32q-242 0 -375 145t-133 408q0 215 72.5 425t192.5 345q98 111 228 168.5t282 57.5 q81 0 159.5 -18t155.5 -54l-66 -328q-51 67 -120 102t-150 35q-71 0 -135.5 -29.5t-116.5 -86.5q-41 -47 -75.5 -110t-59.5 -140q-32 -98 -49 -189.5t-17 -169.5q0 -144 64 -222.5t180 -78.5q36 0 67.5 8.5t55.5 24.5l57 291h-206l49 248h460z" />
<glyph unicode="&#x11f;" d="M18 0zM446 1606h144v-13q0 -61 44 -97t120 -36q81 0 139.5 38.5t83.5 107.5h143q-29 -142 -128 -219.5t-251 -77.5q-148 0 -221.5 65.5t-73.5 198.5v33zM520 246q115 0 199 132.5t84 319.5q0 100 -41 155.5t-113 55.5q-114 0 -198 -132.5t-84 -317.5q0 -102 40 -157.5 t113 -55.5zM987 84q-53 -277 -191 -392.5t-411 -115.5q-98 0 -189 15t-178 44l54 265q75 -45 157.5 -67.5t169.5 -22.5q125 0 195.5 58.5t93.5 182.5l27 133q-54 -83 -131.5 -125.5t-173.5 -42.5q-157 0 -249.5 104.5t-92.5 282.5q0 139 42 280t115 249q70 103 170.5 161 t206.5 58q104 0 171.5 -55t88.5 -158l35 182h293z" />
<glyph unicode="&#x120;" d="M102 0zM753 1899h275l-48 -246h-275zM991 94q-70 -59 -168 -91t-213 -32q-242 0 -375 145t-133 408q0 215 72.5 425t192.5 345q98 111 228 168.5t282 57.5q81 0 159.5 -18t155.5 -54l-66 -328q-51 67 -120 102t-150 35q-71 0 -135.5 -29.5t-116.5 -86.5 q-41 -47 -75.5 -110t-59.5 -140q-32 -98 -49 -189.5t-17 -169.5q0 -144 64 -222.5t180 -78.5q36 0 67.5 8.5t55.5 24.5l57 291h-206l49 248h460z" />
<glyph unicode="&#x121;" d="M18 0zM643 1585h272l-47 -246h-274zM520 246q115 0 199 132.5t84 319.5q0 100 -41 155.5t-113 55.5q-114 0 -198 -132.5t-84 -317.5q0 -102 40 -157.5t113 -55.5zM987 84q-53 -277 -191 -392.5t-411 -115.5q-98 0 -189 15t-178 44l54 265q75 -45 157.5 -67.5t169.5 -22.5 q125 0 195.5 58.5t93.5 182.5l27 133q-54 -83 -131.5 -125.5t-173.5 -42.5q-157 0 -249.5 104.5t-92.5 282.5q0 139 42 280t115 249q70 103 170.5 161t206.5 58q104 0 171.5 -55t88.5 -158l35 182h293z" />
<glyph unicode="&#x122;" d="M102 0zM490 -187h282l-236 -306h-194zM991 94q-70 -59 -168 -91t-213 -32q-242 0 -375 145t-133 408q0 215 72.5 425t192.5 345q98 111 228 168.5t282 57.5q81 0 159.5 -18t155.5 -54l-66 -328q-51 67 -120 102t-150 35q-71 0 -135.5 -29.5t-116.5 -86.5 q-41 -47 -75.5 -110t-59.5 -140q-32 -98 -49 -189.5t-17 -169.5q0 -144 64 -222.5t180 -78.5q36 0 67.5 8.5t55.5 24.5l57 291h-206l49 248h460z" />
<glyph unicode="&#x123;" d="M18 0zM807 1273h-282l236 306h194zM520 246q115 0 199 132.5t84 319.5q0 100 -41 155.5t-113 55.5q-114 0 -198 -132.5t-84 -317.5q0 -102 40 -157.5t113 -55.5zM987 84q-53 -277 -191 -392.5t-411 -115.5q-98 0 -189 15t-178 44l54 265q75 -45 157.5 -67.5t169.5 -22.5 q125 0 195.5 58.5t93.5 182.5l27 133q-54 -83 -131.5 -125.5t-173.5 -42.5q-157 0 -249.5 104.5t-92.5 282.5q0 139 42 280t115 249q70 103 170.5 161t206.5 58q104 0 171.5 -55t88.5 -158l35 182h293z" />
<glyph unicode="&#x124;" d="M0 0zM664 1899h348l151 -264h-169l-164 161l-230 -161h-180zM283 1493h295l-111 -569h369l110 569h295l-291 -1493h-295l129 664h-368l-129 -664h-295z" />
<glyph unicode="&#x125;" d="M59 0zM377 1899h348l151 -264h-169l-164 161l-230 -161h-180zM1102 728l-141 -728h-293l133 682q5 26 7.5 52.5t2.5 53.5q0 58 -29 88.5t-84 30.5q-83 0 -141 -71.5t-84 -206.5l-121 -629h-293l303 1556h291l-116 -604q48 92 132 143.5t185 51.5q128 0 197 -69.5 t69 -196.5q0 -30 -4.5 -68t-13.5 -85z" />
<glyph unicode="&#x126;" d="M282 1493h295l-43 -224h369l43 224h294l-43 -224h135l-32 -164h-135l-215 -1105h-294l129 664h-369l-129 -664h-295l215 1105h-134l32 164h134zM502 1105l-35 -181h369l35 181h-369z" />
<glyph unicode="&#x127;" d="M1061 727l-141 -727h-291l132 682q9 44 11 64q2 27 2 54q0 58 -29 88.5t-84 30.5q-83 0 -141 -71.5t-84 -206.5l-124 -641h-291l247 1270h-160l32 164h160l23 122h291l-23 -122h277l-32 -164h-277l-62 -318q48 92 132 143.5t185 51.5q128 0 197 -69.5t69 -196.5 q0 -30 -4 -68q-4 -29 -15 -86z" />
<glyph unicode="&#x128;" d="M27 0zM778 1686l-49 37q-25 19 -41.5 25.5t-34.5 6.5q-35 0 -61.5 -32t-36.5 -88h-137q25 128 90.5 197t161.5 69q37 0 69.5 -12t67.5 -39l53 -41q15 -13 33.5 -20t34.5 -7q39 0 65 30.5t37 88.5h137q-26 -128 -91 -197t-159 -69q-37 0 -69 11t-70 40zM266 1233l51 260 h889l-51 -260h-297l-188 -973h297l-52 -260h-888l51 260h297l188 973h-297z" />
<glyph unicode="&#x129;" d="M14 0zM694 1364l-49 37q-1 1 -5 4q-42 33 -73 33q-34 0 -60 -34.5t-36 -94.5h-139q19 130 87 207t163 77q34 0 64.5 -12.5t76.5 -48.5l51 -39q19 -15 37 -23t33 -8q38 0 64 33.5t36 95.5h139q-23 -141 -85.5 -212.5t-163.5 -71.5q-35 0 -67.5 13t-72.5 44zM309 1120h580 l-174 -895h364l-43 -225h-1022l43 225h365l131 670h-287z" />
<glyph unicode="&#x12a;" d="M27 0zM266 1233l51 260h889l-51 -260h-297l-188 -973h297l-52 -260h-888l51 260h297l188 973h-297zM519 1870h631l-36 -188h-631z" />
<glyph unicode="&#x12b;" d="M14 0zM309 1120h580l-174 -895h364l-43 -225h-1022l43 225h365l131 670h-287zM459 1556h631l-37 -188h-631z" />
<glyph unicode="&#x12c;" d="M27 0zM508 1899h143q10 -60 51 -87.5t120 -27.5q71 0 124 30.5t76 84.5h154q-40 -129 -139 -196.5t-246 -67.5q-136 0 -209.5 67.5t-73.5 192.5v4zM266 1233l51 260h889l-51 -260h-297l-188 -973h297l-52 -260h-888l51 260h297l188 973h-297z" />
<glyph unicode="&#x12d;" d="M14 0zM446 1606h144v-13q0 -61 44 -97t120 -36q81 0 139.5 38.5t83.5 107.5h143q-29 -142 -128 -219.5t-251 -77.5q-148 0 -221.5 65.5t-73.5 198.5v33zM309 1120h580l-174 -895h364l-43 -225h-1022l43 225h365l131 670h-287z" />
<glyph unicode="&#x12e;" d="M67 0zM306 1233l51 260h889l-51 -260h-297l-188 -973h297l-52 -260h-888l51 260h297l188 973h-297zM517 0h141q-75 -80 -99 -117t-24 -63q0 -33 26 -53.5t68 -20.5q37 0 77 7.5t85 23.5l-31 -156q-49 -11 -95 -16.5t-89 -5.5q-99 0 -157 38.5t-58 104.5q0 60 39 124.5 t117 133.5z" />
<glyph unicode="&#x12f;" d="M20 0zM315 1120h580l-174 -895h364l-43 -225h-1022l43 225h365l131 670h-287zM708 1665h293l-67 -342h-293zM537 0h141q-75 -80 -99 -117t-24 -63q0 -33 26 -53.5t68 -20.5q37 0 77 7.5t85 23.5l-31 -156q-49 -11 -95 -16.5t-89 -5.5q-99 0 -157 38.5t-58 104.5 q0 60 39 124.5t117 133.5z" />
<glyph unicode="&#x130;" d="M27 0zM703 1899h275l-48 -246h-275zM266 1233l51 260h889l-51 -260h-297l-188 -973h297l-52 -260h-888l51 260h297l188 973h-297z" />
<glyph unicode="&#x131;" d="M309 1120h580l-174 -895h364l-43 -225h-1022l43 225h365l131 670h-287z" />
<glyph unicode="&#x132;" d="M635 74l62 344q44 -96 98 -143.5t120 -47.5q74 0 113.5 54t64.5 194l139 754h-231l49 260h419l-187 -1014q-31 -170 -62 -256t-77.5 -141t-106 -83t-132.5 -28q-71 0 -138 26.5t-131 80.5zM243 1233l47 260h569l-47 -260h-191l-177 -973h190l-48 -260h-569l48 260h190 l178 973h-190z" />
<glyph unicode="&#x133;" d="M1119 72q-35 -167 -62 -238.5t-64 -117.5q-47 -59 -108 -85t-154 -26h-224l48 225h168q73 0 114 53.5t68 188.5l176 852h-217l46 225h431zM1384 1352h-214l71 342h214zM298 1120h424l-185 -895h265l-46 -225h-746l46 225h267l139 670h-210zM621 1665h213l-71 -342h-214z " />
<glyph unicode="&#x134;" d="M0 0zM727 1899h348l151 -264h-169l-164 161l-230 -161h-180zM-20 78l65 344q78 -96 166.5 -143.5t191.5 -47.5q116 0 172.5 54t83.5 194l148 754h-361l52 260h655l-199 -1014q-33 -170 -74 -256t-108 -141t-158 -83t-204 -28q-111 0 -218 26.5t-212 80.5z" />
<glyph unicode="&#x135;" d="M0 0zM630 1638h243l183 -376h-176l-152 225l-240 -225h-190zM733 43q-33 -167 -63.5 -238.5t-77.5 -117.5q-59 -59 -140 -85t-208 -26h-307l45 225h231q100 0 151 53.5t76 188.5l166 852h-297l43 225h590z" />
<glyph unicode="&#x136;" d="M0 0zM421 -158h282l-236 -306h-194zM270 1493h295l-108 -557l563 557h348l-606 -604l338 -889h-303l-254 670l-172 -170l-95 -500h-294z" />
<glyph unicode="&#x137;" d="M82 0zM474 -158h282l-236 -306h-194zM383 1556h293l-152 -782l404 346h370l-505 -418l313 -702h-311l-222 524l-116 -96l-82 -428h-293z" />
<glyph unicode="&#x138;" d="M283 1120h293l-74 -381l426 381h355l-505 -418l311 -702h-324l-205 524l-119 -96l-83 -428h-293z" />
<glyph unicode="&#x139;" d="M80 0zM858 1900h281l-320 -264h-207zM80 0l291 1493h295l-240 -1233h631l-51 -260h-926z" />
<glyph unicode="&#x13a;" d="M233 0zM857 1901h281l-320 -264h-207zM625 365q-4 -20 -6.5 -36.5t-2.5 -21.5q0 -45 31 -63.5t109 -18.5h278l-45 -225h-297q-205 0 -290 56t-85 186q0 23 5 58t14 79l203 952h-306l43 225h598z" />
<glyph unicode="&#x13b;" d="M80 0zM423 -158h282l-236 -306h-194zM80 0l291 1493h295l-240 -1233h631l-51 -260h-926z" />
<glyph unicode="&#x13c;" d="M212 0zM360 -153h282l-236 -306h-194zM625 365q-4 -20 -6.5 -36.5t-2.5 -21.5q0 -45 31 -63.5t109 -18.5h278l-45 -225h-297q-205 0 -290 56t-85 186q0 23 5 58t14 79l203 952h-306l43 225h598z" />
<glyph unicode="&#x13d;" d="M80 0zM908 1492h321l-257 -376h-197zM80 0l291 1493h295l-240 -1233h631l-51 -260h-926z" />
<glyph unicode="&#x13e;" d="M233 0zM992 1556h321l-257 -376h-197zM625 365q-4 -20 -6.5 -36.5t-2.5 -21.5q0 -45 31 -63.5t109 -18.5h278l-45 -225h-297q-205 0 -290 56t-85 186q0 23 5 58t14 79l203 952h-306l43 225h598z" />
<glyph unicode="&#x13f;" d="M80 0zM902 1067h334l-72 -365h-333zM80 0l291 1493h295l-240 -1233h631l-51 -260h-926z" />
<glyph unicode="&#x140;" d="M233 0zM1054 1063h334l-72 -365h-333zM625 365q-4 -20 -6.5 -36.5t-2.5 -21.5q0 -45 31 -63.5t109 -18.5h278l-45 -225h-297q-205 0 -290 56t-85 186q0 23 5 58t14 79l203 952h-306l43 225h598z" />
<glyph unicode="&#x141;" d="M80 0l96 502l-131 -99l-115 154l299 211l142 725h295l-95 -481l250 174l115 -154l-418 -295l-92 -477h631l-51 -260h-926z" />
<glyph unicode="&#x142;" d="M639 364q-4 -19 -6 -35t-2 -22q0 -45 30.5 -63.5t108.5 -18.5h279l-45 -225h-297q-206 0 -290.5 56t-84.5 186q0 23 4.5 58t13.5 79l53 260l-276 -195l-90 146l418 284l98 457h-305l43 225h598l-94 -454l290 203l103 -138l-443 -301z" />
<glyph unicode="&#x143;" d="M0 0zM877 1900h281l-320 -264h-207zM266 1493h303l215 -1085l211 1085h260l-288 -1493h-293l-225 1085l-211 -1085h-263z" />
<glyph unicode="&#x144;" d="M59 0zM881 1647h321l-442 -376h-197zM1102 728l-141 -728h-293l133 682q5 26 7.5 52.5t2.5 53.5q0 58 -29 88.5t-84 30.5q-82 0 -140.5 -72t-84.5 -206l-121 -629h-293l217 1120h293l-32 -168q48 92 132 143.5t185 51.5q128 0 197 -69.5t69 -196.5q0 -30 -4.5 -68 t-13.5 -85z" />
<glyph unicode="&#x145;" d="M0 0zM351 -158h282l-236 -306h-194zM266 1493h303l215 -1085l211 1085h260l-288 -1493h-293l-225 1085l-211 -1085h-263z" />
<glyph unicode="&#x146;" d="M59 0zM390 -158h282l-236 -306h-194zM1102 728l-141 -728h-293l133 682q5 26 7.5 52.5t2.5 53.5q0 58 -29 88.5t-84 30.5q-82 0 -140.5 -72t-84.5 -206l-121 -629h-293l217 1120h293l-32 -168q48 92 132 143.5t185 51.5q128 0 197 -69.5t69 -196.5q0 -30 -4.5 -68 t-13.5 -85z" />
<glyph unicode="&#x147;" d="M0 0zM266 1493h303l215 -1085l211 1085h260l-288 -1493h-293l-225 1085l-211 -1085h-263zM1022 1635h-348l-137 264h170l149 -162l229 162h181z" />
<glyph unicode="&#x148;" d="M59 0zM1102 728l-141 -728h-293l133 682q5 26 7.5 52.5t2.5 53.5q0 58 -29 88.5t-84 30.5q-82 0 -140.5 -72t-84.5 -206l-121 -629h-293l217 1120h293l-32 -168q48 92 132 143.5t185 51.5q128 0 197 -69.5t69 -196.5q0 -30 -4.5 -68t-13.5 -85zM858 1262h-242l-182 376 h174l153 -227l238 227h190z" />
<glyph unicode="&#x149;" d="M0 0zM52 1556h313l-52 -271l-271 -382h-215l173 382zM1261 728l-141 -728h-293l133 682q5 26 7.5 52.5t2.5 53.5q0 58 -29 88.5t-84 30.5q-82 0 -140.5 -72t-84.5 -206l-121 -629h-293l217 1120h293l-32 -168q48 92 132 143.5t185 51.5q128 0 197 -69.5t69 -196.5 q0 -30 -4.5 -68t-13.5 -85z" />
<glyph unicode="&#x14a;" d="M922 1015q25 129 -11.5 184.5t-142.5 55.5q-109 0 -182 -75q-77 -78 -103 -208l-189 -972h-295l291 1493h295l-47 -240q62 128 165 198.5t229 70.5q189 0 257.5 -145.5t12.5 -434.5l-172 -884q-52 -266 -165 -376q-113 -108 -321 -108h-121l44 227h37q100 0 151.5 55 t77.5 188z" />
<glyph unicode="&#x14b;" d="M1142 727l-133 -684q-49 -252 -161 -359q-111 -108 -321 -108h-121l44 225h39q100 0 152 55q51 55 77 187l124 639q12 61 12 104q0 44 -12 70q-25 53 -103 53q-79 0 -138 -71t-84 -197l-124 -641h-291l217 1120h291l-32 -168q49 93 134 144t191 51q159 0 219 -105 q36 -63 36 -164q0 -67 -16 -151z" />
<glyph unicode="&#x14c;" d="M61 0zM868 1020q0 120 -40 180t-121 60q-59 0 -109 -35.5t-86 -104.5q-22 -39 -43.5 -103.5t-44.5 -156.5q-29 -115 -44 -214.5t-15 -174.5q0 -120 40 -179t121 -59q59 0 108.5 35.5t86.5 104.5q23 44 45.5 109.5t42.5 148.5q29 115 44 214.5t15 174.5zM61 465 q0 200 50 405t135 359q77 140 202 215.5t281 75.5q215 0 328.5 -126t113.5 -364q0 -202 -49 -408.5t-133 -357.5q-78 -141 -203.5 -217t-281.5 -76q-217 0 -330 126.5t-113 367.5zM519 1870h631l-36 -188h-631z" />
<glyph unicode="&#x14d;" d="M88 0zM850 684q0 109 -46.5 168t-131.5 59q-123 0 -206 -136t-83 -341q0 -106 48.5 -166.5t131.5 -60.5q121 0 204 136.5t83 340.5zM88 426q0 322 166.5 522.5t433.5 200.5q215 0 336 -120.5t121 -334.5q0 -323 -166.5 -523t-433.5 -200q-215 0 -336 120.5t-121 334.5z M459 1556h631l-37 -188h-631z" />
<glyph unicode="&#x14e;" d="M61 0zM508 1899h143q10 -60 51 -87.5t120 -27.5q71 0 124 30.5t76 84.5h154q-40 -129 -139 -196.5t-246 -67.5q-136 0 -209.5 67.5t-73.5 192.5v4zM868 1020q0 120 -40 180t-121 60q-59 0 -109 -35.5t-86 -104.5q-22 -39 -43.5 -103.5t-44.5 -156.5q-29 -115 -44 -214.5 t-15 -174.5q0 -120 40 -179t121 -59q59 0 108.5 35.5t86.5 104.5q23 44 45.5 109.5t42.5 148.5q29 115 44 214.5t15 174.5zM61 465q0 200 50 405t135 359q77 140 202 215.5t281 75.5q215 0 328.5 -126t113.5 -364q0 -202 -49 -408.5t-133 -357.5q-78 -141 -203.5 -217 t-281.5 -76q-217 0 -330 126.5t-113 367.5z" />
<glyph unicode="&#x14f;" d="M88 0zM446 1606h144v-13q0 -61 44 -97t120 -36q81 0 139.5 38.5t83.5 107.5h143q-29 -142 -128 -219.5t-251 -77.5q-148 0 -221.5 65.5t-73.5 198.5v33zM850 684q0 109 -46.5 168t-131.5 59q-123 0 -206 -136t-83 -341q0 -106 48.5 -166.5t131.5 -60.5q121 0 204 136.5 t83 340.5zM88 426q0 322 166.5 522.5t433.5 200.5q215 0 336 -120.5t121 -334.5q0 -323 -166.5 -523t-433.5 -200q-215 0 -336 120.5t-121 334.5z" />
<glyph unicode="&#x150;" d="M61 0zM1062 1899h284l-337 -264h-197zM687 1899h284l-337 -264h-197zM868 1020q0 120 -40 180t-121 60q-59 0 -109 -35.5t-86 -104.5q-22 -39 -43.5 -103.5t-44.5 -156.5q-29 -115 -44 -214.5t-15 -174.5q0 -120 40 -179t121 -59q59 0 108.5 35.5t86.5 104.5 q23 44 45.5 109.5t42.5 148.5q29 115 44 214.5t15 174.5zM61 465q0 200 50 405t135 359q77 140 202 215.5t281 75.5q215 0 328.5 -126t113.5 -364q0 -202 -49 -408.5t-133 -357.5q-78 -141 -203.5 -217t-281.5 -76q-217 0 -330 126.5t-113 367.5z" />
<glyph unicode="&#x151;" d="M88 0zM1008 1638h260l-346 -376h-172zM612 1638h246l-321 -376h-164zM850 684q0 109 -46.5 168t-131.5 59q-123 0 -206 -136t-83 -341q0 -106 48.5 -166.5t131.5 -60.5q121 0 204 136.5t83 340.5zM88 426q0 322 166.5 522.5t433.5 200.5q215 0 336 -120.5t121 -334.5 q0 -323 -166.5 -523t-433.5 -200q-215 0 -336 120.5t-121 334.5z" />
<glyph unicode="&#x152;" d="M1122 260l-51 -260h-577q-251 0 -357 90.5t-106 300.5q0 150 33.5 333t93.5 359q71 212 194.5 311t313.5 99h686l-52 -260h-331l-60 -311h301l-51 -260h-301l-78 -402h342zM664 1233q-87 0 -143.5 -47t-90.5 -148q-52 -152 -83.5 -321.5t-31.5 -282.5q0 -90 38.5 -132 t121.5 -42h51l189 973h-51z" />
<glyph unicode="&#x153;" d="M1022 690l10 66q4 20 6 39.5t2 38.5q0 52 -20 76t-64 24q-55 0 -90.5 -42.5t-54.5 -131.5l-14 -70h225zM1206 479h-450q-9 -53 -12 -79t-3 -44q0 -79 43 -125.5t115 -46.5q57 0 124.5 27.5t131.5 77.5l-47 -238q-57 -40 -126 -60t-151 -20q-94 0 -160.5 40.5t-86.5 109.5 q-50 -75 -121.5 -112.5t-163.5 -37.5q-155 0 -237 84t-82 242q0 140 32 298t86 286q56 129 155.5 197.5t231.5 68.5q83 0 143 -30.5t97 -90.5q48 59 117 90t151 31q130 0 199.5 -69.5t69.5 -200.5q0 -49 -8.5 -116t-24.5 -155zM319 184q52 0 86 32t60 106q9 22 22.5 81 t32.5 156q18 90 27.5 150t9.5 88q0 72 -25.5 104.5t-82.5 32.5q-52 0 -86 -32t-60 -105q-14 -42 -29.5 -104t-29.5 -134q-16 -81 -24.5 -142t-8.5 -95q0 -73 25.5 -105.5t82.5 -32.5z" />
<glyph unicode="&#x154;" d="M8 0zM859 1900h281l-320 -264h-207zM788 705q61 -9 95 -45t61 -123l164 -537h-301l-106 376q-3 10 -8 27q-53 187 -158 187h-117l-115 -590h-295l291 1493h410q232 0 344 -87.5t112 -268.5q0 -187 -98 -299.5t-279 -132.5zM547 1245l-80 -407h123q135 0 204.5 64 t69.5 188q0 78 -46 116.5t-138 38.5h-133z" />
<glyph unicode="&#x155;" d="M154 0zM1051 1647h321l-442 -376h-197zM1174 815q-48 43 -107 63.5t-133 20.5q-166 0 -255.5 -88t-129.5 -295l-100 -516h-295l219 1120h293l-35 -174q62 96 161 148.5t218 52.5q62 0 117.5 -15t99.5 -42z" />
<glyph unicode="&#x156;" d="M8 0zM438 -158h282l-236 -306h-194zM788 705q61 -9 95 -45t61 -123l164 -537h-301l-106 376q-3 10 -8 27q-53 187 -158 187h-117l-115 -590h-295l291 1493h410q232 0 344 -87.5t112 -268.5q0 -187 -98 -299.5t-279 -132.5zM547 1245l-80 -407h123q135 0 204.5 64 t69.5 188q0 78 -46 116.5t-138 38.5h-133z" />
<glyph unicode="&#x157;" d="M33 0zM181 -158h282l-236 -306h-194zM1174 815q-48 43 -107 63.5t-133 20.5q-166 0 -255.5 -88t-129.5 -295l-100 -516h-295l219 1120h293l-35 -174q62 96 161 148.5t218 52.5q62 0 117.5 -15t99.5 -42z" />
<glyph unicode="&#x158;" d="M8 0zM788 705q61 -9 95 -45t61 -123l164 -537h-301l-106 376q-3 10 -8 27q-53 187 -158 187h-117l-115 -590h-295l291 1493h410q232 0 344 -87.5t112 -268.5q0 -187 -98 -299.5t-279 -132.5zM547 1245l-80 -407h123q135 0 204.5 64t69.5 188q0 78 -46 116.5t-138 38.5 h-133zM950 1635h-348l-137 264h170l149 -162l229 162h181z" />
<glyph unicode="&#x159;" d="M154 0zM1174 815q-48 43 -107 63.5t-133 20.5q-166 0 -255.5 -88t-129.5 -295l-100 -516h-295l219 1120h293l-35 -174q62 96 161 148.5t218 52.5q62 0 117.5 -15t99.5 -42zM924 1262h-242l-182 376h174l153 -227l238 227h190z" />
<glyph unicode="&#x15a;" d="M4 0zM877 1900h281l-320 -264h-207zM506 664q-192 80 -254 155t-62 201q0 220 161.5 360t418.5 140q103 0 200.5 -20.5t188.5 -61.5l-57 -285q-68 62 -159 93.5t-202 31.5q-118 0 -192 -56.5t-74 -144.5q0 -84 184 -167l7 -3l116 -51q146 -65 213.5 -156.5t67.5 -224.5 q0 -230 -161 -367t-435 -137q-110 0 -224.5 26t-238.5 79l59 305q97 -81 203 -123.5t213 -42.5q133 0 209 58.5t76 158.5q0 62 -35 107.5t-104 74.5z" />
<glyph unicode="&#x15b;" d="M90 0zM881 1647h321l-442 -376h-197zM1094 1085l-50 -254q-75 53 -162 80t-180 27q-94 0 -149 -35t-55 -94q0 -45 36.5 -72.5t165.5 -64.5l74 -21q128 -37 187 -107t59 -184q0 -182 -137.5 -285.5t-382.5 -103.5q-104 0 -207.5 17.5t-202.5 52.5l51 256q86 -56 181 -85.5 t188 -29.5q110 0 171.5 37.5t61.5 104.5q0 46 -30.5 72t-163.5 65l-88 24q-122 36 -179 105.5t-57 181.5q0 168 136 271.5t362 103.5q93 0 186 -15.5t185 -46.5z" />
<glyph unicode="&#x15c;" d="M4 0zM666 1899h348l151 -264h-169l-164 161l-230 -161h-180zM506 664q-192 80 -254 155t-62 201q0 220 161.5 360t418.5 140q103 0 200.5 -20.5t188.5 -61.5l-57 -285q-68 62 -159 93.5t-202 31.5q-118 0 -192 -56.5t-74 -144.5q0 -84 184 -167l7 -3l116 -51 q146 -65 213.5 -156.5t67.5 -224.5q0 -230 -161 -367t-435 -137q-110 0 -224.5 26t-238.5 79l59 305q97 -81 203 -123.5t213 -42.5q133 0 209 58.5t76 158.5q0 62 -35 107.5t-104 74.5z" />
<glyph unicode="&#x15d;" d="M90 0zM668 1638h243l183 -376h-176l-152 225l-240 -225h-190zM1094 1085l-50 -254q-75 53 -162 80t-180 27q-94 0 -149 -35t-55 -94q0 -45 36.5 -72.5t165.5 -64.5l74 -21q128 -37 187 -107t59 -184q0 -182 -137.5 -285.5t-382.5 -103.5q-104 0 -207.5 17.5t-202.5 52.5 l51 256q86 -56 181 -85.5t188 -29.5q110 0 171.5 37.5t61.5 104.5q0 46 -30.5 72t-163.5 65l-88 24q-122 36 -179 105.5t-57 181.5q0 168 136 271.5t362 103.5q93 0 186 -15.5t185 -46.5z" />
<glyph unicode="&#x15e;" d="M4 0zM506 664q-192 80 -254 155t-62 201q0 220 161.5 360t418.5 140q103 0 200.5 -20.5t188.5 -61.5l-57 -285q-68 62 -159 93.5t-202 31.5q-118 0 -192 -56.5t-74 -144.5q0 -84 184 -167l7 -3l116 -51q146 -65 213.5 -156.5t67.5 -224.5q0 -230 -161 -367t-435 -137 q-110 0 -224.5 26t-238.5 79l59 305q97 -81 203 -123.5t213 -42.5q133 0 209 58.5t76 158.5q0 62 -35 107.5t-104 74.5zM564 0q36 -48 54 -94t18 -90q0 -99 -76.5 -158t-206.5 -59q-52 0 -103 6.5t-99 19.5l28 156q43 -17 84 -26t76 -9q68 0 104.5 27t36.5 77q0 26 -13 60.5 t-44 89.5h141z" />
<glyph unicode="&#x15f;" d="M90 0zM1094 1085l-50 -254q-75 53 -162 80t-180 27q-94 0 -149 -35t-55 -94q0 -45 36.5 -72.5t165.5 -64.5l74 -21q128 -37 187 -107t59 -184q0 -182 -137.5 -285.5t-382.5 -103.5q-104 0 -207.5 17.5t-202.5 52.5l51 256q86 -56 181 -85.5t188 -29.5q110 0 171.5 37.5 t61.5 104.5q0 46 -30.5 72t-163.5 65l-88 24q-122 36 -179 105.5t-57 181.5q0 168 136 271.5t362 103.5q93 0 186 -15.5t185 -46.5zM564 0q36 -48 54 -94t18 -90q0 -99 -76.5 -158t-206.5 -59q-52 0 -103 6.5t-99 19.5l28 156q43 -17 84 -26t76 -9q68 0 104.5 27t36.5 77 q0 26 -13 60.5t-44 89.5h141z" />
<glyph unicode="&#x160;" d="M4 0zM506 664q-192 80 -254 155t-62 201q0 220 161.5 360t418.5 140q103 0 200.5 -20.5t188.5 -61.5l-57 -285q-68 62 -159 93.5t-202 31.5q-118 0 -192 -56.5t-74 -144.5q0 -84 184 -167l7 -3l116 -51q146 -65 213.5 -156.5t67.5 -224.5q0 -230 -161 -367t-435 -137 q-110 0 -224.5 26t-238.5 79l59 305q97 -81 203 -123.5t213 -42.5q133 0 209 58.5t76 158.5q0 62 -35 107.5t-104 74.5zM942 1635h-348l-137 264h170l149 -162l229 162h181z" />
<glyph unicode="&#x161;" d="M90 0zM1094 1085l-50 -254q-75 53 -162 80t-180 27q-94 0 -149 -35t-55 -94q0 -45 36.5 -72.5t165.5 -64.5l74 -21q128 -37 187 -107t59 -184q0 -182 -137.5 -285.5t-382.5 -103.5q-104 0 -207.5 17.5t-202.5 52.5l51 256q86 -56 181 -85.5t188 -29.5q110 0 171.5 37.5 t61.5 104.5q0 46 -30.5 72t-163.5 65l-88 24q-122 36 -179 105.5t-57 181.5q0 168 136 271.5t362 103.5q93 0 186 -15.5t185 -46.5zM838 1262h-242l-182 376h174l153 -227l238 227h190z" />
<glyph unicode="&#x162;" d="M151 0zM618 0h-294l239 1235h-383l49 258h1059l-51 -258h-379zM564 0q36 -48 54 -94t18 -90q0 -99 -76.5 -158t-206.5 -59q-52 0 -103 6.5t-99 19.5l28 156q43 -17 84 -26t76 -9q68 0 104.5 27t36.5 77q0 26 -13 60.5t-44 89.5h141z" />
<glyph unicode="&#x163;" d="M164 0zM848 1438l-62 -318h383l-43 -225h-383l-104 -530q-4 -20 -6 -35t-2 -23q0 -45 30 -63.5t109 -18.5h225l-43 -225h-245q-204 0 -289.5 55.5t-85.5 184.5q0 21 4.5 55t13.5 84l101 516h-287l43 225h287l61 318h293zM745 0q36 -48 54 -94t18 -90q0 -99 -76.5 -158 t-206.5 -59q-52 0 -103 6.5t-99 19.5l28 156q43 -17 84 -26t76 -9q68 0 104.5 27t36.5 77q0 26 -13 60.5t-44 89.5h141z" />
<glyph unicode="&#x164;" d="M180 0zM618 0h-294l239 1235h-383l49 258h1059l-51 -258h-379zM974 1635h-348l-137 264h170l149 -162l229 162h181z" />
<glyph unicode="&#x165;" d="M164 0zM848 1438l-62 -318h383l-43 -225h-383l-104 -530q-4 -20 -6 -35t-2 -23q0 -45 30 -63.5t109 -18.5h225l-43 -225h-245q-204 0 -289.5 55.5t-85.5 184.5q0 21 4.5 55t13.5 84l101 516h-287l43 225h287l61 318h293zM1073 1666h321l-257 -376h-197z" />
<glyph unicode="&#x166;" d="M619 0h-295l104 538h-247l38 192h247l98 505h-379l50 258h1053l-50 -258h-379l-98 -505h247l-38 -192h-247z" />
<glyph unicode="&#x167;" d="M830 1438l-62 -318h383l-44 -225h-383l-27 -142h184l-38 -192h-184l-38 -196q-5 -25 -5 -45q0 -41 20 -62q31 -33 116 -33h225l-44 -225h-246q-252 0 -325 80q-47 51 -47 158q0 61 16 141l35 182h-178l38 192h178l27 142h-286l44 225h286l62 318h293z" />
<glyph unicode="&#x168;" d="M45 0zM788 1686l-49 37q-25 19 -41.5 25.5t-34.5 6.5q-35 0 -61.5 -32t-36.5 -88h-137q25 128 90.5 197t161.5 69q37 0 69.5 -12t67.5 -39l53 -41q15 -13 33.5 -20t34.5 -7q39 0 65 30.5t37 88.5h137q-26 -128 -91 -197t-159 -69q-37 0 -69 11t-70 40zM68 551l184 942 h295l-199 -1016q0 -2 -1 -6q-7 -47 -7 -68q0 -82 46 -127t130 -45q108 0 172.5 61t89.5 185l199 1016h295l-185 -942q-35 -180 -75 -272.5t-103 -155.5q-76 -74 -180 -113t-229 -39q-219 0 -337 99t-118 282q0 42 5.5 92t17.5 107z" />
<glyph unicode="&#x169;" d="M106 0zM739 1364l-49 37q-1 1 -5 4q-42 33 -73 33q-34 0 -60 -34.5t-36 -94.5h-139q19 130 87 207t163 77q34 0 64.5 -12.5t76.5 -48.5l51 -39q19 -15 37 -23t33 -8q38 0 64 33.5t36 95.5h139q-23 -141 -85.5 -212.5t-163.5 -71.5q-35 0 -67.5 13t-72.5 44zM123 391 l143 729h291l-131 -684q-5 -27 -7.5 -53t-2.5 -51q0 -58 29 -89.5t83 -31.5q83 0 139.5 70t84.5 208l122 631h291l-217 -1120h-293l33 166q-44 -90 -129 -142.5t-186 -52.5q-129 0 -198 70.5t-69 202.5q0 28 4 64t13 83z" />
<glyph unicode="&#x16a;" d="M45 0zM68 551l184 942h295l-199 -1016q0 -2 -1 -6q-7 -47 -7 -68q0 -82 46 -127t130 -45q108 0 172.5 61t89.5 185l199 1016h295l-185 -942q-35 -180 -75 -272.5t-103 -155.5q-76 -74 -180 -113t-229 -39q-219 0 -337 99t-118 282q0 42 5.5 92t17.5 107zM519 1870h631 l-36 -188h-631z" />
<glyph unicode="&#x16b;" d="M106 0zM123 391l143 729h291l-131 -684q-5 -27 -7.5 -53t-2.5 -51q0 -58 29 -89.5t83 -31.5q83 0 139.5 70t84.5 208l122 631h291l-217 -1120h-293l33 166q-44 -90 -129 -142.5t-186 -52.5q-129 0 -198 70.5t-69 202.5q0 28 4 64t13 83zM459 1556h631l-37 -188h-631z" />
<glyph unicode="&#x16c;" d="M45 0zM508 1899h143q10 -60 51 -87.5t120 -27.5q71 0 124 30.5t76 84.5h154q-40 -129 -139 -196.5t-246 -67.5q-136 0 -209.5 67.5t-73.5 192.5v4zM68 551l184 942h295l-199 -1016q0 -2 -1 -6q-7 -47 -7 -68q0 -82 46 -127t130 -45q108 0 172.5 61t89.5 185l199 1016h295 l-185 -942q-35 -180 -75 -272.5t-103 -155.5q-76 -74 -180 -113t-229 -39q-219 0 -337 99t-118 282q0 42 5.5 92t17.5 107z" />
<glyph unicode="&#x16d;" d="M106 0zM446 1606h144v-13q0 -61 44 -97t120 -36q81 0 139.5 38.5t83.5 107.5h143q-29 -142 -128 -219.5t-251 -77.5q-148 0 -221.5 65.5t-73.5 198.5v33zM123 391l143 729h291l-131 -684q-5 -27 -7.5 -53t-2.5 -51q0 -58 29 -89.5t83 -31.5q83 0 139.5 70t84.5 208 l122 631h291l-217 -1120h-293l33 166q-44 -90 -129 -142.5t-186 -52.5q-129 0 -198 70.5t-69 202.5q0 28 4 64t13 83z" />
<glyph unicode="&#x16e;" d="M45 0zM68 551l184 942h295l-199 -1016q0 -2 -1 -6q-7 -47 -7 -68q0 -82 46 -127t130 -45q108 0 172.5 61t89.5 185l199 1016h295l-185 -942q-35 -180 -75 -272.5t-103 -155.5q-76 -74 -180 -113t-229 -39q-219 0 -337 99t-118 282q0 42 5.5 92t17.5 107zM519 1872 q0 118 83 201.5t202 83.5q118 0 201 -83.5t83 -201.5t-83 -201.5t-201 -83.5q-119 0 -202 83.5t-83 201.5zM672 1872q0 -55 38.5 -93t93.5 -38q54 0 92.5 38.5t38.5 92.5t-39 92.5t-92 38.5q-55 0 -93.5 -38.5t-38.5 -92.5z" />
<glyph unicode="&#x16f;" d="M106 0zM123 391l143 729h291l-131 -684q-5 -27 -7.5 -53t-2.5 -51q0 -58 29 -89.5t83 -31.5q83 0 139.5 70t84.5 208l122 631h291l-217 -1120h-293l33 166q-44 -90 -129 -142.5t-186 -52.5q-129 0 -198 70.5t-69 202.5q0 28 4 64t13 83zM453 1539q0 118 83 201.5 t202 83.5q118 0 201 -83.5t83 -201.5t-83 -201.5t-201 -83.5q-119 0 -202 83.5t-83 201.5zM606 1539q0 -55 38.5 -93t93.5 -38q54 0 92.5 38.5t38.5 92.5t-39 92.5t-92 38.5q-55 0 -93.5 -38.5t-38.5 -92.5z" />
<glyph unicode="&#x170;" d="M45 0zM1062 1899h284l-337 -264h-197zM687 1899h284l-337 -264h-197zM68 551l184 942h295l-199 -1016q0 -2 -1 -6q-7 -47 -7 -68q0 -82 46 -127t130 -45q108 0 172.5 61t89.5 185l199 1016h295l-185 -942q-35 -180 -75 -272.5t-103 -155.5q-76 -74 -180 -113t-229 -39 q-219 0 -337 99t-118 282q0 42 5.5 92t17.5 107z" />
<glyph unicode="&#x171;" d="M106 0zM1008 1638h260l-346 -376h-172zM612 1638h246l-321 -376h-164zM123 391l143 729h291l-131 -684q-5 -27 -7.5 -53t-2.5 -51q0 -58 29 -89.5t83 -31.5q83 0 139.5 70t84.5 208l122 631h291l-217 -1120h-293l33 166q-44 -90 -129 -142.5t-186 -52.5q-129 0 -198 70.5 t-69 202.5q0 28 4 64t13 83z" />
<glyph unicode="&#x172;" d="M45 0zM68 551l184 942h295l-199 -1016q0 -2 -1 -6q-7 -47 -7 -68q0 -82 46 -127t130 -45q108 0 172.5 61t89.5 185l199 1016h295l-185 -942q-35 -180 -75 -272.5t-103 -155.5q-76 -74 -180 -113t-229 -39q-219 0 -337 99t-118 282q0 42 5.5 92t17.5 107zM358 -16h141 q-75 -80 -99 -117t-24 -63q0 -33 26 -53.5t68 -20.5q37 0 77 7.5t85 23.5l-31 -156q-49 -11 -95 -16.5t-89 -5.5q-99 0 -157 38.5t-58 104.5q0 60 39 124.5t117 133.5z" />
<glyph unicode="&#x173;" d="M106 0zM123 391l143 729h291l-131 -684q-5 -27 -7.5 -53t-2.5 -51q0 -58 29 -89.5t83 -31.5q83 0 139.5 70t84.5 208l122 631h291l-217 -1120h-293l33 166q-44 -90 -129 -142.5t-186 -52.5q-129 0 -198 70.5t-69 202.5q0 28 4 64t13 83zM805 0h141q-75 -80 -99 -117 t-24 -63q0 -33 26 -53.5t68 -20.5q37 0 77 7.5t85 23.5l-31 -156q-49 -11 -95 -16.5t-89 -5.5q-99 0 -157 38.5t-58 104.5q0 60 39 124.5t117 133.5z" />
<glyph unicode="&#x174;" d="M41 0zM659 1906h348l151 -264h-169l-164 161l-230 -161h-180zM143 1493h254l-108 -1096l272 709h238l12 -709l297 1096h262l-461 -1493h-270l-12 784l-318 -784h-268z" />
<glyph unicode="&#x175;" d="M90 0zM693 1647h243l183 -376h-176l-152 225l-240 -225h-190zM96 1120h240l-33 -858l227 565h230l22 -565l291 858h252l-418 -1120h-280l-19 590l-239 -590h-279z" />
<glyph unicode="&#x176;" d="M145 0zM646 1906h348l151 -264h-169l-164 161l-230 -161h-180zM145 1493h293l187 -649l411 649h322l-633 -905l-115 -588h-293l115 588z" />
<glyph unicode="&#x177;" d="M0 0zM681 1647h243l183 -376h-176l-152 225l-240 -225h-190zM551 -121q-112 -198 -193.5 -250.5t-207.5 -52.5h-240l45 223h117q87 0 137 30t110 142l39 74l-217 1075h297l127 -700l383 700h309z" />
<glyph unicode="&#x178;" d="M145 0zM145 1493h293l187 -649l411 649h322l-633 -905l-115 -588h-293l115 588zM895 1899h235l-47 -246h-237zM500 1899h235l-49 -246h-236z" />
<glyph unicode="&#x179;" d="M0 0zM877 1900h281l-320 -264h-207zM281 1493h1009l-49 -244l-876 -989h700l-51 -260h-1047l47 244l858 989h-643z" />
<glyph unicode="&#x17a;" d="M49 0zM881 1647h321l-442 -376h-197zM293 1120h895l-45 -229l-707 -672h576l-43 -219h-920l45 229l707 672h-551z" />
<glyph unicode="&#x17b;" d="M0 0zM753 1899h275l-48 -246h-275zM281 1493h1009l-49 -244l-876 -989h700l-51 -260h-1047l47 244l858 989h-643z" />
<glyph unicode="&#x17c;" d="M49 0zM643 1585h272l-47 -246h-274zM293 1120h895l-45 -229l-707 -672h576l-43 -219h-920l45 229l707 672h-551z" />
<glyph unicode="&#x17d;" d="M0 0zM281 1493h1009l-49 -244l-876 -989h700l-51 -260h-1047l47 244l858 989h-643zM942 1635h-348l-137 264h170l149 -162l229 162h181z" />
<glyph unicode="&#x17e;" d="M49 0zM293 1120h895l-45 -229l-707 -672h576l-43 -219h-920l45 229l707 672h-551zM838 1262h-242l-182 376h174l153 -227l238 227h190z" />
<glyph unicode="&#x17f;" d="M623 0h-293l174 895h-273l43 225h273l16 78q42 211 134 284.5t331 73.5h240l-43 -225h-230q-65 0 -94 -27.5t-45 -107.5z" />
<glyph unicode="&#x180;" d="M381 207l-41 -207h-293l247 1270h-186l32 164h186l24 122h293l-24 -122h249l-32 -164h-249l-63 -318q63 96 146 145.5t178 49.5q146 0 231.5 -109.5t85.5 -298.5q0 -131 -30.5 -260.5t-85.5 -234.5q-69 -129 -174 -201t-222 -72q-111 0 -183 62.5t-89 173.5zM600 209 q111 0 190.5 141.5t79.5 343.5q0 101 -41.5 157t-115.5 56q-114 0 -196.5 -138.5t-82.5 -336.5q0 -104 45 -163.5t121 -59.5z" />
<glyph unicode="&#x181;" d="M486 1495h330q249 0 356.5 -94.5t70.5 -282.5q-28 -144 -117.5 -225t-235.5 -94q168 -17 235.5 -115t32.5 -274q-42 -216 -190.5 -313t-441.5 -97h-330l236 1216q-19 0 -20 -1q-44 -1 -64 -20q-38 -37 -50 -84q-3 -14 -9 -47h-255l14 77q31 155 91 220q23 24 61 53 q106 76 229 76q104 0 57 5zM726 1260l-68 -347h45q112 0 167.5 40t73 132t-22.5 133.5t-150 41.5h-45zM612 678l-85 -442h45q141 0 206.5 48t88.5 167q24 121 -25 174t-185 53h-45z" />
<glyph unicode="&#x182;" d="M16 0zM359 248h121q145 0 213 49t91.5 170t-25.5 170t-194 49h-121zM306 1493h930l-50 -260h-635l-58 -299h110q309 0 423 -110t66 -357t-205 -357t-466 -110h-405z" />
<glyph unicode="&#x183;" d="M585 -29q-205 0 -259 195l-32 -166h-292l302 1556h799l-41 -209h-507l-75 -386q145 186 324 186q201 0 279 -156q75 -150 20 -432q-54 -280 -190 -434t-328 -154zM809.5 557q31.5 162 -4.5 254t-131 92t-168 -92t-104.5 -254t6 -254t132.5 -92t166.5 92t103 254z" />
<glyph unicode="&#x184;" d="M403 248h121q145 0 213 49t91.5 170t-25.5 170t-194 49h-121zM60 0l181 934l-136 134l540 425l-109 -559h110q309 0 423.5 -110t66.5 -357t-205 -357t-466 -110h-405z" />
<glyph unicode="&#x185;" d="M854.5 557q31.5 162 -4.5 254t-131 92t-168 -92t-104.5 -254t6 -254t132.5 -92t166.5 92t103 254zM525 961q72 93 153 139.5t171 46.5q199 0 276.5 -152t22.5 -436q-54 -280 -190 -434t-328 -154q-101 0 -166.5 49t-92.5 146l-32 -166h-292l181 934l-124 134l537 488z " />
<glyph unicode="&#x186;" d="M15 43l64 328q63 -70 128 -102.5t141 -32.5q162 0 269.5 128.5t156.5 380.5q49 253 -8.5 381.5t-219.5 128.5q-76 0 -154 -32.5t-167 -102.5l64 328q75 36 156.5 54t166.5 18q302 0 422 -199t47 -576q-73 -376 -271 -575t-500 -199q-85 0 -158.5 18t-136.5 54z" />
<glyph unicode="&#x187;" d="M675 236q148 0 321 135l-64 -328q-154 -72 -323 -72q-302 0 -422 199t-47 575q106 547 463 711q139 64 308 64q47 0 92 -6q112 129 341 129h96l-43 -225h-15q-93 0 -152 -55q-50 -46 -77 -187l-11 -56q-120 135 -269 135q-162 0 -269.5 -128.5t-156.5 -381.5 q-93 -478 191 -507q18 -2 37 -2z" />
<glyph unicode="&#x188;" d="M655 211q168 0 321 115l-52 -269q-165 -86 -359 -86q-259 0 -374.5 156t-62.5 432q54 277 231.5 433.5t436.5 156.5q27 0 53 -2q58 215 146 301q111 108 321 108h121l-44 -225h-39q-95 0 -151 -55q-44 -43 -78 -187l-6 -26l-52 -268q-110 114 -277 114q-170 0 -270 -127 q-68 -85 -95 -223q-52 -268 122 -331q47 -17 108 -17z" />
<glyph unicode="&#x189;" d="M0 0zM283 1493h315q285 0 426 -123t141 -371q0 -87 -13.5 -185.5t-41.5 -211.5q-37 -151 -89 -256t-124 -174q-94 -92 -225 -132t-350 -40h-330l129 664h-137l47 237h135zM524 1227l-63 -326h211l-45 -237h-211l-78 -398h96q112 0 189 44t120 132q52 106 84.5 252.5 t32.5 272.5q0 132 -62.5 196t-191.5 64h-82z" />
<glyph unicode="&#x18a;" d="M371 1206q-29 0 -47 -38q-25 -52 -31 -80l-4 -24h-255l15 77q29 150 91 220q95 109 235 128q26 4 52 4h236q366 0 493 -174.5t50 -570.5q-77 -397 -272 -572.5t-561 -175.5h-236zM670 1227l-186 -961q174 0 269 109.5t146 372.5q51 261 -2 370t-227 109z" />
<glyph unicode="&#x18b;" d="M861 678h-196q-136 0 -205.5 -53t-93.5 -174q-23 -119 24.5 -167t188.5 -48h196zM352 1494l952 -1l-290 -1493h-481q-293 0 -404 97t-70 313q2 10 4 19q37 174 124 255q8 7 30 29l52 50q169 147 441 150h196l68 347h-667z" />
<glyph unicode="&#x18c;" d="M400 -29q-192 0 -268 154t-22 434q55 282 188 432q139 156 341 156q179 0 250 -186l75 386h-507l41 209h799l-302 -1556h-292l32 166q-131 -195 -335 -195zM402.5 557q-31.5 -162 5 -254t131.5 -92t167.5 92t104 254t-5.5 254t-132 92t-167 -92t-103.5 -254z" />
<glyph unicode="&#x18d;" d="M848 53q132 -63 103 -214q-26 -135 -167 -213q-141 -77 -364 -77q-99 0 -181 12l-10 2q-30 4 -145 34l42 215q11 -4 24 -8q89 -31 126 -38q87 -15 168 -15q104 0 169 34l24 15q40 25 49 69q20 102 -143 102q-238 0 -348 158.5t-57 429.5t224 429.5t409 158.5 q237 0 347 -158.5t57 -429.5q-51 -263 -224 -429q-77 -75 -103 -77zM589 209q105 0 183 92.5t110 257.5t-10 257.5t-147 92.5q-106 0 -184 -92.5t-110 -257.5t10 -257.5t148 -92.5z" />
<glyph unicode="&#x18e;" d="M23 0l50 260h635l76 391h-575l51 260h575l63 322h-635l50 260h930l-290 -1493h-930z" />
<glyph unicode="&#x18f;" d="M851 840q30 196 7 294q-29 121 -157 121q-76 0 -154 -32.5t-167 -102.5l64 328q77 36 157.5 54t165.5 18q260 0 354 -196t20 -579q-74 -382 -245 -578t-431 -196q-259 0 -353 196t-20 578l18 95h741zM373 580q-16 -144 2 -224q29 -120 142 -120q114 0 189 120 q50 80 90 224h-423z" />
<glyph unicode="&#x190;" d="M661 668q-128 0 -210 -62.5t-105 -177.5q-18 -94 41 -149.5t179 -55.5t234 24.5t217 71.5l-53 -274q-107 -36 -220.5 -55t-226.5 -19q-265 0 -381.5 114t-74.5 331q31 162 134.5 261.5t269.5 127.5q-136 26 -196 110.5t-34 217.5q36 181 188 284t388 103 q92 0 188.5 -16.5t193.5 -47.5l-52 -268q-95 40 -187 61t-176 21q-110 0 -179.5 -46.5t-85.5 -129.5q-16 -79 36 -122.5t162 -43.5h158l-50 -260h-158z" />
<glyph unicode="&#x191;" d="M1261 1233h-540l-63 -322h483l-51 -260h-482l-94 -483l-24 -125l-9 -43q-50 -216 -152 -316q-111 -108 -321 -108h-86l44 225q104 0 155 55q47 50 74 187l24 125l258 1325h834z" />
<glyph unicode="&#x192;" d="M925 1218l-19 -98h344l-44 -225h-344l-174 -895q-48 -217 -151 -316q-113 -108 -322 -108h-316l43 225h234q99 0 150 55q52 56 77 187l166 852h-272l44 225h272l15 78q39 202 138 280t327 78h241l-43 -225h-229q-111 1 -137 -113z" />
<glyph unicode="&#x193;" d="M547 236q93 0 142 34l55 285h-202l48 248h460l-133 -684q-201 -148 -436 -148q-290 0 -408.5 201.5t-46.5 572.5q105 542 458 708q142 67 313 67q60 0 118 -12q12 15 25 27q110 108 320 108h98l-44 -225h-15q-93 0 -152 -55q-50 -46 -77 -187l-16 -82l-3 4 q-93 157 -285 157q-315 0 -421 -454q-6 -27 -12 -56q-80 -412 116 -491q43 -18 98 -18z" />
<glyph unicode="&#x194;" d="M598 510zM463 762l-257 731h322l168 -481l354 481h323l-540 -731q134 -382 59 -776q-51 -271 -455.5 -276t-352.5 276q66 349 379 776zM598 510q-195 -267 -217 -384q-23 -126 113 -126q139 0 164 130q29 149 -60 380z" />
<glyph unicode="&#x195;" d="M1181 569q-46 -253 -180 -411q-128 -154 -289 -158l-89 -2q-137 -3 -181 118q-47 125 -6 344l51 267q13 86 -2 128q-17 52 -80 52q-64 0 -114 -71q-49 -70 -73 -195l-125 -641h-232l302 1556h232l-117 -604q43 93 113 144t155 51q127 0 172 -105q44 -106 3 -315l-51 -267 q-31 -171 -28 -181q18 -52 48 -48l13 2q91 13 150 97q67 94 94 230l73 376h232z" />
<glyph unicode="&#x196;" d="M415 462l149 771h-297l50 260h889l-50 -260h-297l-144 -738q-27 -142 2 -188q29 -45 131 -46l185 -1l-50 -260h-234q-205 0 -291 118q-87 120 -43 344z" />
<glyph unicode="&#x197;" d="M267 1233l50 260h889l-50 -260h-297l-98 -503h247l-38 -192h-247l-54 -278h297l-50 -260h-889l50 260h297l54 278h-247l38 192h247l98 503h-297z" />
<glyph unicode="&#x198;" d="M825 1060l-155 -155l312 -905h-328l-223 672l-163 -166l-99 -506h-295l291 1493h295l-115 -590l320 327q216 221 355 249q135 26 255 -87l54 -51l-175 -176q-64 61 -135 45q-58 -13 -194 -150z" />
<glyph unicode="&#x199;" d="M234 1089q49 250 161 359q111 108 321 108h121l-44 -225h-39q-98 0 -151 -55q-51 -53 -78 -187h2l-68 -350l426 381h355l-505 -418l312 -702h-324l-205 524l-119 -96l-83 -428h-293l187 964z" />
<glyph unicode="&#x19a;" d="M685 753h184l-37 -192h-184h-10l-18 -94q-26 -132 4.5 -187t128.5 -55h234l-44 -225h-316q-209 0 -279 108t-21 359l18 94h-168l37 192h168l112 578h-297l44 225h590l-156 -803h10z" />
<glyph unicode="&#x19b;" d="M912 1518l72 -160l-262 -163l280 -1195h-297l-139 596l-340 -596h-297l550 965l-16 69l-239 -149l-69 162l266 166l-80 343h297l43 -182z" />
<glyph unicode="&#x19c;" d="M426 112q-47 -71 -104.5 -105t-131.5 -34q-145 0 -181 100t26 416l195 1004h240l-213 -1092q-24 -125 -13 -167t61 -42t78.5 43t51.5 166l213 1092h237l-213 -1092q-23 -123 -11.5 -166t61.5 -43t77 42t51 167l213 1092h240l-290 -1493h-213l22 116 q-38 -66 -100.5 -104.5t-130.5 -38.5t-116 40.5t-49 98.5z" />
<glyph unicode="&#x19d;" d="M365 0q-64 -284 -229 -374q-95 -52 -244 -52h-48l44 225h60q58 0 116 75q23 29 50 167l282 1452h317l205 -1085l211 1085h260l-290 -1493h-315l-207 1085l-211 -1085h-1z" />
<glyph unicode="&#x19e;" d="M1142 727l-224 -1153h-291l215 1108q24 122 0 174.5t-102 52.5q-79 0 -138.5 -71t-83.5 -197l-125 -641h-291l218 1120h291l-33 -168q49 93 134 144t191 51q159 0 219.5 -105.5t19.5 -314.5z" />
<glyph unicode="&#x19f;" d="M465 -29q-368 0 -402 391q-14 160 29 383q122 628 494 748q84 27 181 27q260 0 354 -196t20 -579q-125 -640 -510 -752q-78 -22 -166 -22zM860 911q20 197 -22 276q-38 68 -123 68q-148 0 -234 -214q-21 -50 -44 -130h423zM814 651h-431q-30 -200 -8 -295 q29 -120 142 -120q114 0 189 120q59 93 108 295z" />
<glyph unicode="&#x1a0;" d="M0 0zM780 1020q0 120 -40 180t-121 60q-59 0 -109 -35.5t-86 -104.5q-22 -39 -43.5 -103.5t-44.5 -156.5q-29 -115 -44 -214.5t-15 -174.5q0 -120 40 -179t121 -59q59 0 108.5 35.5t86.5 104.5q23 44 45.5 109.5t42.5 148.5q29 115 44 214.5t15 174.5zM-27 465 q0 200 50 405t135 359q77 140 202 215.5t281 75.5q215 0 328.5 -126t113.5 -364q0 -202 -49 -408.5t-133 -357.5q-78 -141 -203.5 -217t-281.5 -76q-217 0 -330 126.5t-113 367.5zM911 1238l27 141q58 -50 90.5 -69t58.5 -19q39 0 69.5 29.5t39.5 78.5q8 39 8 77.5t-8 78.5 h156q0 -55 -3.5 -102t-11.5 -88q-23 -115 -81 -176.5t-144 -61.5q-53 0 -102 27t-99 84z" />
<glyph unicode="&#x1a1;" d="M0 0zM761 684q0 109 -46.5 168t-131.5 59q-123 0 -206 -136t-83 -341q0 -106 48.5 -166.5t131.5 -60.5q121 0 204 136.5t83 340.5zM-1 426q0 322 166.5 522.5t433.5 200.5q215 0 336 -120.5t121 -334.5q0 -323 -166.5 -523t-433.5 -200q-215 0 -336 120.5t-121 334.5z M803 850l27 141q58 -50 90.5 -69t58.5 -19q39 0 69.5 29.5t39.5 78.5q8 39 8 77.5t-8 78.5h156q0 -55 -3.5 -102t-11.5 -88q-23 -115 -81 -176.5t-144 -61.5q-53 0 -102 27t-99 84z" />
<glyph unicode="&#x1a2;" d="M351 -29q-332 0 -355 391q-10 160 34 383q124 639 471 752q71 23 151 23q208 0 295 -155l118 128h284l-291 -1493h-234l221 1136l-146 -160l-157 -809q-157 -196 -391 -196zM306 745q-68 -351 -4 -456q33 -53 100 -53q103 0 173 120l151 778q-23 121 -126 121 q-141 0 -226 -244q-37 -104 -68 -266z" />
<glyph unicode="&#x1a3;" d="M56.5 559q52.5 271 224 429.5t408.5 158.5q155 0 258 -124l151 101h283l-301 -1550h-234l239 1230l-169 -114l-109 -560q-171 -159 -347 -159q-237 0 -346.5 158.5t-57 429.5zM643 909q-105 0 -183 -92.5t-110 -257.5t10 -257.5t147 -92.5q43 0 121 93l100 514 q-42 93 -85 93z" />
<glyph unicode="&#x1a4;" d="M722 1245l-85 -438h19q145 0 213 49t91.5 170t-25.5 170t-194 49h-19zM419 1206q-29 0 -47 -38q-25 -52 -31 -80l-4 -24h-255l15 77q29 150 91 220q95 109 235 128q26 4 52 4h303q309 0 423 -110t66 -357t-204.5 -357t-465.5 -110h-8l-109 -559h-295z" />
<glyph unicode="&#x1a5;" d="M849.5 561q31.5 162 -5 254t-131.5 92t-167.5 -92t-104 -254t5.5 -254t132 -92t167 92t103.5 254zM614 -29q-180 0 -251 187l-114 -584h-292l291 1489h-1l6 26q61 262 161 359q111 108 321 108h121l-44 -225h-39q-95 0 -152 -55q-44 -43 -77 -187h1l-28 -137 q131 195 335 195q192 0 268 -154t22 -434q-83 -425 -337 -546q-90 -42 -191 -42z" />
<glyph unicode="&#x1a6;" d="M776 467q42 -9 68 -41t55 -127l166 -537h-324l-119 421q-47 169 -154 169h-94l-68 -352h-295l290 1493h295l-46 -238h131q288 0 394 -102q74 -72 74 -207q0 -57 -13 -125q-30 -154 -123 -245t-237 -109zM502 1007l-79 -407h139q121 0 182.5 47.5t82.5 156.5q7 36 7 80 q0 123 -193 123h-139z" />
<glyph unicode="&#x1a7;" d="M711 655l-155 -55q-82 -29 -132 -79.5t-63 -117.5q-17 -89 33.5 -138.5t159.5 -49.5q108 0 226.5 41t252.5 125l-59 -305q-114 -52 -231 -78.5t-228 -26.5q-270 0 -381.5 111.5t-67.5 337.5q32 166 138 275t299 175l137 48q141 49 190.5 89.5t61.5 102.5q15 80 -33.5 123 t-155.5 43q-96 0 -200.5 -35t-213.5 -102l56 288q110 46 218 69.5t211 23.5q227 0 334 -116t68 -319q-31 -158 -128 -251.5t-337 -178.5z" />
<glyph unicode="&#x1a8;" d="M350 1085q95 31 192.5 46.5t192.5 15.5q212 0 311.5 -90t68.5 -252q-27 -136 -119.5 -217t-267.5 -119l-85 -18q-148 -34 -191 -64t-54 -86q-11 -57 36 -87t150 -30q94 0 200 29t214 84l-50 -256q-115 -35 -224.5 -52.5t-210.5 -17.5q-228 0 -325 86.5t-63 259.5 q28 144 119 228.5t258 122.5l88 20l12 3q223 50 239 130q11 56 -33.5 84.5t-142.5 28.5q-88 0 -180.5 -26.5t-184.5 -78.5z" />
<glyph unicode="&#x1a9;" d="M0 0zM499 747l-496 -487l-50 -260h1046l50 260h-706l497 487l-307 486h706l50 260h-1046l-50 -259z" />
<glyph unicode="&#x1aa;" d="M880 987l-209 -1073q-12 -64 9 -89q21 -24 84 -24h229l-43 -225h-241q-228 0 -297 78t-30 280l205 1053h-135q-308 0 -258 276q52 282 355 292v1h50q210 0 280 -108q58 -89 39 -250h138q116 0 172 -1l-41 -210h-168h-139zM618 1197q0 50 -16 79q-29 54 -126 55 q-64 -5 -74 -58q-13 -76 92 -76h124zM477 1331h29h-29z" />
<glyph unicode="&#x1ab;" d="M970 1438l-62 -318h383l-44 -225h-383l-103 -530q-15 -75 15.5 -107.5t115.5 -32.5h225l-36 -182l-8 -43h-1q-49 -214 -153 -316q-111 -108 -321 -108h-121l43 225h39q98 0 152 55q43 44 68 145q-211 7 -277 79q-74 81 -31 299l100 516h-286l44 225h286l62 318h293z" />
<glyph unicode="&#x1ac;" d="M485 1237q-19 0 -20 -1q-44 -1 -64 -20q-33 -33 -54 -105q-3 -14 -9 -47h-255l14 77q31 155 91 220q23 24 61 53q106 76 229 76q104 0 57 5l753 -2l-50 -258h-379l-240 -1235h-295l240 1235z" />
<glyph unicode="&#x1ad;" d="M465 1120q43 219 155 328q101 98 279 107q20 1 42 1h121l-44 -225h-39q-98 0 -151 -55q-51 -53 -72 -156h383l-43 -225h-383l-103 -530q-15 -75 15.5 -107.5t115.5 -32.5h225l-44 -225h-246q-252 0 -325.5 80.5t-31.5 298.5l101 516h-286l43 225h288z" />
<glyph unicode="&#x1ae;" d="M319 0l240 1235h-379l50 258h1053l-50 -258h-379l-232 -1194q-12 -61 -12 -105q0 -137 147 -137h39l-44 -225h-126q-319 0 -319 288q0 62 12 138z" />
<glyph unicode="&#x1af;" d="M0 0zM-33 551l184 942h295l-199 -1016q0 -2 -1 -6q-7 -47 -7 -68q0 -82 46 -127t130 -45q108 0 172.5 61t89.5 185l199 1016h295l-185 -942q-35 -180 -75 -272.5t-103 -155.5q-76 -74 -180 -113t-229 -39q-219 0 -337 99t-118 282q0 42 5.5 92t17.5 107zM968 1238l27 141 q58 -50 90.5 -69t58.5 -19q39 0 69.5 29.5t39.5 78.5q8 39 8 77.5t-8 78.5h156q0 -55 -3.5 -102t-11.5 -88q-23 -115 -81 -176.5t-144 -61.5q-53 0 -102 27t-99 84z" />
<glyph unicode="&#x1b0;" d="M0 0zM-29 391l143 729h291l-131 -684q-5 -27 -7.5 -53t-2.5 -51q0 -58 29 -89.5t83 -31.5q83 0 139.5 70t84.5 208l122 631h291l-217 -1120h-293l33 166q-44 -90 -129 -142.5t-186 -52.5q-129 0 -198 70.5t-69 202.5q0 28 4 64t13 83zM804 850l27 141q58 -50 90.5 -69 t58.5 -19q39 0 69.5 29.5t39.5 78.5q8 39 8 77.5t-8 78.5h156q0 -55 -3.5 -102t-11.5 -88q-23 -115 -81 -176.5t-144 -61.5q-53 0 -102 27t-99 84z" />
<glyph unicode="&#x1b1;" d="M1244 1249h-238q99 -109 126.5 -244.5t-9.5 -326.5q-61 -312 -236 -495t-410 -183q-237 0 -342.5 183t-44.5 495q37 191 117.5 326.5t221.5 244.5h-238l41 211h471l-52 -268q-97 -79 -158.5 -196t-93.5 -284q-42 -214 -8.5 -330t136.5 -116q102 0 181 116t121 330 q32 166 15 284.5t-84 195.5l52 268h473z" />
<glyph unicode="&#x1b2;" d="M797 707q64 328 -68 480l11 57h235q99 -109 126.5 -244.5t-9.5 -326.5q-61 -312 -236 -495q-170 -178 -459 -178q-253 0 -324 176q-44 110 -10 286l149 771l50 260h295l-194 -998q-27 -142 2 -188q29 -45 131 -46q153 0 247 248q33 88 54 198z" />
<glyph unicode="&#x1b3;" d="M987 1026l-292 -438l-114 -588h-295l114 588l-253 905h302l159 -600l139 211q209 320 256 348q151 92 305 15l56 -28l-105 -215q-27 19 -80 17q-50 -2 -192 -215z" />
<glyph unicode="&#x1b4;" d="M990 664l-431 -785q-166 -303 -401 -303h-242l44 223h119q90 0 138 30.5t112 141.5l34 60l-184 1089h293l102 -727l180 351q145 281 239 340q95 59 307 21l49 -9l-101 -216q-87 35 -150 -44q-45 -57 -108 -172z" />
<glyph unicode="&#x1b5;" d="M282 1493h1010l-47 -244l-464 -519h227l-38 -192h-361l-249 -278h706l-50 -260h-1046l47 244l257 294h-93l38 192h223l439 503h-649z" />
<glyph unicode="&#x1b6;" d="M290 1120h895l-45 -229l-277 -259h155l-38 -194h-325l-234 -219h589l-43 -219h-919l45 229l224 209h-111l37 194h282l288 269h-566z" />
<glyph unicode="&#x1b7;" d="M1163 425q-54 -281 -317 -390q-153 -63 -371 -63q-338 0 -446 116q-119 128 -76 351h318q-21 -107 65 -164q61 -41 159 -41q235 0 305 146q13 28 19 59q35 179 -185 203q-33 4 -72 4h-255l43 218l443 369h-566l51 260h1010l-48 -244l-479 -401q143 -9 217 -32 q101 -31 155 -131q59 -110 30 -260z" />
<glyph unicode="&#x1b8;" d="M544 234q142 0 230 78q60 53 74 127h318q-43 -223 -212 -351q-154 -116 -492 -116q-458 0 -515 274q-16 80 3 179q28 143 119 245q101 113 218 146q83 23 229 32l-323 401l48 244h1010l-51 -260h-566l301 -369l-43 -218h-255q-297 0 -337 -207q-27 -139 102 -185 q56 -20 142 -20z" />
<glyph unicode="&#x1b9;" d="M944 452l-43 -218h-168q-147 0 -232 -52q-85 -53 -105 -155q-19 -99 43.5 -152t200.5 -53q93 0 195 28q101 27 209 81l-58 -297q-109 -37 -217 -56q-108 -18 -211 -18q-294 0 -424 116q-131 115 -88 337q28 143 119 245q99 113 218 146q83 23 230 32l-303 455l45 229h895 l-43 -219h-566z" />
<glyph unicode="&#x1ba;" d="M775 546q108 -17 177 -65q79 -56 79 -159q0 -28 -6 -61q-27 -138 -132 -205q-101 -65 -336 -92l-61 -7q-109 -13 -144 -30q-42 -21 -47 -59q-1 -8 -1 -15q0 -37 38 -57q46 -24 146 -24q110 0 221 22q111 21 220 64l-43 -226q-134 -31 -239 -44q-116 -14 -222 -14 q-246 0 -359 75q-89 59 -89 165q0 28 6 59q28 141 132 208q89 58 369 94l62 8q102 13 132 27q42 20 47 56q1 8 1 15q0 34 -36 50q-46 21 -293 21h-252l601 542h-565l40 226h977l-39 -220z" />
<glyph unicode="&#x1bb;" d="M337 260h629l-51 -260h-948l49 252l193 170l132 116h-162l37 192h341l71 65q92 86 137.5 152.5t58.5 131.5q19 100 -30.5 154.5t-160.5 54.5q-79 0 -184 -31.5t-223 -91.5l53 275q115 39 221.5 59.5t200.5 20.5q237 0 351 -110.5t77 -301.5q-17 -88 -61.5 -165 t-135.5 -171q-15 -16 -44 -42h117l-37 -192h-247h-54l-85 -72z" />
<glyph unicode="&#x1bc;" d="M307 646h-142l165 847h930l-51 -260h-635l-68 -353h262q115 0 244 -64q70 -30 128 -146q51 -102 23 -245q-43 -222 -218 -337q-176 -116 -470 -116q-338 0 -446 116q-119 128 -76 351h318q-19 -95 49 -152q64 -53 175 -53q138 0 221.5 53t102.5 152q20 102 -45 155 q-65 52 -212 52h-102h-153z" />
<glyph unicode="&#x1bd;" d="M642 452q136 0 246 -48q97 -44 148 -146q51 -103 23 -245q-43 -222 -218 -337q-176 -116 -470 -116q-103 0 -203 18q-100 19 -195 56l57 297q85 -53 177.5 -81t183.5 -28q138 0 221.5 53t102.5 152q20 102 -45 155q-65 52 -212 52h-168h-89l173 886h799l-41 -209h-508 l-89 -459h107z" />
<glyph unicode="&#x1be;" d="M759 1078l-10 -49q164 -31 237 -125q112 -145 67 -376q-42 -215 -187 -348q-229 -210 -446 -210q-163 0 -232 18q-70 17 -131 52l58 298q61 -43 127 -64q68 -22 140 -22q161 0 272 114q65 66 84 162q14 71 -23 147q-55 114 -250 114h-84l56 289h-218l37 194h214h4l33 166 h322l-33 -166h233l-37 -194h-233z" />
<glyph unicode="&#x1bf;" d="M320 -132l-60 -294h-297l316 1546h297l-34 -165q94 111 173 148q95 44 251 44h6q167 0 211 -112q37 -92 33 -185q-2 -41 -11 -81q-99 -427 -885 -901zM376 145q464 334 496 498q7 38 8 70q3 65 -19 109q-33 65 -138 65q-73 0 -236 -203q-55 -270 -111 -539z" />
<glyph unicode="&#x1c0;" d="M628 1493h267l-290 -1493h-267z" />
<glyph unicode="&#x1c1;" d="M109 0zM399 1493h267l-290 -1493h-267zM857 1493h267l-290 -1493h-267z" />
<glyph unicode="&#x1c2;" d="M628 1493h267l-67 -347h410l-46 -235h-410l-43 -220h410l-46 -237h-410l-88 -454h-267l88 454h-410l46 237h410l43 220h-410l46 235h410z" />
<glyph unicode="&#x1c3;" d="M338 0zM393 283h266l-55 -283h-266zM629 1493h266l-127 -655l-102 -357h-199l33 357z" />
<glyph unicode="&#x1cd;" d="M0 0zM717 1219l-264 -607h284zM582 1493h360l113 -1493h-293l-14 369h-400l-162 -369h-299zM942 1635h-348l-137 264h170l149 -162l229 162h181z" />
<glyph unicode="&#x1ce;" d="M47 0zM690 530q-172 0 -255 -52t-83 -161q0 -63 40.5 -104t103.5 -41q118 0 198 93t109 265h-113zM1114 639l-123 -639h-291l25 125q-67 -77 -153.5 -115.5t-196.5 -38.5q-151 0 -239.5 87.5t-88.5 236.5q0 215 155.5 328.5t448.5 113.5h193l8 49q1 6 1.5 11.5t0.5 17.5 q0 57 -51 87t-148 30q-82 0 -185.5 -28.5t-221.5 -84.5l47 250q113 39 213.5 58.5t191.5 19.5q217 0 329 -76t112 -223q0 -39 -7 -92t-20 -117zM838 1262h-242l-182 376h174l153 -227l238 227h190z" />
<glyph unicode="&#x1cf;" d="M27 0zM266 1233l51 260h889l-51 -260h-297l-188 -973h297l-52 -260h-888l51 260h297l188 973h-297zM942 1635h-348l-137 264h170l149 -162l229 162h181z" />
<glyph unicode="&#x1d0;" d="M14 0zM309 1120h580l-174 -895h364l-43 -225h-1022l43 225h365l131 670h-287zM838 1262h-242l-182 376h174l153 -227l238 227h190z" />
<glyph unicode="&#x1d1;" d="M61 0zM868 1020q0 120 -40 180t-121 60q-59 0 -109 -35.5t-86 -104.5q-22 -39 -43.5 -103.5t-44.5 -156.5q-29 -115 -44 -214.5t-15 -174.5q0 -120 40 -179t121 -59q59 0 108.5 35.5t86.5 104.5q23 44 45.5 109.5t42.5 148.5q29 115 44 214.5t15 174.5zM61 465 q0 200 50 405t135 359q77 140 202 215.5t281 75.5q215 0 328.5 -126t113.5 -364q0 -202 -49 -408.5t-133 -357.5q-78 -141 -203.5 -217t-281.5 -76q-217 0 -330 126.5t-113 367.5zM942 1635h-348l-137 264h170l149 -162l229 162h181z" />
<glyph unicode="&#x1d2;" d="M88 0zM850 684q0 109 -46.5 168t-131.5 59q-123 0 -206 -136t-83 -341q0 -106 48.5 -166.5t131.5 -60.5q121 0 204 136.5t83 340.5zM88 426q0 322 166.5 522.5t433.5 200.5q215 0 336 -120.5t121 -334.5q0 -323 -166.5 -523t-433.5 -200q-215 0 -336 120.5t-121 334.5z M838 1262h-242l-182 376h174l153 -227l238 227h190z" />
<glyph unicode="&#x1d3;" d="M45 0zM68 551l184 942h295l-199 -1016q0 -2 -1 -6q-7 -47 -7 -68q0 -82 46 -127t130 -45q108 0 172.5 61t89.5 185l199 1016h295l-185 -942q-35 -180 -75 -272.5t-103 -155.5q-76 -74 -180 -113t-229 -39q-219 0 -337 99t-118 282q0 42 5.5 92t17.5 107zM963 1635h-348 l-137 264h170l149 -162l229 162h181z" />
<glyph unicode="&#x1d4;" d="M106 0zM123 391l143 729h291l-131 -684q-5 -27 -7.5 -53t-2.5 -51q0 -58 29 -89.5t83 -31.5q83 0 139.5 70t84.5 208l122 631h291l-217 -1120h-293l33 166q-44 -90 -129 -142.5t-186 -52.5q-129 0 -198 70.5t-69 202.5q0 28 4 64t13 83zM853 1262h-242l-182 376h174 l153 -227l238 227h190z" />
<glyph unicode="&#x1d5;" d="M45 0zM516 1829zM553 2017h631l-37 -188h-631zM908 1803h235l-47 -246h-237zM513 1803h235l-49 -246h-236zM68 551l184 942h295l-199 -1016q0 -2 -1 -6q-7 -47 -7 -68q0 -82 46 -127t130 -45q108 0 172.5 61t89.5 185l199 1016h295l-185 -942q-35 -180 -75 -272.5 t-103 -155.5q-76 -74 -180 -113t-229 -39q-219 0 -337 99t-118 282q0 42 5.5 92t17.5 107z" />
<glyph unicode="&#x1d6;" d="M106 0zM106 0zM123 391l143 729h291l-131 -684q-5 -27 -7.5 -53t-2.5 -51q0 -58 29 -89.5t83 -31.5q83 0 139.5 70t84.5 208l122 631h291l-217 -1120h-293l33 166q-44 -90 -129 -142.5t-186 -52.5q-129 0 -198 70.5t-69 202.5q0 28 4 64t13 83zM858 1585h238l-49 -246 h-236zM463 1585h237l-49 -246h-235zM494 1871h631l-37 -188h-631z" />
<glyph unicode="&#x1d7;" d="M45 0zM889 2063h281l-320 -264h-207zM902 1771h235l-47 -246h-237zM507 1771h235l-49 -246h-236zM68 551l184 942h295l-199 -1016q0 -2 -1 -6q-7 -47 -7 -68q0 -82 46 -127t130 -45q108 0 172.5 61t89.5 185l199 1016h295l-185 -942q-35 -180 -75 -272.5t-103 -155.5 q-76 -74 -180 -113t-229 -39q-219 0 -337 99t-118 282q0 42 5.5 92t17.5 107z" />
<glyph unicode="&#x1d8;" d="M106 0zM106 0zM123 391l143 729h291l-131 -684q-5 -27 -7.5 -53t-2.5 -51q0 -58 29 -89.5t83 -31.5q83 0 139.5 70t84.5 208l122 631h291l-217 -1120h-293l33 166q-44 -90 -129 -142.5t-186 -52.5q-129 0 -198 70.5t-69 202.5q0 28 4 64t13 83zM858 1585h238l-49 -246 h-236zM463 1585h237l-49 -246h-235zM689 1677zM1007 2053h321l-442 -376h-197z" />
<glyph unicode="&#x1d9;" d="M45 0zM902 1771h235l-47 -246h-237zM507 1771h235l-49 -246h-236zM68 551l184 942h295l-199 -1016q0 -2 -1 -6q-7 -47 -7 -68q0 -82 46 -127t130 -45q108 0 172.5 61t89.5 185l199 1016h295l-185 -942q-35 -180 -75 -272.5t-103 -155.5q-76 -74 -180 -113t-229 -39 q-219 0 -337 99t-118 282q0 42 5.5 92t17.5 107zM1002 1800h-348l-137 264h170l149 -162l229 162h181z" />
<glyph unicode="&#x1da;" d="M106 0zM106 0zM123 391l143 729h291l-131 -684q-5 -27 -7.5 -53t-2.5 -51q0 -58 29 -89.5t83 -31.5q83 0 139.5 70t84.5 208l122 631h291l-217 -1120h-293l33 166q-44 -90 -129 -142.5t-186 -52.5q-129 0 -198 70.5t-69 202.5q0 28 4 64t13 83zM858 1585h238l-49 -246 h-236zM463 1585h237l-49 -246h-235zM528 1677zM952 1677h-242l-182 376h174l153 -227l238 227h190z" />
<glyph unicode="&#x1db;" d="M45 0zM68 551l184 942h295l-199 -1016q0 -2 -1 -6q-7 -47 -7 -68q0 -82 46 -127t130 -45q108 0 172.5 61t89.5 185l199 1016h295l-185 -942q-35 -180 -75 -272.5t-103 -155.5q-76 -74 -180 -113t-229 -39q-219 0 -337 99t-118 282q0 42 5.5 92t17.5 107zM902 1771h235 l-47 -246h-237zM507 1771h235l-49 -246h-236zM851 2064l143 -264h-178l-229 264h264z" />
<glyph unicode="&#x1dc;" d="M106 0zM106 0zM123 391l143 729h291l-131 -684q-5 -27 -7.5 -53t-2.5 -51q0 -58 29 -89.5t83 -31.5q83 0 139.5 70t84.5 208l122 631h291l-217 -1120h-293l33 166q-44 -90 -129 -142.5t-186 -52.5q-129 0 -198 70.5t-69 202.5q0 28 4 64t13 83zM858 1585h238l-49 -246 h-236zM463 1585h237l-49 -246h-235zM485 1677zM769 2053l209 -376h-198l-295 376h284z" />
<glyph unicode="&#x1dd;" d="M83 0zM233 1063q110 42 220 63t228 21q281 0 400 -151q120 -150 65 -433q-53 -274 -227 -433t-421 -159q-249 0 -358 147q-109 148 -57 416l23 119h759q25 132 -39.5 197t-217.5 65q-101 0 -204.5 -29t-222.5 -92zM359 433q-21 -116 24 -175q47 -60 159 -60q101 0 173 62 q72 61 105 174z" />
<glyph unicode="&#x1de;" d="M0 0zM516 1829zM553 2017h631l-37 -188h-631zM908 1803h235l-47 -246h-237zM513 1803h235l-49 -246h-236zM717 1219l-264 -607h284zM582 1493h360l113 -1493h-293l-14 369h-400l-162 -369h-299z" />
<glyph unicode="&#x1df;" d="M47 0zM47 0zM690 530q-172 0 -255 -52t-83 -161q0 -63 40.5 -104t103.5 -41q118 0 198 93t109 265h-113zM1114 639l-123 -639h-291l25 125q-67 -77 -153.5 -115.5t-196.5 -38.5q-151 0 -239.5 87.5t-88.5 236.5q0 215 155.5 328.5t448.5 113.5h193l8 49q1 6 1.5 11.5 t0.5 17.5q0 57 -51 87t-148 30q-82 0 -185.5 -28.5t-221.5 -84.5l47 250q113 39 213.5 58.5t191.5 19.5q217 0 329 -76t112 -223q0 -39 -7 -92t-20 -117zM889 1585h238l-49 -246h-236zM494 1585h237l-49 -246h-235zM494 1871h631l-37 -188h-631z" />
<glyph unicode="&#x1e0;" d="M0 0zM516 1829zM553 2017h631l-37 -188h-631zM717 1219l-264 -607h284zM582 1493h360l113 -1493h-293l-14 369h-400l-162 -369h-299zM703 1803h275l-48 -246h-275z" />
<glyph unicode="&#x1e1;" d="M47 0zM494 1871h631l-37 -188h-631zM643 1585h272l-47 -246h-274zM690 530q-172 0 -255 -52t-83 -161q0 -63 40.5 -104t103.5 -41q118 0 198 93t109 265h-113zM1114 639l-123 -639h-291l25 125q-67 -77 -153.5 -115.5t-196.5 -38.5q-151 0 -239.5 87.5t-88.5 236.5 q0 215 155.5 328.5t448.5 113.5h193l8 49q1 6 1.5 11.5t0.5 17.5q0 57 -51 87t-148 30q-82 0 -185.5 -28.5t-221.5 -84.5l47 250q113 39 213.5 58.5t191.5 19.5q217 0 329 -76t112 -223q0 -39 -7 -92t-20 -117z" />
<glyph unicode="&#x1e2;" d="M0 0zM1311 1493l-51 -260h-291l-60 -311h260l-51 -260h-260l-78 -402h310l-52 -260h-563l72 362h-283l-155 -362h-259l652 1493h809zM637 1233l-272 -635h227l125 635h-80zM662 1870h631l-36 -188h-631z" />
<glyph unicode="&#x1e3;" d="M0 0zM463 401l14 78h-74q-98 0 -156.5 -51.5t-58.5 -136.5q0 -51 29 -81t78 -30q67 0 107 52t61 169zM991 688l12 67q4 17 5.5 34t1.5 45q0 51 -20 74.5t-64 23.5q-56 0 -91.5 -42t-54.5 -130l-14 -72h225zM1176 477h-451q-8 -49 -11 -75.5t-3 -45.5q0 -80 42.5 -128 t112.5 -48q56 0 124.5 28.5t133.5 80.5l-47 -238q-57 -40 -125 -60t-149 -20q-94 0 -161 42.5t-99 121.5q-61 -83 -134.5 -123.5t-162.5 -40.5q-127 0 -202 79t-75 212q0 193 121.5 310.5t325.5 117.5h108l11 58q3 15 4.5 30t1.5 29q0 61 -34 93t-99 32q-52 0 -121.5 -25.5 t-155.5 -75.5l47 238q79 39 151.5 58.5t141.5 19.5q82 0 140 -35t83 -98q52 65 121.5 99t153.5 34q126 0 194 -70t68 -200q0 -49 -8 -116t-25 -155zM459 1556h631l-37 -188h-631z" />
<glyph unicode="&#x1e6;" d="M102 0zM1080 1635h-348l-137 264h170l149 -162l229 162h181zM991 94q-70 -59 -168 -91t-213 -32q-242 0 -375 145t-133 408q0 215 72.5 425t192.5 345q98 111 228 168.5t282 57.5q81 0 159.5 -18t155.5 -54l-66 -328q-51 67 -120 102t-150 35q-71 0 -135.5 -29.5 t-116.5 -86.5q-41 -47 -75.5 -110t-59.5 -140q-32 -98 -49 -189.5t-17 -169.5q0 -144 64 -222.5t180 -78.5q36 0 67.5 8.5t55.5 24.5l57 291h-206l49 248h460z" />
<glyph unicode="&#x1e7;" d="M18 0zM838 1262h-242l-182 376h174l153 -227l238 227h190zM520 246q115 0 199 132.5t84 319.5q0 100 -41 155.5t-113 55.5q-114 0 -198 -132.5t-84 -317.5q0 -102 40 -157.5t113 -55.5zM987 84q-53 -277 -191 -392.5t-411 -115.5q-98 0 -189 15t-178 44l54 265 q75 -45 157.5 -67.5t169.5 -22.5q125 0 195.5 58.5t93.5 182.5l27 133q-54 -83 -131.5 -125.5t-173.5 -42.5q-157 0 -249.5 104.5t-92.5 282.5q0 139 42 280t115 249q70 103 170.5 161t206.5 58q104 0 171.5 -55t88.5 -158l35 182h293z" />
<glyph unicode="&#x1e8;" d="M0 0zM975 1635h-348l-137 264h170l149 -162l229 162h181zM270 1493h295l-108 -557l563 557h348l-606 -604l338 -889h-303l-254 670l-172 -170l-95 -500h-294z" />
<glyph unicode="&#x1e9;" d="M82 0zM1055 1635h-348l-137 264h170l149 -162l229 162h181zM383 1556h293l-152 -782l404 346h370l-505 -418l313 -702h-311l-222 524l-116 -96l-82 -428h-293z" />
<glyph unicode="&#x1ea;" d="M61 0zM868 1020q0 120 -40 180t-121 60q-59 0 -109 -35.5t-86 -104.5q-22 -39 -43.5 -103.5t-44.5 -156.5q-29 -115 -44 -214.5t-15 -174.5q0 -120 40 -179t121 -59q59 0 108.5 35.5t86.5 104.5q23 44 45.5 109.5t42.5 148.5q29 115 44 214.5t15 174.5zM61 465 q0 200 50 405t135 359q77 140 202 215.5t281 75.5q215 0 328.5 -126t113.5 -364q0 -202 -49 -408.5t-133 -357.5q-78 -141 -203.5 -217t-281.5 -76q-217 0 -330 126.5t-113 367.5zM400 -16h141q-75 -80 -99 -117t-24 -63q0 -33 26 -53.5t68 -20.5q37 0 77 7.5t85 23.5 l-31 -156q-49 -11 -95 -16.5t-89 -5.5q-99 0 -157 38.5t-58 104.5q0 60 39 124.5t117 133.5z" />
<glyph unicode="&#x1eb;" d="M88 0zM850 684q0 109 -46.5 168t-131.5 59q-123 0 -206 -136t-83 -341q0 -106 48.5 -166.5t131.5 -60.5q121 0 204 136.5t83 340.5zM88 426q0 322 166.5 522.5t433.5 200.5q215 0 336 -120.5t121 -334.5q0 -323 -166.5 -523t-433.5 -200q-215 0 -336 120.5t-121 334.5z M400 -16h141q-75 -80 -99 -117t-24 -63q0 -33 26 -53.5t68 -20.5q37 0 77 7.5t85 23.5l-31 -156q-49 -11 -95 -16.5t-89 -5.5q-99 0 -157 38.5t-58 104.5q0 60 39 124.5t117 133.5z" />
<glyph unicode="&#x1ec;" d="M61 0zM61 0zM868 1020q0 120 -40 180t-121 60q-59 0 -109 -35.5t-86 -104.5q-22 -39 -43.5 -103.5t-44.5 -156.5q-29 -115 -44 -214.5t-15 -174.5q0 -120 40 -179t121 -59q59 0 108.5 35.5t86.5 104.5q23 44 45.5 109.5t42.5 148.5q29 115 44 214.5t15 174.5zM61 465 q0 200 50 405t135 359q77 140 202 215.5t281 75.5q215 0 328.5 -126t113.5 -364q0 -202 -49 -408.5t-133 -357.5q-78 -141 -203.5 -217t-281.5 -76q-217 0 -330 126.5t-113 367.5zM400 -16h141q-75 -80 -99 -117t-24 -63q0 -33 26 -53.5t68 -20.5q37 0 77 7.5t85 23.5 l-31 -156q-49 -11 -95 -16.5t-89 -5.5q-99 0 -157 38.5t-58 104.5q0 60 39 124.5t117 133.5zM519 1870h631l-36 -188h-631z" />
<glyph unicode="&#x1ed;" d="M88 0zM88 0zM850 684q0 109 -46.5 168t-131.5 59q-123 0 -206 -136t-83 -341q0 -106 48.5 -166.5t131.5 -60.5q121 0 204 136.5t83 340.5zM88 426q0 322 166.5 522.5t433.5 200.5q215 0 336 -120.5t121 -334.5q0 -323 -166.5 -523t-433.5 -200q-215 0 -336 120.5 t-121 334.5zM400 -16h141q-75 -80 -99 -117t-24 -63q0 -33 26 -53.5t68 -20.5q37 0 77 7.5t85 23.5l-31 -156q-49 -11 -95 -16.5t-89 -5.5q-99 0 -157 38.5t-58 104.5q0 60 39 124.5t117 133.5zM459 1556h631l-37 -188h-631z" />
<glyph unicode="&#x1ee;" d="M0 0zM942 1635h-348l-137 264h170l149 -162l229 162h181zM1163 425q-54 -281 -317 -390q-153 -63 -371 -63q-338 0 -446 116q-119 128 -76 351h318q-21 -107 65 -164q61 -41 159 -41q235 0 305 146q13 28 19 59q35 179 -185 203q-33 4 -72 4h-255l43 218l443 369h-566 l51 260h1010l-48 -244l-479 -401q143 -9 217 -32q101 -31 155 -131q59 -110 30 -260z" />
<glyph unicode="&#x1ef;" d="M0 0zM333 452l477 449h-566l43 219h895l-45 -229l-479 -455q143 -9 216 -32q107 -33 162 -146q51 -102 23 -245q-43 -222 -218 -337q-176 -116 -470 -116q-103 0 -203 18q-100 19 -195 56l57 297q87 -54 178 -81q90 -28 183 -28q138 0 221.5 53t102.5 152q20 102 -45 155 q-65 52 -212 52h-168zM838 1262h-242l-182 376h174l153 -227l238 227h190z" />
<glyph unicode="&#x1f4;" d="M102 0zM996 1899h281l-320 -264h-207zM991 94q-70 -59 -168 -91t-213 -32q-242 0 -375 145t-133 408q0 215 72.5 425t192.5 345q98 111 228 168.5t282 57.5q81 0 159.5 -18t155.5 -54l-66 -328q-51 67 -120 102t-150 35q-71 0 -135.5 -29.5t-116.5 -86.5 q-41 -47 -75.5 -110t-59.5 -140q-32 -98 -49 -189.5t-17 -169.5q0 -144 64 -222.5t180 -78.5q36 0 67.5 8.5t55.5 24.5l57 291h-206l49 248h460z" />
<glyph unicode="&#x1f5;" d="M18 0zM887 1638h321l-442 -376h-197zM520 246q115 0 199 132.5t84 319.5q0 100 -41 155.5t-113 55.5q-114 0 -198 -132.5t-84 -317.5q0 -102 40 -157.5t113 -55.5zM987 84q-53 -277 -191 -392.5t-411 -115.5q-98 0 -189 15t-178 44l54 265q75 -45 157.5 -67.5 t169.5 -22.5q125 0 195.5 58.5t93.5 182.5l27 133q-54 -83 -131.5 -125.5t-173.5 -42.5q-157 0 -249.5 104.5t-92.5 282.5q0 139 42 280t115 249q70 103 170.5 161t206.5 58q104 0 171.5 -55t88.5 -158l35 182h293z" />
<glyph unicode="&#x1f6;" d="M173 1493h251l-111 -569h222l111 569h251l-183 -942l-15 -74q-29 -152 -19 -189q13 -50 69 -50q69 0 102 58q32 56 56 181l87 447h251l-72 -373q-59 -304 -189 -442t-287 -138q-141 0 -217 138t-17 442l22 113h-222l-129 -664h-251z" />
<glyph unicode="&#x1f8;" d="M0 0zM266 1493h303l215 -1085l211 1085h260l-288 -1493h-293l-225 1085l-211 -1085h-263zM804 1899l143 -264h-178l-229 264h264z" />
<glyph unicode="&#x1f9;" d="M59 0zM1102 728l-141 -728h-293l133 682q5 26 7.5 52.5t2.5 53.5q0 58 -29 88.5t-84 30.5q-82 0 -140.5 -72t-84.5 -206l-121 -629h-293l217 1120h293l-32 -168q48 92 132 143.5t185 51.5q128 0 197 -69.5t69 -196.5q0 -30 -4.5 -68t-13.5 -85zM367 1264zM651 1640 l209 -376h-198l-295 376h284z" />
<glyph unicode="&#x1fc;" d="M0 0zM1071 1899h281l-320 -264h-207zM1311 1493l-51 -260h-291l-60 -311h260l-51 -260h-260l-78 -402h310l-52 -260h-563l72 362h-283l-155 -362h-259l652 1493h809zM637 1233l-272 -635h227l125 635h-80z" />
<glyph unicode="&#x1fd;" d="M0 0zM887 1638h321l-442 -376h-197zM463 401l14 78h-74q-98 0 -156.5 -51.5t-58.5 -136.5q0 -51 29 -81t78 -30q67 0 107 52t61 169zM991 688l12 67q4 17 5.5 34t1.5 45q0 51 -20 74.5t-64 23.5q-56 0 -91.5 -42t-54.5 -130l-14 -72h225zM1176 477h-451q-8 -49 -11 -75.5 t-3 -45.5q0 -80 42.5 -128t112.5 -48q56 0 124.5 28.5t133.5 80.5l-47 -238q-57 -40 -125 -60t-149 -20q-94 0 -161 42.5t-99 121.5q-61 -83 -134.5 -123.5t-162.5 -40.5q-127 0 -202 79t-75 212q0 193 121.5 310.5t325.5 117.5h108l11 58q3 15 4.5 30t1.5 29q0 61 -34 93 t-99 32q-52 0 -121.5 -25.5t-155.5 -75.5l47 238q79 39 151.5 58.5t141.5 19.5q82 0 140 -35t83 -98q52 65 121.5 99t153.5 34q126 0 194 -70t68 -200q0 -49 -8 -116t-25 -155z" />
<glyph unicode="&#x1fe;" d="M0 0zM375 354q18 -60 56.5 -90.5t94.5 -30.5q125 0 202.5 153t129.5 503zM78 295q-8 34 -12.5 71t-4.5 76q0 214 49 423t134 362q78 142 204 217.5t283 75.5q105 0 188 -33t144 -98l154 170l139 -115l-205 -227q10 -56 15 -104.5t5 -92.5q0 -62 -7 -133t-21 -150 q-25 -139 -63 -257t-91 -216q-78 -141 -203.5 -217t-281.5 -76q-114 0 -200.5 37t-143.5 109l-160 -180l-141 114zM852 1153q-18 52 -55.5 79.5t-89.5 27.5q-121 0 -197.5 -146.5t-130.5 -484.5zM862 1899h281l-320 -264h-207z" />
<glyph unicode="&#x1ff;" d="M0 0zM434 266q24 -30 55.5 -44.5t71.5 -14.5q121 0 197 121t92 342zM129 209q-20 46 -30.5 99t-10.5 114q0 327 165.5 527t434.5 200q92 0 169.5 -25t143.5 -75l193 186l117 -121l-207 -201q20 -49 30.5 -103.5t10.5 -113.5q0 -326 -166 -525.5t-436 -199.5 q-98 0 -173.5 25t-136.5 76l-198 -189l-117 119zM801 856q-25 28 -56.5 41.5t-70.5 13.5q-121 0 -196.5 -118t-94.5 -340zM887 1638h321l-442 -376h-197z" />
<glyph unicode="&#x200;" d="M0 0zM619 1899l148 -264h-197l-235 264h284zM994 1899l148 -264h-197l-235 264h284zM717 1219l-264 -607h284zM582 1493h360l113 -1493h-293l-14 369h-400l-162 -369h-299z" />
<glyph unicode="&#x201;" d="M47 0zM909 1638l121 -376h-163l-175 376h217zM546 1638l142 -376h-174l-199 376h231zM690 530q-172 0 -255 -52t-83 -161q0 -63 40.5 -104t103.5 -41q118 0 198 93t109 265h-113zM1114 639l-123 -639h-291l25 125q-67 -77 -153.5 -115.5t-196.5 -38.5q-151 0 -239.5 87.5 t-88.5 236.5q0 215 155.5 328.5t448.5 113.5h193l8 49q1 6 1.5 11.5t0.5 17.5q0 57 -51 87t-148 30q-82 0 -185.5 -28.5t-221.5 -84.5l47 250q113 39 213.5 58.5t191.5 19.5q217 0 329 -76t112 -223q0 -39 -7 -92t-20 -117z" />
<glyph unicode="&#x202;" d="M0 0zM454 1635h141q31 60 86 90.5t131 30.5q77 0 119.5 -30t50.5 -91h143q1 16 1 30q0 107 -64 167q-74 67 -222 67q-147 0 -246.5 -67.5t-139.5 -196.5zM717 1219l-264 -607h284zM582 1493h360l113 -1493h-293l-14 369h-400l-162 -369h-299z" />
<glyph unicode="&#x203;" d="M47 0zM390 1309q34 144 135.5 220.5t257.5 76.5q157 0 229 -76q55 -59 55 -157q0 -30 -6 -64h-143q1 4 1 8q0 64 -40 99q-43 37 -126 37t-140 -37.5t-82 -106.5h-141zM690 530q-172 0 -255 -52t-83 -161q0 -63 40.5 -104t103.5 -41q118 0 198 93t109 265h-113zM1114 639 l-123 -639h-291l25 125q-67 -77 -153.5 -115.5t-196.5 -38.5q-151 0 -239.5 87.5t-88.5 236.5q0 215 155.5 328.5t448.5 113.5h193l8 49q1 6 1.5 11.5t0.5 17.5q0 57 -51 87t-148 30q-82 0 -185.5 -28.5t-221.5 -84.5l47 250q113 39 213.5 58.5t191.5 19.5q217 0 329 -76 t112 -223q0 -39 -7 -92t-20 -117z" />
<glyph unicode="&#x204;" d="M29 0zM619 1899l148 -264h-197l-235 264h284zM994 1899l148 -264h-197l-235 264h284zM958 0h-929l288 1493h932l-51 -260h-635l-63 -322h575l-49 -260h-575l-76 -391h635z" />
<glyph unicode="&#x205;" d="M76 0zM948 1638l121 -376h-163l-175 376h217zM585 1638l142 -376h-174l-199 376h231zM993 55q-95 -42 -198 -63t-213 -21q-248 0 -377 118.5t-129 346.5q0 141 44 273t124 229q84 102 200 156.5t250 54.5q209 0 335 -120t126 -318q0 -45 -6.5 -104t-20.5 -142h-759 q-3 -17 -4.5 -32t-2.5 -30q0 -99 67 -149.5t198 -50.5q108 0 216 31t201 90zM876 684q4 14 5.5 27.5t1.5 25.5q0 85 -51 134t-140 49q-100 0 -171 -59t-111 -177h466z" />
<glyph unicode="&#x206;" d="M29 0zM454 1635h141q31 60 86 90.5t131 30.5q77 0 119.5 -30t50.5 -91h143q1 16 1 30q0 107 -64 167q-74 67 -222 67q-147 0 -246.5 -67.5t-139.5 -196.5zM958 0h-929l288 1493h932l-51 -260h-635l-63 -322h575l-49 -260h-575l-76 -391h635z" />
<glyph unicode="&#x207;" d="M76 0zM429 1309q34 144 135.5 220.5t257.5 76.5q157 0 229 -76q55 -59 55 -157q0 -30 -6 -64h-143q1 4 1 8q0 64 -40 99q-43 37 -126 37t-140 -37.5t-82 -106.5h-141zM993 55q-95 -42 -198 -63t-213 -21q-248 0 -377 118.5t-129 346.5q0 141 44 273t124 229 q84 102 200 156.5t250 54.5q209 0 335 -120t126 -318q0 -45 -6.5 -104t-20.5 -142h-759q-3 -17 -4.5 -32t-2.5 -30q0 -99 67 -149.5t198 -50.5q108 0 216 31t201 90zM876 684q4 14 5.5 27.5t1.5 25.5q0 85 -51 134t-140 49q-100 0 -171 -59t-111 -177h466z" />
<glyph unicode="&#x208;" d="M27 0zM619 1899l148 -264h-197l-235 264h284zM994 1899l148 -264h-197l-235 264h284zM266 1233l51 260h889l-51 -260h-297l-188 -973h297l-52 -260h-888l51 260h297l188 973h-297z" />
<glyph unicode="&#x209;" d="M14 0zM909 1638l121 -376h-163l-175 376h217zM546 1638l142 -376h-174l-199 376h231zM309 1120h580l-174 -895h364l-43 -225h-1022l43 225h365l131 670h-287z" />
<glyph unicode="&#x20a;" d="M27 0zM454 1635h141q31 60 86 90.5t131 30.5q77 0 119.5 -30t50.5 -91h143q1 16 1 30q0 107 -64 167q-74 67 -222 67q-147 0 -246.5 -67.5t-139.5 -196.5zM266 1233l51 260h889l-51 -260h-297l-188 -973h297l-52 -260h-888l51 260h297l188 973h-297z" />
<glyph unicode="&#x20b;" d="M14 0zM390 1309q34 144 135.5 220.5t257.5 76.5q157 0 229 -76q55 -59 55 -157q0 -30 -6 -64h-143q1 4 1 8q0 64 -40 99q-43 37 -126 37t-140 -37.5t-82 -106.5h-141zM309 1120h580l-174 -895h364l-43 -225h-1022l43 225h365l131 670h-287z" />
<glyph unicode="&#x20c;" d="M61 0zM619 1899l148 -264h-197l-235 264h284zM994 1899l148 -264h-197l-235 264h284zM868 1020q0 120 -40 180t-121 60q-59 0 -109 -35.5t-86 -104.5q-22 -39 -43.5 -103.5t-44.5 -156.5q-29 -115 -44 -214.5t-15 -174.5q0 -120 40 -179t121 -59q59 0 108.5 35.5 t86.5 104.5q23 44 45.5 109.5t42.5 148.5q29 115 44 214.5t15 174.5zM61 465q0 200 50 405t135 359q77 140 202 215.5t281 75.5q215 0 328.5 -126t113.5 -364q0 -202 -49 -408.5t-133 -357.5q-78 -141 -203.5 -217t-281.5 -76q-217 0 -330 126.5t-113 367.5z" />
<glyph unicode="&#x20d;" d="M88 0zM909 1638l121 -376h-163l-175 376h217zM546 1638l142 -376h-174l-199 376h231zM850 684q0 109 -46.5 168t-131.5 59q-123 0 -206 -136t-83 -341q0 -106 48.5 -166.5t131.5 -60.5q121 0 204 136.5t83 340.5zM88 426q0 322 166.5 522.5t433.5 200.5q215 0 336 -120.5 t121 -334.5q0 -323 -166.5 -523t-433.5 -200q-215 0 -336 120.5t-121 334.5z" />
<glyph unicode="&#x20e;" d="M61 0zM454 1635h141q31 60 86 90.5t131 30.5q77 0 119.5 -30t50.5 -91h143q1 16 1 30q0 107 -64 167q-74 67 -222 67q-147 0 -246.5 -67.5t-139.5 -196.5zM868 1020q0 120 -40 180t-121 60q-59 0 -109 -35.5t-86 -104.5q-22 -39 -43.5 -103.5t-44.5 -156.5 q-29 -115 -44 -214.5t-15 -174.5q0 -120 40 -179t121 -59q59 0 108.5 35.5t86.5 104.5q23 44 45.5 109.5t42.5 148.5q29 115 44 214.5t15 174.5zM61 465q0 200 50 405t135 359q77 140 202 215.5t281 75.5q215 0 328.5 -126t113.5 -364q0 -202 -49 -408.5t-133 -357.5 q-78 -141 -203.5 -217t-281.5 -76q-217 0 -330 126.5t-113 367.5z" />
<glyph unicode="&#x20f;" d="M88 0zM390 1309q34 144 135.5 220.5t257.5 76.5q157 0 229 -76q55 -59 55 -157q0 -30 -6 -64h-143q1 4 1 8q0 64 -40 99q-43 37 -126 37t-140 -37.5t-82 -106.5h-141zM850 684q0 109 -46.5 168t-131.5 59q-123 0 -206 -136t-83 -341q0 -106 48.5 -166.5t131.5 -60.5 q121 0 204 136.5t83 340.5zM88 426q0 322 166.5 522.5t433.5 200.5q215 0 336 -120.5t121 -334.5q0 -323 -166.5 -523t-433.5 -200q-215 0 -336 120.5t-121 334.5z" />
<glyph unicode="&#x210;" d="M8 0zM569 1899l148 -264h-197l-235 264h284zM944 1899l148 -264h-197l-235 264h284zM788 705q61 -9 95 -45t61 -123l164 -537h-301l-106 376q-3 10 -8 27q-53 187 -158 187h-117l-115 -590h-295l291 1493h410q232 0 344 -87.5t112 -268.5q0 -187 -98 -299.5t-279 -132.5z M547 1245l-80 -407h123q135 0 204.5 64t69.5 188q0 78 -46 116.5t-138 38.5h-133z" />
<glyph unicode="&#x211;" d="M154 0zM1009 1638l121 -376h-163l-175 376h217zM646 1638l142 -376h-174l-199 376h231zM1174 815q-48 43 -107 63.5t-133 20.5q-166 0 -255.5 -88t-129.5 -295l-100 -516h-295l219 1120h293l-35 -174q62 96 161 148.5t218 52.5q62 0 117.5 -15t99.5 -42z" />
<glyph unicode="&#x212;" d="M8 0zM404 1635h141q31 60 86 90.5t131 30.5q77 0 119.5 -30t50.5 -91h143q1 16 1 30q0 107 -64 167q-74 67 -222 67q-147 0 -246.5 -67.5t-139.5 -196.5zM788 705q61 -9 95 -45t61 -123l164 -537h-301l-106 376q-3 10 -8 27q-53 187 -158 187h-117l-115 -590h-295 l291 1493h410q232 0 344 -87.5t112 -268.5q0 -187 -98 -299.5t-279 -132.5zM547 1245l-80 -407h123q135 0 204.5 64t69.5 188q0 78 -46 116.5t-138 38.5h-133z" />
<glyph unicode="&#x213;" d="M154 0zM490 1309q34 144 135.5 220.5t257.5 76.5q157 0 229 -76q55 -59 55 -157q0 -30 -6 -64h-143q1 4 1 8q0 64 -40 99q-43 37 -126 37t-140 -37.5t-82 -106.5h-141zM1174 815q-48 43 -107 63.5t-133 20.5q-166 0 -255.5 -88t-129.5 -295l-100 -516h-295l219 1120h293 l-35 -174q62 96 161 148.5t218 52.5q62 0 117.5 -15t99.5 -42z" />
<glyph unicode="&#x214;" d="M45 0zM619 1899l148 -264h-197l-235 264h284zM994 1899l148 -264h-197l-235 264h284zM68 551l184 942h295l-199 -1016q0 -2 -1 -6q-7 -47 -7 -68q0 -82 46 -127t130 -45q108 0 172.5 61t89.5 185l199 1016h295l-185 -942q-35 -180 -75 -272.5t-103 -155.5 q-76 -74 -180 -113t-229 -39q-219 0 -337 99t-118 282q0 42 5.5 92t17.5 107z" />
<glyph unicode="&#x215;" d="M106 0zM909 1638l121 -376h-163l-175 376h217zM546 1638l142 -376h-174l-199 376h231zM123 391l143 729h291l-131 -684q-5 -27 -7.5 -53t-2.5 -51q0 -58 29 -89.5t83 -31.5q83 0 139.5 70t84.5 208l122 631h291l-217 -1120h-293l33 166q-44 -90 -129 -142.5t-186 -52.5 q-129 0 -198 70.5t-69 202.5q0 28 4 64t13 83z" />
<glyph unicode="&#x216;" d="M45 0zM454 1635h141q31 60 86 90.5t131 30.5q77 0 119.5 -30t50.5 -91h143q1 16 1 30q0 107 -64 167q-74 67 -222 67q-147 0 -246.5 -67.5t-139.5 -196.5zM68 551l184 942h295l-199 -1016q0 -2 -1 -6q-7 -47 -7 -68q0 -82 46 -127t130 -45q108 0 172.5 61t89.5 185 l199 1016h295l-185 -942q-35 -180 -75 -272.5t-103 -155.5q-76 -74 -180 -113t-229 -39q-219 0 -337 99t-118 282q0 42 5.5 92t17.5 107z" />
<glyph unicode="&#x217;" d="M106 0zM390 1309q34 144 135.5 220.5t257.5 76.5q157 0 229 -76q55 -59 55 -157q0 -30 -6 -64h-143q1 4 1 8q0 64 -40 99q-43 37 -126 37t-140 -37.5t-82 -106.5h-141zM123 391l143 729h291l-131 -684q-5 -27 -7.5 -53t-2.5 -51q0 -58 29 -89.5t83 -31.5q83 0 139.5 70 t84.5 208l122 631h291l-217 -1120h-293l33 166q-44 -90 -129 -142.5t-186 -52.5q-129 0 -198 70.5t-69 202.5q0 28 4 64t13 83z" />
<glyph unicode="&#x218;" d="M4 0zM284 -198h282l-236 -306h-194zM506 664q-192 80 -254 155t-62 201q0 220 161.5 360t418.5 140q103 0 200.5 -20.5t188.5 -61.5l-57 -285q-68 62 -159 93.5t-202 31.5q-118 0 -192 -56.5t-74 -144.5q0 -84 184 -167l7 -3l116 -51q146 -65 213.5 -156.5t67.5 -224.5 q0 -230 -161 -367t-435 -137q-110 0 -224.5 26t-238.5 79l59 305q97 -81 203 -123.5t213 -42.5q133 0 209 58.5t76 158.5q0 62 -35 107.5t-104 74.5z" />
<glyph unicode="&#x219;" d="M90 0zM284 -198h282l-236 -306h-194zM1094 1085l-50 -254q-75 53 -162 80t-180 27q-94 0 -149 -35t-55 -94q0 -45 36.5 -72.5t165.5 -64.5l74 -21q128 -37 187 -107t59 -184q0 -182 -137.5 -285.5t-382.5 -103.5q-104 0 -207.5 17.5t-202.5 52.5l51 256q86 -56 181 -85.5 t188 -29.5q110 0 171.5 37.5t61.5 104.5q0 46 -30.5 72t-163.5 65l-88 24q-122 36 -179 105.5t-57 181.5q0 168 136 271.5t362 103.5q93 0 186 -15.5t185 -46.5z" />
<glyph unicode="&#x21a;" d="M136 0zM284 -198h282l-236 -306h-194zM618 0h-294l239 1235h-383l49 258h1059l-51 -258h-379z" />
<glyph unicode="&#x21b;" d="M164 0zM416 -198h282l-236 -306h-194zM848 1438l-62 -318h383l-43 -225h-383l-104 -530q-4 -20 -6 -35t-2 -23q0 -45 30 -63.5t109 -18.5h225l-43 -225h-245q-204 0 -289.5 55.5t-85.5 184.5q0 21 4.5 55t13.5 84l101 516h-287l43 225h287l61 318h293z" />
<glyph unicode="&#x21c;" d="M1386 1170q0 -34 -8.5 -75.5t-34.5 -99t-66.5 -111.5t-111 -111t-161.5 -99q121 -31 184.5 -111.5t63.5 -183.5q0 -34 -7 -68q-22 -104 -84.5 -191t-162.5 -160t-253.5 -140.5t-340.5 -126.5t-441 -123l60 283q13 3 34.5 8t77.5 20t111.5 32t128 44t136 55.5t127 66.5 t108.5 77.5t73.5 88t28.5 97.5q0 51 -27.5 87.5t-67 52.5t-84.5 16q-57 0 -125 -25l-235 -85l54 254l255 95q90 34 159 75.5t108.5 79.5t64 80t32 73t7.5 61q0 42 -20.5 73t-54.5 47t-69 23t-71 7q-149 0 -422 -156l54 256q275 164 510 164q104 0 187 -22t135 -57t86.5 -82 t48 -93.5t13.5 -95.5z" />
<glyph unicode="&#x21d;" d="M1270 871q0 -121 -93 -233t-242 -177q66 -18 113 -46t71 -61.5t34.5 -65.5t10.5 -67q0 -27 -6 -54q-86 -408 -1140 -600l49 229q25 5 57 12.5t93.5 23t120 34.5t127.5 44t126.5 56t106 65t75.5 75t27 83q0 61 -49 95.5t-115 34.5q-52 0 -112 -20l-209 -69l44 206l227 77 q82 28 144 62.5t96 65t54.5 64t26.5 57t6 46.5q0 35 -19.5 61t-51 39t-63 19t-63.5 6q-140 0 -376 -126l44 207q232 133 480 133q89 0 160 -16t116 -42t75 -62.5t42.5 -74.5t12.5 -81z" />
<glyph unicode="&#x21e;" d="M0 0zM971 1635h-348l-137 264h170l149 -162l229 162h181zM283 1493h295l-111 -569h369l110 569h295l-291 -1493h-295l129 664h-368l-129 -664h-295z" />
<glyph unicode="&#x21f;" d="M59 0zM895 1635h-348l-137 264h170l149 -162l229 162h181zM1102 728l-141 -728h-293l133 682q5 26 7.5 52.5t2.5 53.5q0 58 -29 88.5t-84 30.5q-83 0 -141 -71.5t-84 -206.5l-121 -629h-293l303 1556h291l-116 -604q48 92 132 143.5t185 51.5q128 0 197 -69.5t69 -196.5 q0 -30 -4.5 -68t-13.5 -85z" />
<glyph unicode="&#x221;" d="M862 216q4 -6 49 -5q103 0 116 66.5t-29 66.5q-51 0 -136 -128zM789 354q133 234 258 234q153 0 108 -240q-72 -377 -317 -377q-116 0 -117 10l-67 -121h-143q50 97 87 168q-63 28 -100 149q-51 -108 -94 -144q-74 -62 -150 -62q-177 0 -253 154t-22 434q55 284 192 436 t318 152q61 0 100 -47q23 -27 39 -72l103 528h292zM271.5 557q-31.5 -162 -15 -254t76 -92t112 92t84 254t15 254t-76.5 92t-112 -92t-83.5 -254z" />
<glyph unicode="&#x224;" d="M323 1493h1010l-47 -244l-884 -989h706l-51 -260h-1q-49 -216 -151 -316q-111 -108 -321 -108h-121l43 225h39q99 0 152 55q43 44 68 144h-754l48 244l863 989h-649z" />
<glyph unicode="&#x225;" d="M336 1120h895l-44 -229l-720 -672h589l-43 -219v0q-50 -216 -152 -316q-111 -108 -321 -108h-121l44 225h39q98 0 151 55q43 44 68 144h-627l45 229l720 672h-566z" />
<glyph unicode="&#x226;" d="M0 0zM703 1899h275l-48 -246h-275zM717 1219l-264 -607h284zM582 1493h360l113 -1493h-293l-14 369h-400l-162 -369h-299z" />
<glyph unicode="&#x227;" d="M47 0zM643 1585h272l-47 -246h-274zM690 530q-172 0 -255 -52t-83 -161q0 -63 40.5 -104t103.5 -41q118 0 198 93t109 265h-113zM1114 639l-123 -639h-291l25 125q-67 -77 -153.5 -115.5t-196.5 -38.5q-151 0 -239.5 87.5t-88.5 236.5q0 215 155.5 328.5t448.5 113.5h193 l8 49q1 6 1.5 11.5t0.5 17.5q0 57 -51 87t-148 30q-82 0 -185.5 -28.5t-221.5 -84.5l47 250q113 39 213.5 58.5t191.5 19.5q217 0 329 -76t112 -223q0 -39 -7 -92t-20 -117z" />
<glyph unicode="&#x228;" d="M29 0zM614 0q36 -48 54 -94t18 -90q0 -99 -76.5 -158t-206.5 -59q-52 0 -103 6.5t-99 19.5l28 156q43 -17 84 -26t76 -9q68 0 104.5 27t36.5 77q0 26 -13 60.5t-44 89.5h141zM958 0h-929l288 1493h932l-51 -260h-635l-63 -322h575l-49 -260h-575l-76 -391h635z" />
<glyph unicode="&#x229;" d="M76 0zM614 0q36 -48 54 -94t18 -90q0 -99 -76.5 -158t-206.5 -59q-52 0 -103 6.5t-99 19.5l28 156q43 -17 84 -26t76 -9q68 0 104.5 27t36.5 77q0 26 -13 60.5t-44 89.5h141zM993 55q-95 -42 -198 -63t-213 -21q-248 0 -377 118.5t-129 346.5q0 141 44 273t124 229 q84 102 200 156.5t250 54.5q209 0 335 -120t126 -318q0 -45 -6.5 -104t-20.5 -142h-759q-3 -17 -4.5 -32t-2.5 -30q0 -99 67 -149.5t198 -50.5q108 0 216 31t201 90zM876 684q4 14 5.5 27.5t1.5 25.5q0 85 -51 134t-140 49q-100 0 -171 -59t-111 -177h466z" />
<glyph unicode="&#x22a;" d="M61 0zM516 1829zM553 2017h631l-37 -188h-631zM908 1803h235l-47 -246h-237zM513 1803h235l-49 -246h-236zM868 1020q0 120 -40 180t-121 60q-59 0 -109 -35.5t-86 -104.5q-22 -39 -43.5 -103.5t-44.5 -156.5q-29 -115 -44 -214.5t-15 -174.5q0 -120 40 -179t121 -59 q59 0 108.5 35.5t86.5 104.5q23 44 45.5 109.5t42.5 148.5q29 115 44 214.5t15 174.5zM61 465q0 200 50 405t135 359q77 140 202 215.5t281 75.5q215 0 328.5 -126t113.5 -364q0 -202 -49 -408.5t-133 -357.5q-78 -141 -203.5 -217t-281.5 -76q-217 0 -330 126.5t-113 367.5 z" />
<glyph unicode="&#x22b;" d="M88 0zM88 0zM850 684q0 109 -46.5 168t-131.5 59q-123 0 -206 -136t-83 -341q0 -106 48.5 -166.5t131.5 -60.5q121 0 204 136.5t83 340.5zM88 426q0 322 166.5 522.5t433.5 200.5q215 0 336 -120.5t121 -334.5q0 -323 -166.5 -523t-433.5 -200q-215 0 -336 120.5 t-121 334.5zM858 1585h238l-49 -246h-236zM463 1585h237l-49 -246h-235zM494 1871h631l-37 -188h-631z" />
<glyph unicode="&#x22c;" d="M61 0zM516 1829zM553 2017h631l-37 -188h-631zM769 1590l-49 37q-25 19 -41.5 25.5t-34.5 6.5q-35 0 -61.5 -32t-36.5 -88h-137q25 128 90.5 197t161.5 69q37 0 69.5 -12t67.5 -39l53 -41q15 -13 33.5 -20t34.5 -7q39 0 65 30.5t37 88.5h137q-26 -128 -91 -197t-159 -69 q-37 0 -69 11t-70 40zM868 1020q0 120 -40 180t-121 60q-59 0 -109 -35.5t-86 -104.5q-22 -39 -43.5 -103.5t-44.5 -156.5q-29 -115 -44 -214.5t-15 -174.5q0 -120 40 -179t121 -59q59 0 108.5 35.5t86.5 104.5q23 44 45.5 109.5t42.5 148.5q29 115 44 214.5t15 174.5z M61 465q0 200 50 405t135 359q77 140 202 215.5t281 75.5q215 0 328.5 -126t113.5 -364q0 -202 -49 -408.5t-133 -357.5q-78 -141 -203.5 -217t-281.5 -76q-217 0 -330 126.5t-113 367.5z" />
<glyph unicode="&#x22d;" d="M88 0zM88 0zM850 684q0 109 -46.5 168t-131.5 59q-123 0 -206 -136t-83 -341q0 -106 48.5 -166.5t131.5 -60.5q121 0 204 136.5t83 340.5zM88 426q0 322 166.5 522.5t433.5 200.5q215 0 336 -120.5t121 -334.5q0 -323 -166.5 -523t-433.5 -200q-215 0 -336 120.5 t-121 334.5zM739 1364l-49 37q-1 1 -5 4q-42 33 -73 33q-34 0 -60 -34.5t-36 -94.5h-139q19 130 87 207t163 77q34 0 64.5 -12.5t76.5 -48.5l51 -39q19 -15 37 -23t33 -8q38 0 64 33.5t36 95.5h139q-23 -141 -85.5 -212.5t-163.5 -71.5q-35 0 -67.5 13t-72.5 44zM493 1871 h631l-37 -188h-631z" />
<glyph unicode="&#x22e;" d="M61 0zM703 1899h275l-48 -246h-275zM868 1020q0 120 -40 180t-121 60q-59 0 -109 -35.5t-86 -104.5q-22 -39 -43.5 -103.5t-44.5 -156.5q-29 -115 -44 -214.5t-15 -174.5q0 -120 40 -179t121 -59q59 0 108.5 35.5t86.5 104.5q23 44 45.5 109.5t42.5 148.5 q29 115 44 214.5t15 174.5zM61 465q0 200 50 405t135 359q77 140 202 215.5t281 75.5q215 0 328.5 -126t113.5 -364q0 -202 -49 -408.5t-133 -357.5q-78 -141 -203.5 -217t-281.5 -76q-217 0 -330 126.5t-113 367.5z" />
<glyph unicode="&#x22f;" d="M88 0zM643 1585h272l-47 -246h-274zM850 684q0 109 -46.5 168t-131.5 59q-123 0 -206 -136t-83 -341q0 -106 48.5 -166.5t131.5 -60.5q121 0 204 136.5t83 340.5zM88 426q0 322 166.5 522.5t433.5 200.5q215 0 336 -120.5t121 -334.5q0 -323 -166.5 -523t-433.5 -200 q-215 0 -336 120.5t-121 334.5z" />
<glyph unicode="&#x230;" d="M61 0zM516 1829zM553 2017h631l-37 -188h-631zM868 1020q0 120 -40 180t-121 60q-59 0 -109 -35.5t-86 -104.5q-22 -39 -43.5 -103.5t-44.5 -156.5q-29 -115 -44 -214.5t-15 -174.5q0 -120 40 -179t121 -59q59 0 108.5 35.5t86.5 104.5q23 44 45.5 109.5t42.5 148.5 q29 115 44 214.5t15 174.5zM61 465q0 200 50 405t135 359q77 140 202 215.5t281 75.5q215 0 328.5 -126t113.5 -364q0 -202 -49 -408.5t-133 -357.5q-78 -141 -203.5 -217t-281.5 -76q-217 0 -330 126.5t-113 367.5zM703 1803h275l-48 -246h-275z" />
<glyph unicode="&#x231;" d="M88 0zM88 0zM643 1585h272l-47 -246h-274zM850 684q0 109 -46.5 168t-131.5 59q-123 0 -206 -136t-83 -341q0 -106 48.5 -166.5t131.5 -60.5q121 0 204 136.5t83 340.5zM88 426q0 322 166.5 522.5t433.5 200.5q215 0 336 -120.5t121 -334.5q0 -323 -166.5 -523 t-433.5 -200q-215 0 -336 120.5t-121 334.5zM493 1871h631l-37 -188h-631z" />
<glyph unicode="&#x232;" d="M145 0zM145 1493h293l187 -649l411 649h322l-633 -905l-115 -588h-293l115 588zM519 1870h631l-36 -188h-631z" />
<glyph unicode="&#x233;" d="M0 0zM551 -121q-112 -198 -193.5 -250.5t-207.5 -52.5h-240l45 223h117q87 0 137 30t110 142l39 74l-217 1075h297l127 -700l383 700h309zM459 1556h631l-37 -188h-631z" />
<glyph unicode="&#x234;" d="M821 216q4 -6 49 -5q103 0 116 66.5t-29 66.5q-51 0 -136 -128zM652 200l96 154q133 234 258 234q154 0 108 -240q-72 -377 -317 -377q-116 0 -117 10l-66 -121h-145q20 49 57 115q-154 16 -211 104q-70 108 -21 359l173 893h-297l44 225h590l-217 -1118q-26 -132 4 -187 q21 -38 61 -51z" />
<glyph unicode="&#x235;" d="M926 216q3 -6 39 -5q83 0 95.5 66.5t-20.5 66.5q-41 0 -114 -128zM816 248l57 106q116 234 215 234q123 0 77 -240q-72 -377 -267 -377q-94 0 -94 10l-57 -121h-117q19 49 50 115q-122 16 -164 104q-52 108 -3 359l47 244q26 131 15 174q-12 53 -39 53q-63 0 -108 -71 q-50 -81 -73 -197l-125 -641h-291l218 1120h291l-21 -108q26 51 63 84q57 51 141 51q127 0 198 -105.5t31 -314.5l-56 -289q-33 -168 12 -190z" />
<glyph unicode="&#x236;" d="M770 216q2 -6 38 -5q83 0 96 66.5t-21 66.5q-41 0 -113 -128zM647 438q-33 -168 12 -190l58 106q115 234 215 234q123 0 77 -240q-72 -377 -268 -377q-94 0 -94 10l-57 -121h-116q18 49 50 115q-123 16 -165 104q-52 108 -3 359l89 457h-286l44 225h286l61 318h293 l-61 -318h383l-44 -225h-383z" />
<glyph unicode="&#x237;" d="M733 43q-33 -167 -63.5 -238.5t-77.5 -117.5q-59 -59 -140 -85t-208 -26h-307l45 225h231q100 0 151 53.5t76 188.5l166 852h-297l43 225h590z" />
<glyph unicode="&#x238;" d="M188.5 557q-31.5 -162 -11.5 -254t86.5 -92t123 92t88 254t10.5 254t-87.5 92t-122 -92t-87 -254zM964.5 557q31.5 162 11.5 254t-86.5 92t-123 -92t-88 -254t-11 -254t87 -92t122.5 92t87.5 254zM757 961q56 93 115 139.5t122 46.5q139 0 185 -152t-9 -436 q-55 -280 -159 -434t-238 -154q-71 0 -114 49t-56 146l-33 -166h-204l32 166q-52 -97 -113.5 -146t-132.5 -49q-134 0 -178.5 154t10.5 434q55 284 160 436t244 152q63 0 104 -46.5t61 -139.5l115 595h205z" />
<glyph unicode="&#x239;" d="M1044.5 561q31.5 162 11.5 254t-86.5 92t-123 -92t-88 -254t-10.5 -254t87.5 -92t122 92t87 254zM268.5 561q-31.5 -162 -11.5 -254t86.5 -92t123 92t88 254t11 254t-87 92t-122.5 -92t-87.5 -254zM476 157q-56 -93 -115 -139.5t-122 -46.5q-139 0 -185 152t9 436 q55 280 159 434t238 154q71 0 114 -49t56 -146l33 166h204l-32 -166q52 97 113.5 146t132.5 49q134 0 178.5 -154t-10.5 -434q-55 -284 -160 -436t-244 -152q-63 0 -104 46.5t-61 139.5l-115 -595h-205z" />
<glyph unicode="&#x23a;" d="M581 1493h361l16 -221l259 287l139 -115l-379 -421l78 -1023h-295l-21 369h-351l-85 -94l-120 -275h-128l-57 -63l-77 63h-33l9 20l-38 31l108 121zM716 1003l-8 220l-181 -430zM607 612h123l-5 131z" />
<glyph unicode="&#x23b;" d="M453 711l486 539q-30 5 -54 5q-162 0 -269.5 -128.5t-157.5 -381.5v-25q-2 -4 -5 -9zM944 43q-77 -36 -157.5 -54t-165.5 -18q-297 0 -418 193l-205 -227l-139 114l275 305q-27 163 17 389q74 377 271.5 576t499.5 199q85 0 160 -18q34 -8 65 -20l70 77l139 -115 l-178 -198l-25 -126q-23 26 -46 47l-662 -734q8 -38 22 -69q57 -128 219 -128q76 0 154 32.5t168 102.5z" />
<glyph unicode="&#x23c;" d="M33 -117l-116 119l254 245q-38 130 -3 312q54 277 231.5 433.5t436.5 156.5q90 0 169 -21q30 -8 59 -19l130 126l116 -121l-174 -167l-29 -152q-32 33 -70 56l-554 -534q4 -8 9 -16q59 -90 202 -90q85 0 164.5 28.5t157.5 86.5l-53 -269q-82 -43 -171 -64.5t-187 -21.5 q-233 0 -350 126zM459 526l397 382q-13 1 -26 1q-143 0 -237.5 -91t-127.5 -259q-3 -17 -6 -33z" />
<glyph unicode="&#x23d;" d="M275 730l149 763h295l-149 -763h244l-37 -192h-244l-54 -278h631l-51 -260h-926l105 538h-250l37 192h250z" />
<glyph unicode="&#x23e;" d="M324 0l68 354l-376 -417l-139 114l582 647l105 537h-379l50 258h940l60 66l139 -115l-122 -136l-14 -73h-52l-417 -463l-150 -772h-295zM835 1116l108 119h-84z" />
<glyph unicode="&#x23f;" d="M1138 1085l-50 -256q-70 52 -152.5 78.5t-170.5 26.5q-98 0 -153.5 -28.5t-66.5 -84.5q-16 -80 189 -130l10 -3l80 -20q153 -38 211 -122.5t30 -228.5q-34 -173 -164 -259.5t-358 -86.5q-23 0 -46 1l93 -165q45 -80 203 -80h145l-42 -219h-137q-280 0 -377 173l-131 233 q-7 12 -117 127l50 256q86 -55 181 -84t189 -29q103 0 162 30t70 87q11 56 -21 86t-166 64l-77 18q-161 38 -222.5 119t-34.5 217q31 162 165.5 252t346.5 90q95 0 186.5 -15.5t174.5 -46.5z" />
<glyph unicode="&#x240;" d="M343 1120h895l-45 -229l-808 -751q43 -41 77 -100l130 -233q45 -80 204 -80h171l-43 -219h-163q-280 0 -377 173l-130 233q-48 86 -153 86l44 229l721 672h-566z" />
<glyph unicode="&#x241;" d="M549 1213h-80q-43 0 -63 -21q-38 -36 -50 -84q-3 -13 -10 -47h-255l15 77q30 155 91 221q23 24 61 52q87 63 228 77q49 4 117 4l155 1q284 1 413 -127q128 -126 83 -360q-46 -235 -223 -361.5t-462 -126.5l-101 -518h-295l155 797h342q112 0 183.5 54.5t91 154.5 t-31.5 154q-50 54 -162 54z" />
<glyph unicode="&#x244;" d="M45 352q0 84 20 186h-82l38 192h82l149 763h295l-149 -763h430l149 763h295l-150 -763h90l-38 -192h-90q-34 -172 -73 -262t-109 -158q-148 -147 -384.5 -147t-354.5 99t-118 282zM340 403q0 -82 46 -127t142 -45q200 0 250 246l12 61h-430q-14 -64 -20 -135z" />
<glyph unicode="&#x245;" d="M715 1251l-506 -1251h-301l645 1493h412l65 -1493h-291z" />
<glyph unicode="&#x24c;" d="M535 590h-74l-115 -590h-295l115 590h-175l48 248h175l127 655h368q232 0 344 -87.5t112 -268.5q0 -187 -98 -299.5t-279 -132.5q61 -9 95 -45t61 -123l164 -537h-301l-106 376q-3 10 -8 27q-55 187 -158 187zM509 838h81q135 0 204.5 64t69.5 188q0 78 -46 116.5 t-138 38.5h-92z" />
<glyph unicode="&#x24d;" d="M1172 811q-40 44 -100 66t-137 22q-93 0 -169 -32.5t-126 -94.5q-31 -38 -51 -92q-8 -20 -15 -48h378l-38 -194h-382l-85 -438h-293l85 438h-99l38 194h99l95 488h293l-34 -174q62 96 161 148.5t218 52.5q60 0 114.5 -14.5t101.5 -42.5z" />
<glyph unicode="&#x250;" d="M524 592q164 0 237 42q74 42 94 144q14 76 -23 121q-35 45 -113 45q-116 0 -197 -88q-81 -87 -112 -244l-4 -20h118zM94 479l125 639h290l-25 -125q69 74 159 114q91 40 191 40q190 0 277.5 -101t52.5 -282q-38 -196 -185 -290q-144 -93 -410 -93h-204l-9 -49 q-14 -71 31 -108q45 -36 145 -36q104 0 208 26q104 27 221 85l-48 -250q-104 -40 -207.5 -59t-215.5 -19q-274 0 -362.5 111t-33.5 397z" />
<glyph unicode="&#x251;" d="M899 961l31 158h292l-218 -1119h-292l33 166q-66 -97 -150 -146t-185 -49q-192 0 -268 154t-22 434q55 284 193 436q136 152 335 152q90 0 153 -47q62 -46 98 -139zM412.5 557q-31.5 -162 4.5 -254t131 -92t168 92t104.5 254t-5.5 254t-132 92t-167 -92t-103.5 -254z" />
<glyph unicode="&#x252;" d="M334 157l-31 -158h-292l218 1119h292l-33 -166q66 97 151 146q83 49 184 49q192 0 268 -154t22 -434q-55 -284 -192 -436t-336 -152q-90 0 -152 47q-63 46 -99 139zM820.5 561q31.5 162 -4.5 254t-131 92t-168 -92t-104.5 -254t5.5 -254t132 -92t167 92t103.5 254z" />
<glyph unicode="&#x253;" d="M450 961q73 93 154 139q80 47 170 47q199 0 277 -152t22 -436q-54 -280 -190 -434t-328 -154q-101 0 -166.5 49t-92.5 146l-32 -166h-292l211 1088q49 252 161 359q111 108 321 108h121l-44 -225h-39q-100 0 -151.5 -55t-77.5 -187h1zM779.5 557q31.5 162 -4.5 254 t-131 92t-168 -92t-104.5 -254t6 -254t132.5 -92t166.5 92t103 254z" />
<glyph unicode="&#x254;" d="M72 57l53 269q54 -58 123 -86q68 -29 153 -29q143 0 237.5 90t127 258t-26.5 259t-202 91q-82 0 -165 -29q-82 -30 -156 -85l52 268q91 44 178 65q88 21 178 21q259 0 376 -157q117 -156 63 -433q-54 -276 -230 -432t-435 -156q-98 0 -179 21q-81 22 -147 65z" />
<glyph unicode="&#x255;" d="M609 232q52 -24 106 -25h5q147 0 157 57q14 75 -117 75q-83 0 -151 -107zM474 334l6 17q138 181 307 181q285 -5 243 -238q-58 -323 -373 -323q-102 0 -105 1q-3 0 -6 1l-22 -114l-200 1q18 93 33 164q-74 38 -122 103q-116 156 -62 432q53 277 231 433q178 157 436 157 q90 0 169 -21q81 -21 155 -65l-52 -268q-54 55 -125 85q-70 29 -152 29q-143 0 -238 -91t-127 -259q-30 -154 4 -225z" />
<glyph unicode="&#x256;" d="M355.5 557q-31.5 -162 -6.5 -254t101 -92t138 92t93.5 254t5 254t-102.5 92t-136.5 -92t-92 -254zM760 961l115 595h291l-276 -1420q-26 -132 -14.5 -187t65.5 -55h20l-43 -225h-97q-168 0 -219 108q-52 107 -3 359l6 30q-56 -97 -125 -146t-150 -49q-180 0 -249 154 t-14 434q55 284 185 436t316 152q71 0 119 -47q48 -46 73 -139z" />
<glyph unicode="&#x257;" d="M324.5 557q-31.5 -162 -6 -254t101.5 -92t137.5 92t93 254t5.5 254t-102 92t-137 -92t-92.5 -254zM1052 1088l-212 -1088h-297l32 166q-56 -97 -125.5 -146t-150.5 -49q-182 0 -252.5 154t-15.5 434q55 284 186 436t320 152q72 0 120 -47q48 -46 72 -139l27 127 q54 256 143 359q93 108 261 108h97l-44 -225h-21q-52 0 -83 -55q-31 -53 -57 -187z" />
<glyph unicode="&#x258;" d="M37 55l52 269q95 -63 187.5 -92t193.5 -29q153 0 242.5 65t116.5 197h-759l23 119q52 268 219 416q165 147 414 147q247 0 359 -159t59 -433q-55 -283 -233 -433q-177 -151 -458 -151q-118 0 -220 21t-196 63zM407 685l461 -1q11 113 -37 174q-48 62 -149 62 q-112 0 -181 -60q-69 -59 -94 -175z" />
<glyph unicode="&#x259;" d="M233 1063q110 42 220 63t228 21q281 0 400 -151q120 -150 65 -433q-53 -274 -227 -433t-421 -159q-249 0 -358 147q-109 148 -57 416l23 119h759q25 132 -39.5 197t-217.5 65q-101 0 -204.5 -29t-222.5 -92zM359 433q-21 -116 24 -175q47 -60 159 -60q101 0 173 62 q72 61 105 174z" />
<glyph unicode="&#x25a;" d="M603 540l-365 -245q3 -12 9 -23q33 -63 105 -63q78 0 138 59q60 58 93 168zM903 736q0 -81 -19 -177q-53 -274 -207.5 -431t-372.5 -157q-198 0 -286 159q-48 86 -55 204l663 443q-8 41 -28 69q-47 63 -151 63q-85 0 -180 -33q-96 -34 -203 -102l53 276q106 48 205 72 q100 25 195 25q228 0 325 -155q15 -23 25 -50l191 130l150 2l-33 -171q-44 -225 -42 -232q18 -55 71 -55h33l-35 -180h-72q-113 0 -150 111q-7 91 26 257z" />
<glyph unicode="&#x25b;" d="M426 573q-135 26 -194 90q-61 66 -44 153q34 173 189.5 252t396.5 79q93 0 194 -12q104 -12 220 -36l-46 -236q-130 31 -212 40q-105 12 -109 12q-122 0 -177 -24q-93 -38 -102 -87q-13 -69 64 -99q57 -24 161 -24h117l-43 -219h-183q-50 0 -118 -21q-102 -32 -117 -111 q-17 -89 81 -114q32 -15 145 -15q114 0 222 18q109 17 203 51l-46 -236q-116 -28 -223 -42q-108 -14 -206 -14q-295 0 -434 91q-141 92 -119 204q25 129 124.5 203t255.5 97z" />
<glyph unicode="&#x25c;" d="M811 573q148 -23 218.5 -97t45.5 -203q-22 -112 -199 -204q-175 -91 -470 -91q-98 0 -200 14q-101 14 -207 42l46 236q82 -34 183 -51q102 -18 216 -18q113 0 151 15q108 25 125 114q15 79 -75 111q-60 21 -110 21h-183l43 219h117q104 0 171 24q89 30 102 99 q9 49 -68 87q-45 24 -167 24q-4 0 -115 -12q-86 -9 -228 -40l46 236q126 24 234 36q107 12 200 12q241 0 365.5 -79t90.5 -252q-17 -87 -102 -153q-85 -64 -230 -90z" />
<glyph unicode="&#x25d;" d="M581 573q110 -23 158 -97q50 -74 25 -203q-22 -112 -159 -204q-135 -91 -357 -91q-74 0 -149 14t-154 42l46 236q61 -34 135 -51q76 -18 161 -18q72 0 114 15q83 30 100 114q15 79 -52 111q-43 21 -81 21h-137l43 219h88q75 0 129 24q69 30 82 99q9 46 -47 87 q-33 24 -124 24q-3 0 -88 -12q-64 -9 -172 -40l46 236q95 24 177 36t151 12q180 0 269 -79q53 -46 63 -124l184 128l150 2l-33 -171q-41 -213 -36 -232q17 -55 49 -55h33l-35 -180h-72q-90 0 -128 111q-12 91 20 257l-269 -181l-1 3q-55 -36 -129 -53z" />
<glyph unicode="&#x25e;" d="M720 915q-265 0 -337 -363q-71 -364 227 -364q70 0 116 28q60 37 72 100q14 72 -38 104q-33 22 -107 22h-132l42 219h133q64 0 111 23q69 34 84 108q10 55 -42 90q-50 34 -129 33zM515 1099q98 45 296 46q208 0 303 -86q93 -87 64 -235q-19 -98 -92 -174 q-70 -72 -210 -98q126 -26 172 -99q44 -71 24 -174q-29 -148 -155 -234t-336 -87q-199 -1 -276 60q-261 202 -197 534q77 396 407 547z" />
<glyph unicode="&#x25f;" d="M791 43q-49 -252 -160.5 -359.5t-321.5 -107.5h-316l44 225h234q98 0 149.5 55t77.5 187l76 395h-279l38 194h279l51 263h-297l44 225h590l-95 -488h202l-38 -194h-202z" />
<glyph unicode="&#x260;" d="M565 887q-89 0 -154 -82q-66 -82 -95 -232q-30 -154 2 -233q33 -80 125 -80q90 0 155 82q66 82 95 231l61 314h-189zM618 190q-78 -98 -159 -144q-80 -46 -173 -46q-164 0 -240 162q-76 161 -27 411q43 226 182 387q139 160 303 160h295h2q45 204 149 318 q110 118 234 118h225l-46 -235h-133q-42 0 -81 -46q-40 -46 -66 -181l-43 -220h-1l-148 -761q-49 -254 -214 -397q-164 -142 -423 -142q-84 0 -160 16q-74 16 -147 49l51 263q65 -54 132 -80q66 -27 139 -27q141 0 221 77q81 77 113 241z" />
<glyph unicode="&#x261;" d="M783 190q-80 -98 -161.5 -144t-176.5 -46q-169 0 -247 162q-79 161 -30 411q44 226 185 387q140 160 309 160h302h295l-195 -1007q-50 -254 -217 -397q-167 -142 -433 -142q-86 0 -163 16q-78 16 -153 49l52 263q66 -54 135 -80q69 -27 143 -27q145 0 227 77t114 241z M726 887q-91 0 -158 -82t-96 -232q-30 -154 4 -233q33 -80 128 -80q91 0 158 82t96 231l61 314h-193z" />
<glyph unicode="&#x262;" d="M990 101q-103 -50 -209 -76q-105 -25 -212 -25q-242 0 -353 151q-112 150 -62 408q51 261 224 411q173 149 423 149q96 0 181 -20q84 -20 155 -60l-46 -236q-71 49 -146 73q-77 24 -157 24q-149 0 -247 -89q-97 -88 -129 -252q-32 -162 28 -251q61 -89 204 -89q39 0 74 6 q34 5 63 16l31 168h-248l43 221h486z" />
<glyph unicode="&#x263;" d="M836 590q168 -382 95 -769q-44 -232 -454 -236q-451 -5 -405 236q66 342 414 767l-237 547h323l129 -332l262 332h323zM617 369q-251 -310 -273 -436q-22 -124 159 -124q174 0 198 124q31 162 -84 436z" />
<glyph unicode="&#x264;" d="M543 136q45 0 62 87q12 59 -18 131q-59 -74 -70 -131q-16 -83 26 -87zM454 586l-235 534h323l129 -332l262 332h323l-451 -545q104 -239 65 -443q-46 -252 -374 -252q-337 0 -288 252q42 212 246 454z" />
<glyph unicode="&#x265;" d="M177 391l141 727h291l-132 -682q-24 -121 0 -173q25 -52 103 -52q80 0 139 71q58 70 83 195l124 641h291l-302 -1556h-291l117 604q-49 -93 -134 -144t-191 -51q-159 0 -219 105q-61 106 -20 315z" />
<glyph unicode="&#x266;" d="M1056 727l-141 -727h-291l132 682q24 121 -1 173q-24 52 -102 52q-80 0 -139 -71q-58 -70 -83 -195l-124 -641h-291l211 1088q49 252 161 359q111 108 321 108h121l-44 -225h-39q-100 0 -151.5 -55t-77.5 -187l-26 -136q49 93 134 144t191 51q159 0 219 -105 q61 -106 20 -315z" />
<glyph unicode="&#x267;" d="M673 41l125 641q23 121 -2 173q-23 52 -101 52q-80 0 -139 -71q-59 -70 -83 -195l-125 -641h-291l212 1088q49 252 161 359q111 108 321 108h121l-44 -225h-39q-100 0 -152 -55t-77 -187l-27 -136q49 93 134 144t191 51q159 0 220 -105q60 -106 20 -315l-142 -727 q-50 -220 -153 -318q-111 -108 -321 -108h-121l44 225h39q100 0 152 55t77 187z" />
<glyph unicode="&#x268;" d="M557 1556h358l-57 -292h-358zM250 1120h580l-94 -488h202l-38 -194h-202l-41 -213h364l-44 -225h-1022l44 225h364l41 213h-64h-214l38 194h278l51 263h-286z" />
<glyph unicode="&#x269;" d="M495 895h-286l44 225h580l-128 -660q-28 -142 1 -188q30 -45 131 -46l186 -1l-44 -228h-234q-205 0 -291 118q-87 120 -43 344z" />
<glyph unicode="&#x26a;" d="M829 895l-130 -670h364l-44 -225h-1022l44 225h364l130 670h-364l44 225h1022l-44 -225h-364z" />
<glyph unicode="&#x26b;" d="M1151 811l-45 -233q-86 -60 -164 -88q-77 -27 -155 -27q-54 0 -112 18l-3 -16q-26 -132 3 -187q32 -55 130 -55h234l-44 -225h-316q-210 0 -279 108q-71 108 -22 359l22 117q-28 4 -57 4q-78 0 -153.5 -29t-161.5 -92l44 229q90 61 167 88q79 27 161 27q23 0 44 -2 l101 522h-296l44 225h590l-164 -845q66 -23 128 -23q70 0 143 30q76 31 161 95z" />
<glyph unicode="&#x26c;" d="M393 816q-23 26 -54 26q-59 0 -67 -50q-10 -56 40 -56h96q0 63 -15 80zM672 579l-21 -112q-26 -132 4.5 -187t128.5 -55h234l-44 -225h-316q-209 0 -279 108t-21 359l21 111h-123q-184 1 -146 208q43 234 252 233q64 -1 95 -42l68 354h-297l44 225h590l-159 -820h269 l-30 -156z" />
<glyph unicode="&#x26d;" d="M308 23l255 1308h-298l43 225h590l-298 -1533q-25 -132 6 -187q29 -55 127 -55h234l-43 -225h-316q-208 0 -279 108q-69 108 -21 359z" />
<glyph unicode="&#x26e;" d="M577 452l380 449h-422l-84 -434q-26 -132 -5.5 -187t93.5 -55h176l-44 -225h-237q-157 0 -204 108t1 359l168 864h-222l43 225h443l-85 -436h668l-44 -229l-382 -455q107 -9 161 -32q77 -33 114 -146q34 -102 6 -245q-43 -222 -180 -337q-138 -116 -358 -116 q-77 0 -152 18q-74 19 -144 56l58 297q61 -53 129 -81t136 -28q104 0 169 53t84 152q20 102 -26 155q-46 52 -156 52h-126z" />
<glyph unicode="&#x26f;" d="M461 112q-47 -71 -104.5 -105t-131.5 -34q-145 0 -181 100q-37 100 25 416l122 631h240l-139 -719q-25 -125 -14 -167t61 -42t78.5 43t52.5 166l139 719h237l-139 -719q-24 -123 -12.5 -166t61.5 -43t77 42t52 167l139 719h240l-217 -1120h-213l22 116q-38 -66 -100 -104 q-62 -39 -130 -39t-117 41q-48 40 -48 98z" />
<glyph unicode="&#x270;" d="M499 112q-46 -71 -104 -105t-132 -34q-145 0 -180 100q-37 100 25 416l122 631h240l-140 -719q-24 -125 -13 -167t61 -42t78.5 43t51.5 166l140 719h237l-140 -719q-23 -123 -11.5 -166t61.5 -43t77 42t51 167l140 719h240l-300 -1546h-213l105 542q-38 -66 -100 -104 q-63 -39 -131 -39t-116 41q-48 40 -49 98z" />
<glyph unicode="&#x271;" d="M814 1008q47 70 104 105q57 34 132 34q146 0 181 -100q36 -100 -25 -416l-123 -631q-47 -218 -137 -318q-94 -108 -269 -108h-99l44 225h32q82 0 127 55q44 55 70 187l132 678q24 126 13 167q-11 42 -61 42t-78 -43q-29 -45 -52 -166l-140 -719h-237l140 719 q23 121 12 166q-11 43 -62 43q-49 0 -77 -42q-27 -41 -51 -167l-140 -719h-240l218 1120h213l-23 -116q39 68 100 104q63 39 131 39t116 -41t49 -98z" />
<glyph unicode="&#x272;" d="M1233 682l-133 -682h-297l22 111l80 411q28 145 34 200q5 55 -3 81q-11 35 -37 55q-26 19 -64 19q-92 0 -162 -87q-70 -86 -99 -239l-61 -311l-43 -220l-4 -20q-39 -203 -152 -324q-112 -118 -282 -118h-122l45 235h28q82 0 124 46t68 181l43 220l171 880h295l-32 -164 q86 98 170 144q84 47 175 47q160 0 220 -119t16 -346z" />
<glyph unicode="&#x273;" d="M767 722q9 45 -3 81t-37 55t-64 19q-85 0 -162 -87q-68 -75 -99 -239l-108 -551h-295l218 1120h295l-32 -164q86 98 170 144q85 47 175 47q161 0 220 -119q60 -120 16 -346l-129 -662q-26 -134 -4 -181q21 -46 106 -46h22l-45 -235h-117q-169 0 -235 118q-71 128 -33 324 z" />
<glyph unicode="&#x274;" d="M229 1120h387l150 -651l127 651h329l-218 -1120h-387l-150 651l-127 -651h-329z" />
<glyph unicode="&#x275;" d="M98 559q53 271 223 429q172 159 409 159q238 0 347 -159q111 -158 58 -429t-224 -429q-171 -159 -409 -159q-237 0 -347 159q-110 158 -57 429zM684 909q-105 0 -183 -93q-60 -71 -93 -184h408h37q11 113 -21 184q-42 93 -148 93zM809 438h-389h-43q-1 -81 24 -136 q42 -93 147 -93q106 0 184 93q47 55 77 136z" />
<glyph unicode="&#x276;" d="M689 902h-75q-117 0 -191.5 -85t-108.5 -256q-33 -172 8 -257q42 -86 159 -86h75zM684 1120h571l-42 -218h-281l-41 -209h262l-42 -218h-262l-50 -257h293l-43 -218h-583q-6 0 -18 -1t-18 -1q-224 0 -315.5 146t-39.5 417q53 270 201 415t372 145q5 0 18 -1h18z" />
<glyph unicode="&#x277;" d="M809 566q68 353 -127 354q-197 0 -267 -356q-31 -160 -29.5 -230t21.5 -70q31 0 56 78q18 57 36 148l21 106h197l-21 -108q-19 -96 -21 -141q-3 -83 21 -83q24 -1 51 79q41 118 62 223zM1156 828q21 -103 -23 -332q-47 -241 -149 -368q-103 -128 -236 -128q-89 0 -144 68 q-52 64 -45 220q-54 -151 -132 -220q-77 -68 -170 -68q-133 0 -185 128q-54 126 -8 368q41 213 108 332q193 348 559 348q356 0 425 -348z" />
<glyph unicode="&#x278;" d="M18.5 559q52.5 271 245.5 429q137 114 316 146l39 201h-297l44 225h297h293h297l-44 -225h-297l-39 -201q167 -32 260 -146q131 -158 78.5 -429t-245.5 -429q-137 -114 -316 -146l-36 -185h297l-44 -225h-297h-293h-297l44 225h297l36 185q-167 32 -260 146 q-131 158 -78.5 429zM408 246l121 626q-39 -22 -74 -56q-93 -92 -125.5 -257t25.5 -257q22 -34 53 -56zM822 871l-121 -624q39 21 74 55q93 92 125 257t-26 257q-21 34 -52 55z" />
<glyph unicode="&#x279;" d="M140 309q39 -44 100 -66t137 -22q94 0 169 33q75 32 125 94q32 38 52.5 92t41.5 164l100 516h292l-217 -1120h-292l34 174q-63 -96 -161 -148q-100 -53 -218 -53q-60 0 -116 15q-55 14 -101 42z" />
<glyph unicode="&#x27a;" d="M98 309q39 -44 100 -66t137 -22q94 0 169 33q75 32 125 94q30 35 52 92q19 47 42 164l185 950h292l-302 -1554h-292l33 174q-62 -96 -160 -148q-101 -53 -219 -53q-60 0 -115 15q-55 14 -102 42z" />
<glyph unicode="&#x27b;" d="M70 309q39 -44 100 -66q60 -22 137 -22q93 0 169 33q75 32 125 94q32 38 51 92q21 54 42 164l100 516h293l-218 -1120q-18 -92 11 -146q30 -55 130 -55h39l-43 -225h-121q-210 0 -279 108q-65 98 -29 318v0l8 41l25 133q-61 -96 -160 -148q-100 -53 -219 -53 q-60 0 -115 15q-54 14 -101 42z" />
<glyph unicode="&#x27c;" d="M1134 811q-40 44 -99.5 66t-137.5 22q-92 0 -169 -33q-76 -32 -126 -94q-31 -38 -50.5 -92t-41.5 -164l-183 -942h-294l301 1546h294l-34 -174q60 96 161 148q98 53 218 53q60 0 114 -15q54 -14 101 -42z" />
<glyph unicode="&#x27d;" d="M1134 811q-40 44 -99.5 66t-137.5 22q-92 0 -169 -33q-76 -32 -126 -94q-31 -38 -50.5 -92t-41.5 -164l-92 -475q-26 -132 4 -187t133 -55h38l-44 -225h-120q-210 0 -279 108q-74 112 -26 359l210 1079h294l-34 -174q60 96 161 148q98 53 218 53q60 0 114 -15 q54 -14 101 -42z" />
<glyph unicode="&#x27e;" d="M27 0l44 225h286l100 516q43 218 146 299q106 80 358 80h246l-44 -225h-226q-84 0 -127 -33q-44 -32 -58 -107l-103 -530h384l-44 -225h-962z" />
<glyph unicode="&#x27f;" d="M27 0l44 225h382l103 530q14 75 -15 107q-30 33 -116 33h-224l44 225h246q252 0 324 -80q75 -81 32 -299l-100 -516h286l-44 -225h-962z" />
<glyph unicode="&#x280;" d="M698 529q40 -8 66 -31q48 -45 64 -71q8 -12 13 -24l178 -403h-352l-115 283q-6 12 -13 33q-36 87 -70 110q-24 16 -60 16h-18l-86 -442h-310l218 1120h364q273 0 377 -77q105 -76 71 -249q-22 -116 -107 -184q-83 -67 -220 -81zM479 894l-48 -246h62q87 0 134 28l13 8 q57 40 69 98q7 37 -19 62q-6 6 -16 14q-37 32 -102 35q-14 1 -31 1h-62z" />
<glyph unicode="&#x281;" d="M488 490h-79l-52 -271h79q91 0 136 30q46 32 60 104q14 73 -20 105q-33 32 -124 32zM452 711h37q75 0 126 31q49 29 100 100l199 278h363l-229 -318q-70 -97 -129 -144q-59 -48 -125 -62q109 -33 152 -104q43 -72 21 -183q-31 -160 -155 -235q-125 -74 -361 -74h-495 l218 1120h358z" />
<glyph unicode="&#x282;" d="M1129 1085l-50 -256q-71 52 -153 79q-83 26 -171 26q-98 0 -153 -28q-56 -29 -66 -85q-16 -80 188 -130l11 -3l80 -20q152 -38 211 -122q58 -85 30 -229q-34 -173 -165 -259q-130 -87 -358 -87q-63 0 -127 7q-8 -83 15 -124q30 -55 130 -55h39l-44 -225h-121 q-210 0 -279 108q-70 107 -21 359l50 256q86 -55 180 -84q96 -29 190 -29q103 0 161.5 30t69.5 87q11 56 -21 86q-31 30 -165 64l-78 18q-161 38 -222 119t-35 217q32 162 166.5 252t346.5 90q95 0 186 -15q92 -16 175 -47z" />
<glyph unicode="&#x283;" d="M688 0q-48 -217 -151 -316q-113 -108 -322 -108h-316l43 225h234q99 0 150 55q52 56 77 187l225 1155q39 202 138 280t327 78h241l-43 -225h-229q-67 0 -94 -24q-29 -25 -43 -89z" />
<glyph unicode="&#x284;" d="M773 438l-85 -438h-1q-49 -218 -151 -316q-111 -108 -321 -108h-316l43 225h234q98 0 150 55t77 187l77 395h-279l38 194h279l51 263h-297l44 225h297l15 78q39 202 138 280t327 78h241l-43 -225h-229q-66 0 -94.5 -24t-42.5 -89l-114 -586h202l-38 -194h-202z" />
<glyph unicode="&#x285;" d="M325 0l237 1218q11 64 -9 89q-18 24 -84 24h-229l43 225h241q228 0 297 -78t30 -280l-225 -1155q-25 -131 5 -187q29 -55 128 -55h234l-43 -225h-316q-210 0 -280 108q-65 99 -29 316z" />
<glyph unicode="&#x286;" d="M716 145h139h168l-41 -210q-56 -1 -172 -1h-137q-44 -161 -136 -250q-113 -108 -322 -108h-50v1q-300 10 -241 292q57 276 364 276h135l205 1053q39 202 138 280t327 78h241l-43 -225h-229q-64 0 -94 -24q-31 -25 -43 -89zM373 -65h-125q-105 0 -120 -76q-11 -53 51 -58 q97 1 147 55q27 29 47 79zM179 -199h29h-29z" />
<glyph unicode="&#x287;" d="M378 -318l62 318h-382l44 225h382l103 530q14 75 -15 107q-30 33 -116 33h-224l44 225h246q252 0 324 -80q74 -81 32 -299l-100 -516h286l-44 -225h-286l-62 -318h-294z" />
<glyph unicode="&#x288;" d="M895 1438l-62 -318h384l-43 -225h-384l-186 -956q-15 -75 16 -107q31 -33 115 -33h226l-44 -225h-246q-252 0 -327 80q-72 81 -29 299l183 942h-286l43 225h286l62 318h292z" />
<glyph unicode="&#x289;" d="M1051 438l-85 -438h-294l32 166q-48 -93 -133 -144t-189 -51q-160 0 -221 106t-21 314l9 47h-82l38 194h82l95 488h294l-95 -488h314l95 488h294l-95 -488h72l-38 -194h-72zM756 438h-313v-2q-24 -121 0 -173t102 -52q80 0 138 70q48 59 73 157z" />
<glyph unicode="&#x28a;" d="M614 837q-79 -76 -125 -157q-65 -115 -86 -222q-27 -142 13 -230q40 -87 134 -87q95 0 168 87q74 88 101 230q21 107 0 222q-14 84 -64 156l55 284h457l-38 -197h-206q64 -59 107 -192q35 -108 5 -266q-50 -254 -226 -411q-177 -158 -409 -158q-231 0 -346.5 157 t-67.5 404q32 162 107 274q87 127 179 192h-206l38 197h465z" />
<glyph unicode="&#x28b;" d="M1068 1027q54 -59 87 -192q27 -108 -4 -266q-49 -254 -205 -411q-156 -158 -354 -158l-111 -2q-165 -3 -232 118q-67 120 -23 344l61 314l23 121h-161l44 225h161h293l-67 -346l-61 -314q-33 -169 -27 -181q23 -52 61 -48l18 2q96 0 182 97q79 88 106 230q21 107 -4 222 q-16 84 -70 156l33 182q171 -5 250 -93z" />
<glyph unicode="&#x28c;" d="M-29 0l574 1120h361l138 -1120h-297l-69 874l-410 -874h-297z" />
<glyph unicode="&#x28d;" d="M1124 0h-245l17 772l-283 -772h-211l17 764l-283 -764h-245l426 1120h276l-17 -770l282 770h276z" />
<glyph unicode="&#x28e;" d="M614 1241q90 158 186 231q97 72 215 72h242l-43 -223h-119q-90 0 -138 -31q-48 -30 -113 -141l-33 -60l214 -1089h-308l-115 727l-386 -727h-308z" />
<glyph unicode="&#x28f;" d="M177 1120h335l146 -345l279 345h337l-536 -648l-92 -472h-277l92 472z" />
<glyph unicode="&#x290;" d="M220 1120h896l-44 -229l-721 -672h590l-34 -178q-26 -132 3 -187q31 -55 131 -55h38l-43 -225h-120q-210 0 -279 108q-66 98 -30 318h-628l44 229l721 672h-566z" />
<glyph unicode="&#x291;" d="M795 220h39q38 0 52 57q19 71 -13 75q-45 6 -78 -132zM262 1120h895l-45 -229l-719 -672h217q46 118 113 209q127 171 204 171q202 0 153 -276q-59 -323 -302 -323h-32q-9 -48 -19 -112l-203 1q11 55 25 111h-529l45 229l720 672h-566z" />
<glyph unicode="&#x292;" d="M333 452l477 449h-566l43 219h895l-45 -229l-479 -455q143 -9 216 -32q107 -33 162 -146q51 -102 23 -245q-43 -222 -218 -337q-176 -116 -470 -116q-103 0 -203 18q-100 19 -195 56l57 297q87 -54 178 -81q90 -28 183 -28q138 0 221.5 53t102.5 152q20 102 -45 155 q-65 52 -212 52h-168z" />
<glyph unicode="&#x293;" d="M618 -125q-31 65 -217 74q-148 6 -165 -79q-11 -52 128 -53h25q99 2 155 21q42 14 74 37zM343 452l477 449h-566l43 219h895l-45 -229l-480 -455q144 -9 216 -32q107 -33 163 -146q50 -102 22 -245q-43 -222 -218 -337q9 -46 1 -86l-171 -6l2 12l-7 -1q-155 -35 -318 -35 l3 2h-2q-407 21 -346 322q57 275 429 275q180 0 289 -91q1 72 -50 114q-65 52 -212 52h-168z" />
<glyph unicode="&#x294;" d="M336 736h84q195 0 295 114q66 76 80 147q17 96 -21 162q-67 114 -228 114q-72 0 -148 -22q-74 -21 -152 -64l58 298q74 35 151 52q76 18 239 18q216 1 364 -210q93 -133 52 -348q-45 -231 -213 -376q-110 -94 -286 -125l-96 -496h-322z" />
<glyph unicode="&#x295;" d="M881 736l-143 -736h-322l96 496q-164 31 -236 125q-112 145 -67 376q41 215 186 348q230 211 446 210q163 0 233 -18q69 -17 131 -52l-58 -298q-62 43 -128 64q-68 22 -140 22q-161 0 -272 -114q-64 -66 -83 -162q-14 -71 22 -147q56 -114 251 -114h84z" />
<glyph unicode="&#x296;" d="M352 819l143 736h322l-96 -496q164 -31 236 -125q112 -145 67 -376q-41 -215 -186 -348q-230 -211 -446 -210q-163 0 -233 18q-69 17 -131 52l58 298q62 -43 128 -64q68 -22 140 -22q161 0 272 114q64 66 83 162q14 71 -22 147q-56 114 -251 114h-84z" />
<glyph unicode="&#x297;" d="M397 132q-18 -96 20 -162q67 -114 228 -114q72 0 149 22q74 21 152 64l-58 -298q-75 -35 -151 -52q-77 -18 -240 -18q-216 -1 -364 210q-93 133 -51 348l168 865q42 215 187 348q230 211 446 210q163 0 232 -18q70 -17 131 -52l-58 -298q-62 43 -128 64q-67 22 -139 22 q-161 0 -272 -114q-65 -67 -84 -162z" />
<glyph unicode="&#x298;" d="M325 566q-26 -134 42 -228q67 -94 188 -94q120 0 223.5 94t129.5 228q25 131 -42 228t-185 97q-121 0 -225 -97q-106 -97 -131 -228zM55 565q49 253 251 440q201 187 434 187q228 0 358 -187q129 -187 80 -440q-51 -259 -249 -440q-198 -182 -431 -182t-363 182 q-131 181 -80 440zM499 567q10 53 53 92q41 39 90 39q60 0 76 -39q25 -47 16 -92q-11 -54 -52 -92t-90 -38t-76 38q-28 38 -17 92z" />
<glyph unicode="&#x299;" d="M630 698q72 0 116 24q43 24 53 74q9 48 -24 74q-33 25 -107 25h-156l-38 -197h156zM556 262q94 0 146 25q52 26 62 77t-32 76t-136 25h-167l-40 -203h167zM912 599q94 -27 135 -99q41 -73 21 -179q-32 -162 -165 -241q-134 -80 -376 -80h-517l218 1120h468q252 0 351 -71 q99 -70 69 -225q-16 -82 -68 -140q-53 -57 -136 -85z" />
<glyph unicode="&#x29a;" d="M513 188q265 0 337 363q71 364 -227 364q-70 0 -116 -28q-60 -37 -72 -100q-14 -72 38 -104q33 -22 107 -22h132l-42 -219h-133q-64 0 -111 -23q-69 -34 -84 -108q-10 -55 42 -90q50 -34 129 -33zM718 4q-98 -45 -296 -46q-208 0 -303 86q-93 87 -64 235q19 98 92 174 q70 72 210 98q-126 26 -172 99q-44 71 -24 174q29 148 155 234t336 87q199 1 276 -60q261 -202 197 -534q-77 -396 -407 -547z" />
<glyph unicode="&#x29b;" d="M856 101q-104 -50 -209 -76q-105 -25 -212 -25q-242 0 -354 151q-113 150 -62 408q50 261 223 411q173 149 423 149q31 0 61 -2q50 229 155 330q111 108 321 108h121l-44 -225h-39q-100 0 -151.5 -55t-77.5 -187l-55 -285q-72 49 -147 73t-155 24q-149 0 -247 -89 q-99 -88 -130 -252q-32 -162 28.5 -251t203.5 -89q39 0 74 6q35 5 63 16l31 168h-248l43 221h486z" />
<glyph unicode="&#x29c;" d="M229 1120h326l-79 -405h341l79 405h326l-218 -1120h-326l90 463h-341l-90 -463h-326z" />
<glyph unicode="&#x29d;" d="M1109 1323h-293l66 342h293zM879 144h168l-40 -210q-57 -1 -173 -1h-1q-48 -166 -134 -249q-111 -107 -321 -108l-189 -1v1q-300 10 -241 292q57 276 364 276h273h1l146 751h-297l44 225h590zM536 -67q-21 1 -263 1q-105 0 -121 -76q-13 -64 81 -58l107 1q98 1 149 55 q27 28 47 77z" />
<glyph unicode="&#x29e;" d="M978 -426h-292l157 807l-426 -381h-356l505 418l-312 702h324l206 -524l119 96l83 428h292z" />
<glyph unicode="&#x29f;" d="M345 1120h324l-162 -829h439l-57 -291h-763z" />
<glyph unicode="&#x2a0;" d="M614 158q-59 -91 -128 -140q-66 -47 -138 -47q-189 0 -261.5 152t-16.5 436q54 280 184.5 434t312.5 154q82 0 133 -49q49 -49 68 -146l27 136h-2q48 250 143 359q93 108 261 108h97l-44 -225h-21q-54 0 -87 -55q-33 -54 -52 -155l-301 -1546h-289zM365.5 561 q-31.5 -162 -5.5 -254q25 -92 101 -92t138 92t93.5 254t5.5 254t-102 92t-137 -92q-62 -92 -93.5 -254z" />
<glyph unicode="&#x2a1;" d="M356 736h84q195 0 295 114q66 76 80 147q18 96 -21 162q-67 114 -228 114q-72 0 -148 -22q-74 -21 -152 -64l58 298q74 35 151 52q76 18 239 18q217 0 364 -210q93 -133 52 -348q-45 -231 -213 -376q-110 -94 -286 -125l-21 -112h32h201l-38 -194h-233l-37 -190h-322 l37 190h-4h-214l38 194h218z" />
<glyph unicode="&#x2a2;" d="M471 384l21 112q-164 31 -236 125q-112 145 -67 376q41 215 186 348q229 210 446 210q163 0 233 -18q69 -17 131 -52l-58 -298q-62 43 -128 64q-68 22 -140 22q-160 0 -272 -114q-65 -66 -83 -162q-14 -71 22 -147q56 -114 251 -114h84l-68 -352h218l-38 -194h-214h-4 l-37 -190h-322l37 190h-233l38 194h201h32z" />
<glyph unicode="&#x2a3;" d="M186.5 557q-31.5 -162 -17.5 -254q16 -92 73 -92t107.5 92t82 254t16.5 254t-72 92t-108 -92q-50 -92 -81.5 -254zM510 961l116 595h175l-85 -436h535l-44 -229l-484 -672h353l-42 -219h-535h-16h-159l32 166q-48 -97 -102 -146t-115 -49q-115 0 -148 154q-34 154 20 434 q55 284 150 436q94 152 213 152q54 0 87 -47q34 -46 49 -139zM674 901l-125 -642l463 642h-338z" />
<glyph unicode="&#x2a4;" d="M702 444l322 449h-338l-175 -901h-175l32 166q-47 -97 -101.5 -146t-114.5 -49q-115 0 -149 154t20 434q55 284 150 436q93 152 213 152q54 0 88 -47q34 -46 48 -139l116 595h175l-85 -436h535l-44 -229l-324 -455q87 -9 128 -32q62 -33 86 -146q23 -102 -5 -245 q-43 -222 -157 -337q-115 -116 -291 -116q-62 0 -120 18q-60 19 -114 56l58 297q49 -54 100 -81q53 -28 108 -28q83 0 137.5 53t73.5 152q20 102 -15 155q-35 52 -123 52h-101zM198.5 549q-31.5 -162 -16.5 -254t72 -92t107.5 92t82 254t16.5 254t-72 92t-107 -92 q-51 -92 -82.5 -254z" />
<glyph unicode="&#x2a5;" d="M949 220h23q22 0 36 57q17 71 -2 75q-27 6 -57 -132zM170.5 557q-31.5 -162 -15.5 -254q14 -92 71 -92t107.5 92t82 254t16.5 254t-72 92t-107 -92q-51 -92 -82.5 -254zM494 961l116 595h175l-85 -436h536l-44 -229l-485 -672h131q36 118 84 209q89 171 136 171 q121 0 69 -276q-60 -323 -205 -323h-19q-10 -48 -20 -112l-122 1q11 55 24 111h-302h-16h-159l32 166q-47 -97 -101 -146t-115 -49q-115 0 -149 154q-33 154 21 434q56 284 149 436q95 152 214 152q54 0 87 -47q35 -46 48 -139zM658 901l-125 -642l463 642h-338z" />
<glyph unicode="&#x2a6;" d="M1196 1085l-50 -256q-39 52 -85 79q-48 26 -101 26q-59 0 -95 -28q-35 -29 -46 -85q-14 -72 103 -130l7 -3l46 -20q89 -39 117 -122q28 -85 0 -229q-34 -173 -119 -259q-85 -87 -222 -87q-60 0 -120 17q-60 18 -117 52l-8 -40h-148q-151 0 -188 80q-39 81 4 299l100 516 h-171l44 225h171l62 318h176l-62 -318h230l-37 -189q32 75 82 126q88 90 215 90q57 0 111 -15q53 -16 101 -47zM548 225l14 72q47 -55 102 -84t111 -29q62 0 99.5 30t49.5 87q10 56 -7 86q-18 34 -94 64l-45 18q-94 37 -125 119q-30 81 -3 217q9 48 23 90h-223l-103 -530 q-15 -75 1 -107q16 -33 67 -33h133z" />
<glyph unicode="&#x2a7;" d="M654 1438l-62 -318h230l15 78q39 202 104 280q66 78 203 78h144l-43 -225h-137q-40 0 -59 -24t-32 -89l-19 -98l-44 -225l-166 -852l-8 -43q-47 -218 -115 -316q-76 -108 -202 -108h-189l43 225h140q59 0 94 55q30 46 52 144h-147q-151 0 -188 80q-39 81 4 299l100 516 h-171l44 225h171l62 318h176zM648 225l130 670h-230l-103 -530q-15 -75 1 -107q16 -33 67 -33h135z" />
<glyph unicode="&#x2a8;" d="M582 1438l-61 -318h230l-40 -204q23 41 50 76q119 157 274 157q54 0 100 -21t87 -65l-52 -268q-27 55 -68 85q-40 29 -89 29q-86 0 -150 -91t-96 -259q-30 -154 -15 -225l5 17q97 181 198 181q171 -5 127 -238q-60 -323 -248 -323q-62 0 -64 1q-1 0 -3 1l-22 -114l-120 1 q18 93 32 164q-41 38 -65 103q-12 35 -20 75l-39 -202h-148q-151 0 -190 80q-37 81 6 299l100 516h-172l44 225h172l61 318h176zM825 232q30 -24 62 -25h3q88 0 98 57q14 75 -64 75q-50 0 -99 -107zM700 895h-223l-103 -530q-15 -75 1 -107q16 -33 67 -33h127 q-19 136 20 334q38 199 111 336z" />
<glyph unicode="&#x2a9;" d="M540 1218l-19 -98h207h174l-33 -168q37 93 92 144t118 51q96 0 124 -105q28 -107 -13 -315l-133 -684q-49 -252 -124 -359q-75 -108 -201 -108h-72l43 225h23q60 0 96 55q35 55 60 187l125 639q23 122 13 174q-10 53 -57 53t-89 -71q-41 -71 -65 -197l-125 -641h-174 l174 895h-207l-174 -895h-176l174 895h-163l44 225h163l15 78q39 202 105 280q65 78 202 78h145l-43 -225h-138q-40 0 -59 -24t-32 -89z" />
<glyph unicode="&#x2aa;" d="M1197 1085l-49 -256q-38 52 -86 79q-47 26 -100 26q-59 0 -94 -28q-36 -29 -47 -85q-14 -72 103 -130l6 -3l46 -20q89 -39 118 -122q28 -85 0 -229q-33 -173 -118 -259q-85 -87 -222 -87q-61 0 -121 17q-60 18 -118 53l-8 -41h-190q-125 0 -159 108t14 359l168 864h-178 l44 225h354l-212 -1089q-25 -132 -11 -187q13 -55 72 -55h141l14 72q48 -55 102 -84t111 -29q62 0 99 30q38 30 49 87q11 56 -5 86q-20 34 -95 64l-45 18q-93 37 -124 119q-30 81 -4 217q32 162 119.5 252t214.5 90q57 0 111 -15q54 -16 100 -47z" />
<glyph unicode="&#x2ab;" d="M165 467l167 864h-178l44 225h354l-211 -1089q-26 -132 -12 -187q13 -55 72 -55h128l484 671h-340l42 219h537l-44 -229l-484 -672h353l-42 -219h-552l1 5h-175q-125 0 -159 108t15 359z" />
<glyph unicode="&#x2ac;" d="M51 627h223l36 -432l205 432h191l38 -428l204 428h222l-310 -627h-251l-37 431l-204 -431h-250zM185 1312h223l36 -432l205 432h191l37 -428l205 428h222l-310 -627h-251l-38 431l-203 -431h-250z" />
<glyph unicode="&#x2ad;" d="M319 177h-143l87 450h661l-87 -450h-143l57 297h-375zM452 862h-143l87 450h661l-87 -450h-143l58 297h-375z" />
<glyph unicode="&#x2ae;" d="M677 1118h2l-133 -682q-23 -121 1 -173t101 -52q80 0 140 71q58 71 82 195l125 641h292l-303 -1556h-292l118 604q-49 -93 -134 -144q-84 -51 -190 -51q-161 0 -220 105q-61 106 -21 315l136 697q25 129 -6 187q-31 55 -131 55h-38l44 225h120q210 0 279 -108 q66 -99 28 -329z" />
<glyph unicode="&#x2af;" d="M598 1118h2l-133 -682q-23 -121 -5.5 -173t79.5 -52q64 0 114 71q50 70 74 195l125 641h229l-210 -1077q-25 -132 -3 -187t102 -55h31l-44 -225h-97q-163 0 -216 108q-51 107 -2 359l25 125q-44 -93 -113.5 -144t-154.5 -51q-127 0 -172 105q-43 106 -3 315l136 697 q25 129 1 187q-22 55 -102 55h-31l44 225h97q168 0 219 -108q49 -101 8 -329z" />
<glyph unicode="&#x2b0;" d="M898 1075l-79 -407h-186l75 382q13 68 -3.5 97t-66.5 29q-51 0 -88 -39q-36 -40 -50 -110l-70 -359h-186l170 872h186l-66 -339q30 53 84 81q53 29 121 29q101 0 142 -59q40 -60 17 -177z" />
<glyph unicode="&#x2b1;" d="M898 1075l-79 -407h-186l75 382q13 68 -3.5 97t-66.5 29q-51 0 -87 -39q-37 -40 -51 -110l-70 -359h-186l119 609q27 141 98 201q69 61 204 61h77l-25 -126h-25q-64 0 -96 -31t-46 -105l-16 -76q30 52 84 81q53 28 121 28q101 0 141.5 -59t17.5 -176z" />
<glyph unicode="&#x2b2;" d="M780 623q-27 -141 -97 -201t-205 -60h-202l25 126h150q63 0 95 30q32 31 46 105l93 477h-190l24 126h378zM919 1340h-188l38 191h188z" />
<glyph unicode="&#x2b3;" d="M918 1122q-26 25 -65 37q-40 13 -89 13q-62 0 -107 -18q-51 -20 -79 -53q-20 -22 -31.5 -52t-23.5 -92l-56 -289h-188l122 628h188l-19 -98q37 54 100 83q62 30 138 30q44 0 75 -8q34 -9 65 -24z" />
<glyph unicode="&#x2b4;" d="M315 842q26 -25 65 -37q40 -13 89 -13q62 0 107 18q51 20 79 53q20 22 31.5 52t23.5 92l56 289h188l-122 -628h-188l19 98q-37 -54 -100 -83q-62 -30 -138 -30q-44 0 -75 8q-34 9 -65 24z" />
<glyph unicode="&#x2b5;" d="M267 841q26 -25 65 -37q38 -13 88 -13q59 0 108 19q47 18 79 53q19 21 31 51t24 92l56 289h188l-122 -627h-1q-8 -56 10 -82q20 -31 84 -31h25l-24 -126h-78q-134 0 -180 61q-43 55 -24 178l5 23l14 74q-37 -54 -100 -83t-140 -29q-38 0 -73.5 8t-65.5 23z" />
<glyph unicode="&#x2b6;" d="M535 943h-50l-29 -152h50q58 0 86 17q30 18 37 58q8 41 -14 59t-80 18zM510 1067h23q48 0 80 17q30 15 62 56l123 156h232l-141 -178q-43 -55 -80 -81q-38 -27 -79 -35q69 -18 99 -58q28 -40 16 -103q-18 -89 -96 -131q-79 -42 -230 -42h-316l122 628h229z" />
<glyph unicode="&#x2b7;" d="M283 1296h156l-8 -481l139 317h151l15 -317l180 481h156l-252 -628h-178l-24 326l-149 -326h-178z" />
<glyph unicode="&#x2b8;" d="M625 601q-55 -89 -115 -129q-61 -40 -137 -40h-154l24 125h76q57 0 87.5 17t70.5 79l20 33l-154 610h197l85 -407l236 407h197z" />
<glyph unicode="&#x2b9;" d="M452 1140zM452 1140l161 498h221l-206 -498h-176z" />
<glyph unicode="&#x2bb;" d="M733 903h-313l53 271l270 382h215l-172 -382z" />
<glyph unicode="&#x2bc;" d="M594 1556h313l-52 -271l-271 -382h-215l173 382z" />
<glyph unicode="&#x2bd;" d="M481 1218zM803 1729l-48 -246h-121q-23 -122 98 -122l-28 -143q-274 1 -223 265l48 246h274z" />
<glyph unicode="&#x2be;" d="M632 1140q55 0 100 39q46 38 56 92t-21 92q-31 39 -85 39l30 154q118 0 186 -83q67 -84 44 -202t-122 -202q-100 -83 -218 -83z" />
<glyph unicode="&#x2bf;" d="M801 1140l-30 -154q-118 0 -186 83q-66 84 -43 202t122 202q100 83 218 83l-30 -154q-54 0 -100 -39q-46 -38 -56.5 -92t20.5 -92q30 -39 85 -39z" />
<glyph unicode="&#x2c0;" d="M437 1080h54q125 0 187 64q41 43 49 82q10 54 -15 91q-45 64 -148 64q-46 0 -94 -12t-97 -36l32 167q48 19 97 29q48 10 153 10q138 0 236 -118q61 -74 38 -195q-25 -129 -130 -210q-69 -53 -182 -70l-54 -278h-206z" />
<glyph unicode="&#x2c1;" d="M786 1080l-80 -412h-206l54 278q-105 17 -154 70q-73 81 -48 210q23 121 114 195q144 118 282 118q105 0 149 -10q45 -10 85 -29l-32 -167q-41 24 -83 36q-44 12 -90 12q-103 0 -173 -64q-40 -37 -50 -91q-8 -39 17 -82q36 -64 161 -64h54z" />
<glyph unicode="&#x2c6;" d="M668 1638h243l183 -376h-176l-152 225l-240 -225h-190z" />
<glyph unicode="&#x2c7;" d="M838 1262h-242l-182 376h174l153 -227l238 227h190z" />
<glyph unicode="&#x2c8;" d="M765 1554l-108 -555h-189l108 555h189z" />
<glyph unicode="&#x2c9;" d="M422 1368zM459 1556h631l-37 -188h-631z" />
<glyph unicode="&#x2cc;" d="M765 390l-108 -555h-189l108 555h189z" />
<glyph unicode="&#x2cd;" d="M77 -218zM114 -218h631l-37 -188h-631z" />
<glyph unicode="&#x2d0;" d="M651 740l-131 380h411zM582 380l131 -380h-411z" />
<glyph unicode="&#x2d1;" d="M579 740l-131 380h411z" />
<glyph unicode="&#x2d2;" d="M517 550zM547 704q55 0 100 39q46 38 56 92t-21 92q-31 39 -85 39l30 154q118 0 186 -83q67 -84 44 -202t-122 -202q-100 -83 -218 -83z" />
<glyph unicode="&#x2d3;" d="M457 550zM716 704l-30 -154q-118 0 -186 83q-66 84 -43 202t122 202q100 83 218 83l-30 -154q-54 0 -100 -39q-46 -38 -56.5 -92t20.5 -92q30 -39 85 -39z" />
<glyph unicode="&#x2d6;" d="M543 649l44 225h180l-44 -225h226l-34 -180h-226l-44 -225h-180l44 225h-224l34 180h224z" />
<glyph unicode="&#x2d7;" d="M825 469h-450l34 180h450z" />
<glyph unicode="&#x2d8;" d="M446 1309zM446 1606h144v-13q0 -61 44 -97t120 -36q81 0 139.5 38.5t83.5 107.5h143q-29 -142 -128 -219.5t-251 -77.5q-148 0 -221.5 65.5t-73.5 198.5v33z" />
<glyph unicode="&#x2d9;" d="M594 1339zM643 1585h272l-47 -246h-274z" />
<glyph unicode="&#x2da;" d="M463 1534q0 118 83 201.5t202 83.5q118 0 201 -83.5t83 -201.5t-83 -201.5t-201 -83.5q-119 0 -202 83.5t-83 201.5zM616 1534q0 -55 38.5 -93t93.5 -38q54 0 92.5 38.5t38.5 92.5t-39 92.5t-92 38.5q-55 0 -93.5 -38.5t-38.5 -92.5z" />
<glyph unicode="&#x2db;" d="M412 0h141q-75 -80 -99 -117t-24 -63q0 -33 26 -53.5t68 -20.5q37 0 77 7.5t85 23.5l-31 -156q-49 -11 -95 -16.5t-89 -5.5q-99 0 -157 38.5t-58 104.5q0 60 39 124.5t117 133.5z" />
<glyph unicode="&#x2dc;" d="M739 1364l-49 37q-1 1 -5 4q-42 33 -73 33q-34 0 -60 -34.5t-36 -94.5h-139q19 130 87 207t163 77q34 0 64.5 -12.5t76.5 -48.5l51 -39q19 -15 37 -23t33 -8q38 0 64 33.5t36 95.5h139q-23 -141 -85.5 -212.5t-163.5 -71.5q-35 0 -67.5 13t-72.5 44z" />
<glyph unicode="&#x2dd;" d="M373 1262zM1008 1638h260l-346 -376h-172zM612 1638h246l-321 -376h-164z" />
<glyph unicode="&#x2de;" d="M-287 883l662 189l200 2l-34 -171q-34 -176 -7 -232q28 -55 133 -55h234l-35 -180h-287q-183 0 -241 111q-47 91 -15 257l-660 -178z" />
<glyph unicode="&#x2e0;" d="M753 1006q114 -214 73 -431q-24 -130 -286 -132q-289 -3 -263 132q36 191 253 430l-161 306h206l89 -186l162 186h206zM617 882q-156 -174 -168 -244q-13 -69 103 -69q111 0 125 69q17 91 -60 244z" />
<glyph unicode="&#x2e1;" d="M451 930l94 484h-190l25 126h378l-119 -610q-14 -74 6 -105t83 -31h150l-25 -126h-202q-134 0 -180 61q-47 60 -20 201z" />
<glyph unicode="&#x2e2;" d="M911 1277l-28 -144q-46 29 -99 44t-109 15q-63 0 -98 -16t-41 -47q-7 -34 122 -73l7 -2l52 -11q96 -20 135.5 -68t24.5 -129q-19 -96 -101 -144.5t-228 -48.5q-65 0 -131 9.5t-131 29.5l27 143q56 -31 117 -47t121 -16q66 0 103.5 17t43.5 49q6 31 -17.5 49.5 t-104.5 34.5l-50 10q-105 21 -144.5 66.5t-24.5 121.5q17 90 102 140.5t221 50.5q68 0 123 -8.5t108 -25.5z" />
<glyph unicode="&#x2e3;" d="M1016 1296l-300 -301l199 -327h-219l-100 212l-181 -212h-219l329 327l-186 301h219l83 -187l156 187h219z" />
<glyph unicode="&#x2e4;" d="M786 1080l-80 -412h-206l54 278q-105 17 -154 70q-73 81 -48 210q23 121 114 195q144 118 282 118q105 0 149 -10q45 -10 85 -29l-32 -167q-41 24 -83 36q-44 12 -90 12q-103 0 -173 -64q-40 -37 -50 -91q-8 -39 17 -82q36 -64 161 -64h54z" />
<glyph unicode="&#x2e5;" d="M1097 1420l-276 -1420h-188l239 1232h-497l37 188h685z" />
<glyph unicode="&#x2e6;" d="M1097 1420l-276 -1420h-188l180 924h-497l36 188h497l60 308h188z" />
<glyph unicode="&#x2e7;" d="M1097 1420l-276 -1420h-188l120 616h-497l36 188h497l120 616h188z" />
<glyph unicode="&#x2e8;" d="M1097 1420l-276 -1420h-188l60 308h-497l36 188h497l180 924h188z" />
<glyph unicode="&#x2e9;" d="M821 0h-685l37 188h497l239 1232h188z" />
<glyph unicode="&#x2ee;" d="M147 903zM893 1556h313l-53 -270l-270 -383h-215l172 383zM373 1556h313l-53 -270l-271 -383h-215l172 383z" />
<glyph unicode="&#x2f3;" d="M193 -63zM641 -236q0 -119 -99 -202q-76 -64 -168 -64q-93 0 -137 55.5t-44 118.5q0 119 98 202q76 63 168 63q93 0 137.5 -55.5t44.5 -117.5zM399 -370q37 0 72 29.5t35 64.5q0 81 -73 81q-37 0 -71.5 -29t-34.5 -66q0 -80 72 -80z" />
<glyph unicode="&#x300;" d="M371 1262zM655 1638l209 -376h-198l-295 376h284z" />
<glyph unicode="&#x301;" d="M569 1262zM887 1638h321l-442 -376h-197z" />
<glyph unicode="&#x302;" d="M336 1262zM668 1638h243l183 -376h-176l-152 225l-240 -225h-190z" />
<glyph unicode="&#x303;" d="M377 1307zM739 1364l-49 37q-1 1 -5 4q-42 33 -73 33q-34 0 -60 -34.5t-36 -94.5h-139q19 130 87 207t163 77q34 0 64.5 -12.5t76.5 -48.5l51 -39q19 -15 37 -23t33 -8q38 0 64 33.5t36 95.5h139q-23 -141 -85.5 -212.5t-163.5 -71.5q-35 0 -67.5 13t-72.5 44z" />
<glyph unicode="&#x304;" d="M459 1556h631l-37 -188h-631z" />
<glyph unicode="&#x305;" d="M0 1357zM0 1357zM1233 1547v-190h-1233v190h1233z" />
<glyph unicode="&#x306;" d="M446 1606h144v-13q0 -61 44 -97t120 -36q81 0 139.5 38.5t83.5 107.5h143q-29 -142 -128 -219.5t-251 -77.5q-148 0 -221.5 65.5t-73.5 198.5v33z" />
<glyph unicode="&#x307;" d="M643 1585h272l-47 -246h-274z" />
<glyph unicode="&#x308;" d="M416 1339zM858 1585h238l-49 -246h-236zM463 1585h237l-49 -246h-235z" />
<glyph unicode="&#x309;" d="M853 1552q-18 -91 -145 -206l-17 -84h-189l22 114q66 16 120 62q27 21 35 67q13 62 -41 78q-38 10 -65 8h-49q-46 0 -122 -31l30 152q109 26 207 26q223 0 219 -145q-1 -19 -5 -41z" />
<glyph unicode="&#x30a;" d="M463 1249zM463 1534q0 118 83 201.5t202 83.5q118 0 201 -83.5t83 -201.5t-83 -201.5t-201 -83.5q-119 0 -202 83.5t-83 201.5zM616 1534q0 -55 38.5 -93t93.5 -38q54 0 92.5 38.5t38.5 92.5t-39 92.5t-92 38.5q-55 0 -93.5 -38.5t-38.5 -92.5z" />
<glyph unicode="&#x30b;" d="M1008 1638h260l-346 -376h-172zM612 1638h246l-321 -376h-164z" />
<glyph unicode="&#x30c;" d="M414 1262zM838 1262h-242l-182 376h174l153 -227l238 227h190z" />
<glyph unicode="&#x30d;" d="M755 1706l-86 -444h-190l86 444h190z" />
<glyph unicode="&#x30e;" d="M194 1262zM470 1706l-86 -444h-190l86 444h190zM1040 1706l-86 -444h-190l86 444h190z" />
<glyph unicode="&#x30f;" d="M909 1638l121 -376h-163l-175 376h217zM546 1638l142 -376h-174l-199 376h231z" />
<glyph unicode="&#x310;" d="M446 1309zM446 1309zM446 1606h144v-13q0 -61 44 -97t120 -36q81 0 139.5 38.5t83.5 107.5h143q-29 -142 -128 -219.5t-251 -77.5q-148 0 -221.5 65.5t-73.5 198.5v33zM630 1555zM679 1801h272l-47 -246h-274z" />
<glyph unicode="&#x311;" d="M390 1309q34 144 135.5 220.5t257.5 76.5q157 0 229 -76q55 -59 55 -157q0 -30 -6 -64h-143q1 4 1 8q0 64 -40 99q-43 37 -126 37t-140 -37.5t-82 -106.5h-141z" />
<glyph unicode="&#x312;" d="M717 903h-282l236 306h194z" />
<glyph unicode="&#x313;" d="M529 1729h274l-48 -246q-51 -264 -325 -265l28 143q120 0 144 122h-121z" />
<glyph unicode="&#x314;" d="M803 1729l-48 -246h-121q-23 -122 98 -122l-28 -143q-274 1 -223 265l48 246h274z" />
<glyph unicode="&#x315;" d="M702 1638h321l-257 -376h-197z" />
<glyph unicode="&#x316;" d="M506 -217zM790 -217l209 -376h-198l-295 376h284z" />
<glyph unicode="&#x317;" d="M434 -217zM752 -217h321l-442 -376h-197z" />
<glyph unicode="&#x318;" d="M493 -624h-183l37 189h183l35 183h190l-108 -555h-189z" />
<glyph unicode="&#x319;" d="M475 -252h190l-36 -183h183l-37 -189h-182l-36 -183h-189z" />
<glyph unicode="&#x31a;" d="M722 1713h-366l37 189h555l-108 -555h-189z" />
<glyph unicode="&#x31b;" d="M396 850l27 141q58 -50 90.5 -69t58.5 -19q39 0 69.5 29.5t39.5 78.5q8 39 8 77.5t-8 78.5h156q0 -55 -3.5 -102t-11.5 -88q-23 -115 -81 -176.5t-144 -61.5q-53 0 -102 27t-99 84z" />
<glyph unicode="&#x31c;" d="M509 -370l-26 -132q-93 0 -137 55.5t-44 118.5q0 119 98 202q76 63 169 63l-26 -132q-37 0 -72 -29t-35 -66q0 -80 73 -80z" />
<glyph unicode="&#x31d;" d="M250 -624l37 189h183l35 183h190l-36 -183h183l-37 -189h-555z" />
<glyph unicode="&#x31e;" d="M366 -624h-183l37 189h555l-37 -189h-183l-35 -183h-190z" />
<glyph unicode="&#x31f;" d="M408 -624h-183l37 189h183l35 183h190l-36 -183h183l-37 -189h-182l-36 -183h-189z" />
<glyph unicode="&#x320;" d="M321 -441l36 189h555l-36 -189h-555z" />
<glyph unicode="&#x321;" d="M1104 43q-48 -250 -161 -359q-111 -108 -321 -108h-121l44 225h39q98 0 152 55q51 53 77 187l25 125h291z" />
<glyph unicode="&#x322;" d="M200 41l25 125h291l-25 -125q-26 -134 5 -187q32 -55 130 -55h39l-44 -225h-121q-210 0 -279 108q-69 109 -21 359z" />
<glyph unicode="&#x323;" d="M292 -216h275l-48 -246h-275z" />
<glyph unicode="&#x324;" d="M509 -216h236l-48 -246h-236zM114 -216h236l-48 -246h-236z" />
<glyph unicode="&#x325;" d="M641 -236q0 -119 -99 -202q-76 -64 -168 -64q-93 0 -137 55.5t-44 118.5q0 119 98 202q76 63 168 63q93 0 137.5 -55.5t44.5 -117.5zM399 -370q37 0 72 29.5t35 64.5q0 81 -73 81q-37 0 -71.5 -29t-34.5 -66q0 -80 72 -80z" />
<glyph unicode="&#x326;" d="M284 -198h282l-236 -306h-194z" />
<glyph unicode="&#x327;" d="M564 0q36 -48 54 -94t18 -90q0 -99 -76.5 -158t-206.5 -59q-52 0 -103 6.5t-99 19.5l28 156q43 -17 84 -26t76 -9q68 0 104.5 27t36.5 77q0 26 -13 60.5t-44 89.5h141z" />
<glyph unicode="&#x328;" d="M212 0zM368 0h141q-75 -80 -99 -117t-24 -63q0 -33 26 -53.5t68 -20.5q37 0 77 7.5t85 23.5l-31 -156q-49 -11 -95 -16.5t-89 -5.5q-99 0 -157 38.5t-58 104.5q0 60 39 124.5t117 133.5z" />
<glyph unicode="&#x329;" d="M754 -218l-86 -444h-189l86 444h189z" />
<glyph unicode="&#x32a;" d="M968 -218l-73 -374h-188l36 186h-254l-36 -186h-188l73 374h630z" />
<glyph unicode="&#x32b;" d="M1053 -192q-47 -208 -180 -272q-53 -25 -117 -25q-107 0 -155 70q-75 -70 -181 -70q-181 0 -190 191q-2 48 8 106h143q-8 -137 68 -144q80 0 120 128q3 8 5 16h143q-8 -137 68 -144q71 0 113 109q7 18 12 35h143z" />
<glyph unicode="&#x32c;" d="M498 -485h-241l-183 376h178l154 -227l243 227h178z" />
<glyph unicode="&#x32d;" d="M330 -109h241l183 -376h-178l-156 225l-241 -225h-178z" />
<glyph unicode="&#x32e;" d="M98 -194h144v-13q0 -61 44 -97t120 -36q81 0 139.5 38.5t83.5 107.5h143q-29 -142 -128 -219.5t-251 -77.5q-148 0 -221.5 65.5t-73.5 198.5v33z" />
<glyph unicode="&#x32f;" d="M712 -489h-141v7q0 64 -40 100q-43 37 -126 37t-139.5 -37t-81.5 -107h-143q34 144 135.5 220.5t258.5 76.5q156 0 227 -76q55 -59 55 -157q0 -30 -5 -64z" />
<glyph unicode="&#x330;" d="M391 -430l-49 37q-1 1 -5 4q-42 33 -73 33q-34 0 -60 -34.5t-36 -94.5h-139q19 130 87 207t163 77q34 0 64.5 -12.5t76.5 -48.5l51 -39q19 -15 37 -23t33 -8q38 0 64 33.5t36 95.5h139q-23 -141 -85.5 -212.5t-163.5 -71.5q-35 0 -67.5 13t-72.5 44z" />
<glyph unicode="&#x331;" d="M114 -218h631l-37 -188h-631z" />
<glyph unicode="&#x332;" d="M0 -293zM1233 -293v-190h-1233v190h1233z" />
<glyph unicode="&#x333;" d="M0 -18zM0 -18zM1233 -293v-190h-1233v190h1233zM1233 -18v-190h-1233v190h1233z" />
<glyph unicode="&#x334;" d="M1179 811l-45 -233q-87 -60 -164 -87.5t-156 -27.5q-90 0 -193 51q-20 10 -30 14q-71 34 -120 46t-100 12q-78 0 -154 -29t-162 -92l44 229q90 61 168 88t161 27q53 0 101 -11t116 -42l30 -15q106 -55 199 -55q70 0 144.5 30.5t160.5 94.5z" />
<glyph unicode="&#x335;" d="M173 438l38 194h774l-38 -194h-774z" />
<glyph unicode="&#x336;" d="M-19 438l38 194h1233l-38 -194h-1233z" />
<glyph unicode="&#x337;" d="M33 -117l-116 119l1277 1233l116 -121z" />
<glyph unicode="&#x338;" d="M-2 -63l-139 114l1358 1508l139 -115z" />
<glyph unicode="&#x339;" d="M289 -370q37 0 72 29.5t35 64.5q0 81 -73 81l26 132q93 0 137.5 -55.5t44.5 -117.5q0 -119 -99 -202q-76 -64 -169 -64z" />
<glyph unicode="&#x33a;" d="M265 -520l73 374h188l-36 -186h254l36 186h188l-73 -374h-630z" />
<glyph unicode="&#x33b;" d="M959 -218l-112 -573h-573l112 573h573zM710 -620l44 231h-231l-44 -231h231z" />
<glyph unicode="&#x33c;" d="M180 -489q47 208 180 272q53 25 117 25q107 0 155 -70q75 70 181 70q181 0 190 -191q2 -48 -8 -106h-143q8 137 -68 144q-80 0 -120 -128q-3 -8 -5 -16h-143q8 137 -68 144q-71 0 -113 -109q-7 -18 -12 -35h-143z" />
<glyph unicode="&#x33d;" d="M590 1321l-154 -129l-108 134l154 129l-104 129l160 134l105 -129l154 129l108 -134l-154 -129l104 -129l-160 -134z" />
<glyph unicode="&#x33e;" d="M702 1495q27 -39 33 -60q8 -26 2 -53q-16 -82 -98 -123t-218 -41l24 122h8q57 0 92 15t40 42q2 11 -3 25q-6 15 -17 30l-34 46q-25 33 -32 58q-9 27 -3 54q16 82 98 123.5t218 41.5l-24 -122h-8q-59 0 -93 -14t-39 -41q-3 -19 21 -54q3 -5 4 -8z" />
<glyph unicode="&#x33f;" d="M0 1082zM0 1357zM1233 1547v-190h-1233v190h1233zM0 1082zM1233 1272v-190h-1233v190h1233z" />
<glyph unicode="&#x343;" d="M430 1218zM529 1729h274l-48 -246q-51 -264 -325 -265l28 143q120 0 144 122h-121z" />
<glyph unicode="&#x358;" d="M1212 1339zM1212 1339zM1261 1585h272l-47 -246h-274z" />
<glyph unicode="&#x361;" d="M645 1803q262 5 495 -46q363 -79 306 -251h-143q0 71 -191 107q-196 37 -496.5 37t-511.5 -37q-205 -36 -231 -107h-143q9 173 402 251q198 40 513 46z" />
<glyph unicode="&#x374;" d="M452 1140l161 498h221l-206 -498h-176z" />
<glyph unicode="&#x375;" d="M781 72l-161 -498h-221l206 498h176z" />
<glyph unicode="&#x37a;" d="M611 -426h-179q-88 0 -52 183l29 151h196l-30 -153q-20 -104 31 -104h20z" />
<glyph unicode="&#x37e;" d="M170 0zM375 367h334l-54 -271l-270 -383h-215l152 383zM510 1063h334l-72 -365h-334z" />
<glyph unicode="&#x384;" d="M569 1262zM887 1638h321l-442 -376h-197z" />
<glyph unicode="&#x385;" d="M416 1339zM681 1670zM999 2046h321l-442 -376h-197zM858 1585h238l-49 -246h-236zM463 1585h237l-49 -246h-235z" />
<glyph unicode="&#x386;" d="M0 0zM0 0zM717 1219l-264 -607h284zM582 1493h360l113 -1493h-293l-14 369h-400l-162 -369h-299zM19 1262zM337 1638h321l-442 -376h-197z" />
<glyph unicode="&#x387;" d="M408 530zM479 895h334l-72 -365h-333z" />
<glyph unicode="&#x388;" d="M0 0zM29 0zM958 0h-929l288 1493h932l-51 -260h-635l-63 -322h575l-49 -260h-575l-76 -391h635zM-251 1262zM67 1638h321l-442 -376h-197z" />
<glyph unicode="&#x389;" d="M0 0zM0 0zM283 1493h295l-111 -569h369l110 569h295l-291 -1493h-295l129 664h-368l-129 -664h-295zM-291 1262zM27 1638h321l-442 -376h-197z" />
<glyph unicode="&#x38a;" d="M0 0zM27 0zM266 1233l51 260h889l-51 -260h-297l-188 -973h297l-52 -260h-888l51 260h297l188 973h-297zM-231 1262zM87 1638h321l-442 -376h-197z" />
<glyph unicode="&#x38c;" d="M0 0zM61 0zM868 1020q0 120 -40 180t-121 60q-59 0 -109 -35.5t-86 -104.5q-22 -39 -43.5 -103.5t-44.5 -156.5q-29 -115 -44 -214.5t-15 -174.5q0 -120 40 -179t121 -59q59 0 108.5 35.5t86.5 104.5q23 44 45.5 109.5t42.5 148.5q29 115 44 214.5t15 174.5zM61 465 q0 200 50 405t135 359q77 140 202 215.5t281 75.5q215 0 328.5 -126t113.5 -364q0 -202 -49 -408.5t-133 -357.5q-78 -141 -203.5 -217t-281.5 -76q-217 0 -330 126.5t-113 367.5zM-71 1262zM247 1638h321l-442 -376h-197z" />
<glyph unicode="&#x38e;" d="M0 0zM145 0zM145 1493h293l187 -649l411 649h322l-633 -905l-115 -588h-293l115 588zM-396 1262zM-78 1638h321l-442 -376h-197z" />
<glyph unicode="&#x38f;" d="M0 0zM-11 211h238q-99 109 -126.5 244.5t9.5 326.5q61 312 236 495t410 183q237 0 342.5 -183t44.5 -495q-37 -191 -117.5 -326.5t-221.5 -244.5h238l-41 -211h-471l52 268q97 79 158.5 196t93.5 284q42 214 8.5 330t-136.5 116q-102 0 -181 -116t-121 -330 q-32 -166 -15 -284.5t84 -195.5l-52 -268h-473zM-26 1262zM292 1638h321l-442 -376h-197z" />
<glyph unicode="&#x390;" d="M335 0zM416 1339zM681 1670zM999 2046h321l-442 -376h-197zM858 1585h238l-49 -246h-236zM463 1585h237l-49 -246h-235zM872 1120l-147 -755q-14 -74 16 -107q31 -33 115 -33h58l-44 -225h-78q-252 0 -326 80q-73 78 -30 299l100 516h-201l44 225h493z" />
<glyph unicode="&#x391;" d="M0 0zM717 1219l-264 -607h284zM582 1493h360l113 -1493h-293l-14 369h-400l-162 -369h-299z" />
<glyph unicode="&#x392;" d="M0 0zM397 678l-86 -442h197q156 0 229.5 66.5t73.5 207.5q0 86 -53 127t-164 41h-197zM510 1260l-68 -347h197q121 0 182.5 54.5t61.5 160.5q0 68 -43 100t-133 32h-197zM270 1495h482q211 0 318.5 -83t107.5 -247q0 -161 -95 -260t-270 -119q139 -12 216 -91t77 -210 q0 -108 -38 -201.5t-107 -156.5q-75 -67 -190 -97t-310 -30h-481z" />
<glyph unicode="&#x393;" d="M182 0zM717 1233l-240 -1233h-295l290 1493h930l-50 -260h-635z" />
<glyph unicode="&#x394;" d="M1055 0h-1167l693 1493h361zM750 260l-41 963l-417 -963h458z" />
<glyph unicode="&#x395;" d="M29 0zM958 0h-929l288 1493h932l-51 -260h-635l-63 -322h575l-49 -260h-575l-76 -391h635z" />
<glyph unicode="&#x396;" d="M0 0zM281 1493h1009l-49 -244l-876 -989h700l-51 -260h-1047l47 244l858 989h-643z" />
<glyph unicode="&#x397;" d="M0 0zM283 1493h295l-111 -569h369l110 569h295l-291 -1493h-295l129 664h-368l-129 -664h-295z" />
<glyph unicode="&#x398;" d="M471 651l50 260h254l-50 -260h-254zM715 1255q-113 0 -188.5 -120.5t-127.5 -389.5q-52 -268 -23.5 -388.5t141.5 -120.5q114 0 189.5 120.5t127.5 388.5q52 269 23.5 389.5t-142.5 120.5zM92 745q74 383 245 579t430 196q260 0 354 -196t20 -579q-74 -382 -245 -578 t-431 -196q-259 0 -353 196t-20 578z" />
<glyph unicode="&#x399;" d="M27 0zM266 1233l51 260h889l-51 -260h-297l-188 -973h297l-52 -260h-888l51 260h297l188 973h-297z" />
<glyph unicode="&#x39a;" d="M0 0zM270 1493h295l-108 -557l563 557h348l-606 -604l338 -889h-303l-254 670l-172 -170l-95 -500h-294z" />
<glyph unicode="&#x39b;" d="M183 0h-295l693 1493h361l113 -1493h-295l-51 1223z" />
<glyph unicode="&#x39c;" d="M0 0zM231 1493h353l49 -655l297 655h360l-289 -1493h-253l237 1198l-293 -655h-219l-47 655l-231 -1198h-252z" />
<glyph unicode="&#x39d;" d="M0 0zM266 1493h303l215 -1085l211 1085h260l-288 -1493h-293l-225 1085l-211 -1085h-263z" />
<glyph unicode="&#x39e;" d="M951 0h-959l50 260h959zM1191 1233h-959l50 260h959zM840 664h-479l50 260h480z" />
<glyph unicode="&#x39f;" d="M61 0zM868 1020q0 120 -40 180t-121 60q-59 0 -109 -35.5t-86 -104.5q-22 -39 -43.5 -103.5t-44.5 -156.5q-29 -115 -44 -214.5t-15 -174.5q0 -120 40 -179t121 -59q59 0 108.5 35.5t86.5 104.5q23 44 45.5 109.5t42.5 148.5q29 115 44 214.5t15 174.5zM61 465 q0 200 50 405t135 359q77 140 202 215.5t281 75.5q215 0 328.5 -126t113.5 -364q0 -202 -49 -408.5t-133 -357.5q-78 -141 -203.5 -217t-281.5 -76q-217 0 -330 126.5t-113 367.5z" />
<glyph unicode="&#x3a0;" d="M137 0zM427 1493h959l-290 -1493h-295l240 1233h-369l-240 -1233h-295z" />
<glyph unicode="&#x3a1;" d="M16 0zM553 1245l-84 -438h143q146 0 218.5 67.5t72.5 202.5q0 91 -52 129.5t-177 38.5h-121zM307 1493h420q236 0 359.5 -91.5t123.5 -266.5q0 -114 -36.5 -226t-94.5 -178q-78 -91 -194 -131.5t-301 -40.5h-164l-109 -559h-295z" />
<glyph unicode="&#x3a3;" d="M499 747l-496 -487l-50 -260h1046l50 260h-706l497 487l-307 486h706l50 260h-1046l-50 -259z" />
<glyph unicode="&#x3a4;" d="M180 0zM618 0h-294l239 1235h-383l49 258h1059l-51 -258h-379z" />
<glyph unicode="&#x3a5;" d="M145 0zM145 1493h293l187 -649l411 649h322l-633 -905l-115 -588h-293l115 588z" />
<glyph unicode="&#x3a6;" d="M721 526q24 12 40 27q97 85 118 192q26 130 -43 193l-30 27zM859 1233l-14 -72q148 -23 225 -97q112 -108 71 -319q-41 -210 -195 -318q-106 -75 -263 -97l-14 -70h120l-51 -260h-533l50 260h119l14 70q-148 22 -226 97q-111 108 -70 318q41 211 194 319q106 74 264 97 l14 72h-120l51 260h533l-50 -260h-119zM426 526l85 439l-39 -27q-94 -63 -119 -193q-21 -107 44 -192q10 -15 29 -27z" />
<glyph unicode="&#x3a7;" d="M0 0zM1071 0h-291l-200 512l-400 -512h-323l614 782l-287 711h291l187 -463l360 463h321l-573 -737z" />
<glyph unicode="&#x3a8;" d="M669 260h120l-51 -260h-533l50 260h119l26 132q-138 43 -210 176q-107 196 -32 578l67 347h295l-67 -347q-49 -250 -12 -388q9 -35 20 -53l153 788h295l-153 -788q18 18 40 53q91 138 140 388l67 347h295l-67 -347q-75 -382 -257 -578q-124 -133 -279 -176z" />
<glyph unicode="&#x3a9;" d="M-11 211h238q-99 109 -126.5 244.5t9.5 326.5q61 312 236 495t410 183q237 0 342.5 -183t44.5 -495q-37 -191 -117.5 -326.5t-221.5 -244.5h238l-41 -211h-471l52 268q97 79 158.5 196t93.5 284q42 214 8.5 330t-136.5 116q-102 0 -181 -116t-121 -330 q-32 -166 -15 -284.5t84 -195.5l-52 -268h-473z" />
<glyph unicode="&#x3aa;" d="M27 0zM895 1899h235l-47 -246h-237zM500 1899h235l-49 -246h-236zM27 0zM266 1233l51 260h889l-51 -260h-297l-188 -973h297l-52 -260h-888l51 260h297l188 973h-297z" />
<glyph unicode="&#x3ab;" d="M145 0zM895 1899h235l-47 -246h-237zM500 1899h235l-49 -246h-236zM145 0zM145 1493h293l187 -649l411 649h322l-633 -905l-115 -588h-293l115 588z" />
<glyph unicode="&#x3ac;" d="M53 0zM569 1262zM887 1638h321l-442 -376h-197zM921 1012l57 108h282l-305 -577l-3 -153q-3 -165 65 -165h82l-44 -225h-102q-159 0 -224 84q-14 19 -17 29q-60 -61 -109 -97q-61 -43 -264 -41q-180 2 -258 148q-82 156 -28 432q61 313 197 433q174 154 364 157 q231 4 307 -133zM701 589l1 163q2 152 -130 153q-65 0 -142 -91q-75 -91 -108 -259q-34 -174 8 -256q39 -77 110 -78q68 -2 103 64z" />
<glyph unicode="&#x3ad;" d="M101 0zM569 1262zM887 1638h321l-442 -376h-197zM658 487q-120 0 -197 -47l-20 -13q-57 -41 -69 -106q-4 -18 -2 -32q4 -33 49 -66q59 -42 173 -42q116 0 220 19q26 4 50 10q22 6 124 43l-43 -219q-9 -2 -18 -5q-107 -30 -159 -37q-110 -14 -214 -14q-251 0 -367 86 t-84 248q23 121 118 196q94 75 251 96q-131 19 -191 83q-60 63 -40 163q26 135 167 213q140 77 364 77q87 0 181 -12l10 -2q30 -4 145 -34l-42 -215l-24 8q-90 31 -126 38q-87 15 -168 15q-105 0 -169 -34l-25 -15q-40 -27 -48 -69q-3 -15 -2 -26q4 -26 44 -51 q52 -33 155 -33h151l-43 -223h-151z" />
<glyph unicode="&#x3ae;" d="M102 0zM569 1262zM887 1638h321l-442 -376h-197zM1142 727l-224 -1153h-291l215 1108q24 122 0 174.5t-102 52.5q-79 0 -138.5 -71t-83.5 -197l-125 -641h-291l218 1120h291l-33 -168q49 93 134 144t191 51q159 0 219.5 -105.5t19.5 -314.5z" />
<glyph unicode="&#x3af;" d="M335 0zM569 1262zM887 1638h321l-442 -376h-197zM872 1120l-147 -755q-14 -74 16 -107q31 -33 115 -33h58l-44 -225h-78q-252 0 -326 80q-73 78 -30 299l100 516h-201l44 225h493z" />
<glyph unicode="&#x3b0;" d="M141 0zM416 1339zM681 1670zM999 2046h321l-442 -376h-197zM858 1585h238l-49 -246h-236zM463 1585h237l-49 -246h-235zM562 0q-252 0 -326 80q-73 78 -30 299l100 516h-165l44 225h457l-147 -755q-14 -74 16 -107q31 -33 88 -33q103 0 193 143q34 55 89 272 q26 103 26 269q0 135 -61 211h291v0q41 -71 51 -213q10 -135 -16 -269q-57 -296 -218 -465q-164 -173 -392 -173z" />
<glyph unicode="&#x3b1;" d="M921 1012l57 108h282l-305 -577l-3 -153q-3 -165 65 -165h82l-44 -225h-102q-159 0 -224 84q-14 19 -17 29q-60 -61 -109 -97q-61 -43 -264 -41q-180 2 -258 148q-82 156 -28 432q61 313 197 433q174 154 364 157q231 4 307 -133zM701 589l1 163q2 152 -130 153 q-65 0 -142 -91q-75 -91 -108 -259q-34 -174 8 -256q39 -77 110 -78q68 -2 103 64z" />
</font>
</defs>
</svg>
